{"glyphs":{"0":{"ha":772,"x_min":58,"x_max":714,"o":"m 386 -17 q 206 27 278 -17 q 97 179 135 71 q 58 476 58 288 q 97 774 58 665 q 206 926 135 882 q 386 969 278 969 q 566 925 494 969 q 676 773 638 881 q 714 476 714 665 q 676 180 714 288 q 566 28 638 72 q 386 -17 494 -17 m 386 139 q 469 169 440 139 q 508 260 497 199 q 518 428 518 321 l 518 525 q 508 693 518 632 q 469 784 497 754 q 386 814 440 814 q 303 784 332 814 q 265 693 275 754 q 254 525 254 632 l 254 428 q 265 260 254 321 q 303 169 275 199 q 386 139 332 139 z "},"1":{"ha":772,"x_min":117,"x_max":736,"o":"m 118 156 l 342 156 l 342 722 l 117 722 l 117 840 q 270 879 179 847 q 433 953 361 911 l 532 953 l 532 156 l 736 156 l 736 0 l 118 0 l 118 156 z "},"2":{"ha":772,"x_min":60,"x_max":726,"o":"m 60 50 q 94 192 60 129 q 180 303 129 256 q 313 410 231 350 q 424 500 383 464 q 493 579 465 536 q 528 701 528 633 q 495 780 528 746 q 401 814 463 814 q 264 682 264 814 l 264 625 l 75 625 q 72 644 74 629 q 69 681 69 660 q 166 897 69 825 q 410 969 263 969 q 608 919 539 969 q 699 807 678 869 q 721 690 721 744 q 678 520 721 594 q 576 395 635 446 q 429 285 517 344 q 329 210 363 239 q 294 169 306 189 l 726 169 l 726 0 l 60 0 l 60 50 z "},"3":{"ha":772,"x_min":47,"x_max":721,"o":"m 389 -17 q 136 60 225 -17 q 47 269 47 138 l 47 294 l 240 294 l 240 265 q 278 172 240 204 q 386 139 315 139 q 488 172 450 139 q 525 269 525 204 q 483 376 525 346 q 372 407 442 407 l 301 407 l 301 563 l 376 563 q 469 597 433 563 q 506 696 506 631 q 474 785 506 756 q 386 814 443 814 q 293 784 326 814 q 260 696 260 754 l 260 669 l 67 669 l 67 708 q 107 845 67 786 q 219 937 147 904 q 382 969 290 969 q 615 901 528 969 q 701 708 701 833 q 662 578 701 629 q 551 494 622 528 l 551 489 q 675 406 629 465 q 721 256 721 346 q 678 110 721 172 q 561 16 636 49 q 389 -17 486 -17 z "},"4":{"ha":772,"x_min":28,"x_max":740,"o":"m 436 203 l 28 203 l 28 358 q 283 969 199 632 l 479 969 q 398 731 453 857 q 285 504 343 606 q 193 358 228 403 l 436 358 l 436 568 q 494 694 465 621 q 539 828 522 768 l 626 828 l 626 358 l 740 358 l 740 203 l 626 203 l 626 0 l 436 0 l 436 203 z "},"5":{"ha":772,"x_min":50,"x_max":718,"o":"m 385 -17 q 141 67 232 -17 q 50 296 50 151 l 246 296 q 283 181 246 222 q 385 139 319 139 q 485 183 449 139 q 522 311 522 226 q 485 429 522 389 q 386 469 447 469 q 315 451 344 469 q 263 403 286 433 l 82 425 l 119 953 l 671 953 l 671 783 l 288 783 l 275 572 q 347 606 308 593 q 442 619 386 619 q 641 541 564 619 q 718 311 718 463 q 629 69 718 156 q 385 -17 540 -17 z "},"6":{"ha":772,"x_min":58,"x_max":731,"o":"m 410 -17 q 147 90 236 -17 q 58 449 58 196 q 99 757 58 642 q 214 921 139 872 q 401 969 289 969 q 626 888 551 969 q 700 671 700 806 l 507 671 q 481 778 507 742 q 394 815 454 815 q 305 783 335 815 q 265 692 275 750 q 254 535 256 633 q 281 557 254 538 q 351 593 308 576 q 449 610 394 610 q 660 525 590 610 q 731 297 731 440 q 689 131 731 203 q 574 22 647 60 q 410 -17 501 -17 m 401 139 q 501 183 468 139 q 535 297 535 226 q 501 415 535 372 q 401 458 468 458 q 300 415 335 458 q 265 297 265 372 q 300 183 265 226 q 401 139 335 139 z "},"7":{"ha":772,"x_min":49,"x_max":733,"o":"m 186 0 q 280 417 186 214 q 517 783 374 621 l 49 783 l 49 953 l 733 953 l 733 826 q 488 455 586 643 q 390 71 390 267 q 392 0 390 33 l 186 0 z "},"8":{"ha":772,"x_min":46,"x_max":726,"o":"m 386 -17 q 130 60 214 -17 q 46 261 46 138 q 83 399 46 340 q 197 489 121 457 q 102 578 135 522 q 69 704 69 635 q 106 839 69 779 q 213 934 142 899 q 386 969 285 969 q 559 934 488 969 q 667 839 631 899 q 703 704 703 779 q 670 578 703 635 q 574 489 638 522 q 726 261 726 428 q 642 60 726 138 q 386 -17 558 -17 m 386 563 q 478 595 446 563 q 511 689 511 628 q 478 783 511 750 q 386 817 446 817 q 294 783 326 817 q 263 689 263 750 q 294 595 263 628 q 386 563 326 563 m 386 136 q 493 172 456 136 q 531 274 531 208 q 493 375 531 339 q 386 411 456 411 q 279 375 317 411 q 242 274 242 339 q 279 172 242 208 q 386 136 317 136 z "},"9":{"ha":772,"x_min":42,"x_max":714,"o":"m 371 -17 q 147 65 221 -17 q 72 282 72 147 l 265 282 q 292 174 265 211 q 378 138 318 138 q 467 170 438 138 q 507 261 497 203 q 518 418 517 319 q 491 396 518 415 q 421 360 464 376 q 324 343 378 343 q 112 428 182 343 q 42 656 42 513 q 83 822 42 750 q 198 931 125 893 q 363 969 271 969 q 625 863 536 969 q 714 504 714 757 q 674 196 714 311 q 558 32 633 81 q 371 -17 483 -17 m 371 494 q 472 538 438 494 q 507 656 507 581 q 472 770 507 726 q 371 814 438 814 q 271 770 304 814 q 238 656 238 726 q 271 538 238 581 q 371 494 304 494 z "},"\u0000":{"ha":0,"x_min":0,"x_max":0,"o":""},"\r":{"ha":386,"x_min":0,"x_max":0,"o":""}," ":{"ha":386,"x_min":0,"x_max":0,"o":""},"A":{"ha":1003,"x_min":3,"x_max":1000,"o":"m 3 0 l 375 953 l 628 953 l 1000 0 l 781 0 l 713 182 l 279 182 l 211 0 l 3 0 m 649 350 l 558 592 q 526 689 547 621 q 499 779 506 757 l 492 779 q 464 689 485 757 q 432 592 443 621 l 342 350 l 649 350 z "},"Á":{"ha":1003,"x_min":3,"x_max":1000,"o":"m 3 0 m 3 0 l 375 953 l 628 953 l 1000 0 l 781 0 l 713 182 l 279 182 l 211 0 l 3 0 m 649 350 l 558 592 q 526 689 547 621 q 499 779 506 757 l 492 779 q 464 689 485 757 q 432 592 443 621 l 342 350 l 649 350 m 428 1022 l 538 1206 l 722 1206 l 724 1201 l 574 1022 l 428 1022 z "},"Ă":{"ha":1003,"x_min":3,"x_max":1000,"o":"m 3 0 m 3 0 l 375 953 l 628 953 l 1000 0 l 781 0 l 713 182 l 279 182 l 211 0 l 3 0 m 649 350 l 558 592 q 526 689 547 621 q 499 779 506 757 l 492 779 q 464 689 485 757 q 432 592 443 621 l 342 350 l 649 350 m 500 1015 q 374 1043 424 1015 q 300 1115 324 1071 q 276 1206 276 1158 l 401 1206 q 431 1160 406 1181 q 500 1139 456 1139 q 571 1160 544 1139 q 600 1206 597 1181 l 725 1206 q 701 1115 725 1158 q 627 1043 678 1071 q 500 1015 576 1015 z "},"Ắ":{"ha":1003,"x_min":3,"x_max":1000,"o":"m 3 0 m 3 0 l 375 953 l 628 953 l 1000 0 l 781 0 l 713 182 l 279 182 l 211 0 l 3 0 m 649 350 l 558 592 q 526 689 547 621 q 499 779 506 757 l 492 779 q 464 689 485 757 q 432 592 443 621 l 342 350 l 649 350 m 500 1015 q 374 1043 424 1015 q 300 1115 324 1071 q 276 1206 276 1158 l 401 1206 q 431 1160 406 1181 q 500 1139 456 1139 q 571 1160 544 1139 q 600 1206 597 1181 l 725 1206 q 701 1115 725 1158 q 627 1043 678 1071 q 500 1015 576 1015 m 428 1206 l 538 1389 l 722 1389 l 724 1385 l 574 1206 l 428 1206 z "},"Ặ":{"ha":1003,"x_min":3,"x_max":1000,"o":"m 3 0 m 3 0 l 375 953 l 628 953 l 1000 0 l 781 0 l 713 182 l 279 182 l 211 0 l 3 0 m 649 350 l 558 592 q 526 689 547 621 q 499 779 506 757 l 492 779 q 464 689 485 757 q 432 592 443 621 l 342 350 l 649 350 m 500 1015 q 374 1043 424 1015 q 300 1115 324 1071 q 276 1206 276 1158 l 401 1206 q 431 1160 406 1181 q 500 1139 456 1139 q 571 1160 544 1139 q 600 1206 597 1181 l 725 1206 q 701 1115 725 1158 q 627 1043 678 1071 q 500 1015 576 1015 m 407 -240 l 407 -60 l 594 -60 l 594 -240 l 407 -240 z "},"Ằ":{"ha":1003,"x_min":3,"x_max":1000,"o":"m 3 0 m 3 0 l 375 953 l 628 953 l 1000 0 l 781 0 l 713 182 l 279 182 l 211 0 l 3 0 m 649 350 l 558 592 q 526 689 547 621 q 499 779 506 757 l 492 779 q 464 689 485 757 q 432 592 443 621 l 342 350 l 649 350 m 500 1015 q 374 1043 424 1015 q 300 1115 324 1071 q 276 1206 276 1158 l 401 1206 q 431 1160 406 1181 q 500 1139 456 1139 q 571 1160 544 1139 q 600 1206 597 1181 l 725 1206 q 701 1115 725 1158 q 627 1043 678 1071 q 500 1015 576 1015 m 426 1206 l 276 1385 l 278 1389 l 463 1389 l 572 1206 l 426 1206 z "},"Ẳ":{"ha":1003,"x_min":3,"x_max":1000,"o":"m 3 0 m 3 0 l 375 953 l 628 953 l 1000 0 l 781 0 l 713 182 l 279 182 l 211 0 l 3 0 m 649 350 l 558 592 q 526 689 547 621 q 499 779 506 757 l 492 779 q 464 689 485 757 q 432 592 443 621 l 342 350 l 649 350 m 500 1015 q 374 1043 424 1015 q 300 1115 324 1071 q 276 1206 276 1158 l 401 1206 q 431 1160 406 1181 q 500 1139 456 1139 q 571 1160 544 1139 q 600 1206 597 1181 l 725 1206 q 701 1115 725 1158 q 627 1043 678 1071 q 500 1015 576 1015 m 454 1281 l 474 1281 q 508 1287 499 1281 q 518 1307 518 1293 q 506 1328 518 1322 q 469 1333 494 1333 l 389 1333 l 389 1394 q 504 1406 442 1406 q 617 1387 568 1406 q 667 1321 667 1368 q 633 1263 667 1283 q 549 1240 600 1243 l 549 1206 l 454 1206 l 454 1281 z "},"Ẵ":{"ha":1003,"x_min":3,"x_max":1000,"o":"m 3 0 m 3 0 l 375 953 l 628 953 l 1000 0 l 781 0 l 713 182 l 279 182 l 211 0 l 3 0 m 649 350 l 558 592 q 526 689 547 621 q 499 779 506 757 l 492 779 q 464 689 485 757 q 432 592 443 621 l 342 350 l 649 350 m 500 1015 q 374 1043 424 1015 q 300 1115 324 1071 q 276 1206 276 1158 l 401 1206 q 431 1160 406 1181 q 500 1139 456 1139 q 571 1160 544 1139 q 600 1206 597 1181 l 725 1206 q 701 1115 725 1158 q 627 1043 678 1071 q 500 1015 576 1015 m 271 1258 q 305 1380 271 1332 q 407 1428 339 1428 q 449 1422 429 1428 q 503 1401 468 1415 q 551 1383 532 1389 q 592 1376 571 1376 q 624 1388 613 1376 q 640 1428 636 1400 l 738 1428 q 703 1306 738 1354 q 600 1258 669 1258 q 559 1265 578 1258 q 506 1285 540 1271 q 457 1303 476 1297 q 417 1310 438 1310 q 368 1258 375 1310 l 271 1258 z "},"Ǎ":{"ha":1003,"x_min":3,"x_max":1000,"o":"m 3 0 m 3 0 l 375 953 l 628 953 l 1000 0 l 781 0 l 713 182 l 279 182 l 211 0 l 3 0 m 649 350 l 558 592 q 526 689 547 621 q 499 779 506 757 l 492 779 q 464 689 485 757 q 432 592 443 621 l 342 350 l 649 350 m 417 1018 l 269 1206 l 424 1206 l 501 1110 l 578 1206 l 732 1206 l 586 1018 l 417 1018 z "},"Â":{"ha":1003,"x_min":3,"x_max":1000,"o":"m 3 0 m 3 0 l 375 953 l 628 953 l 1000 0 l 781 0 l 713 182 l 279 182 l 211 0 l 3 0 m 649 350 l 558 592 q 526 689 547 621 q 499 779 506 757 l 492 779 q 464 689 485 757 q 432 592 443 621 l 342 350 l 649 350 m 269 1018 l 417 1206 l 586 1206 l 732 1018 l 578 1018 l 501 1114 l 424 1018 l 269 1018 z "},"Ấ":{"ha":1003,"x_min":3,"x_max":1000,"o":"m 3 0 m 3 0 l 375 953 l 628 953 l 1000 0 l 781 0 l 713 182 l 279 182 l 211 0 l 3 0 m 649 350 l 558 592 q 526 689 547 621 q 499 779 506 757 l 492 779 q 464 689 485 757 q 432 592 443 621 l 342 350 l 649 350 m 269 1018 l 417 1206 l 586 1206 l 732 1018 l 578 1018 l 501 1114 l 424 1018 l 269 1018 m 632 1154 l 742 1338 l 926 1338 l 928 1333 l 778 1154 l 632 1154 z "},"Ậ":{"ha":1003,"x_min":3,"x_max":1000,"o":"m 3 0 m 3 0 l 375 953 l 628 953 l 1000 0 l 781 0 l 713 182 l 279 182 l 211 0 l 3 0 m 649 350 l 558 592 q 526 689 547 621 q 499 779 506 757 l 492 779 q 464 689 485 757 q 432 592 443 621 l 342 350 l 649 350 m 269 1018 l 417 1206 l 586 1206 l 732 1018 l 578 1018 l 501 1114 l 424 1018 l 269 1018 m 407 -240 l 407 -60 l 594 -60 l 594 -240 l 407 -240 z "},"Ầ":{"ha":1003,"x_min":3,"x_max":1000,"o":"m 3 0 m 3 0 l 375 953 l 628 953 l 1000 0 l 781 0 l 713 182 l 279 182 l 211 0 l 3 0 m 649 350 l 558 592 q 526 689 547 621 q 499 779 506 757 l 492 779 q 464 689 485 757 q 432 592 443 621 l 342 350 l 649 350 m 269 1018 l 417 1206 l 586 1206 l 732 1018 l 578 1018 l 501 1114 l 424 1018 l 269 1018 m 688 1154 l 538 1333 l 539 1338 l 724 1338 l 833 1154 l 688 1154 z "},"Ẩ":{"ha":1003,"x_min":3,"x_max":1000,"o":"m 3 0 m 3 0 l 375 953 l 628 953 l 1000 0 l 781 0 l 713 182 l 279 182 l 211 0 l 3 0 m 649 350 l 558 592 q 526 689 547 621 q 499 779 506 757 l 492 779 q 464 689 485 757 q 432 592 443 621 l 342 350 l 649 350 m 269 1018 l 417 1206 l 586 1206 l 732 1018 l 578 1018 l 501 1114 l 424 1018 l 269 1018 m 658 1229 l 678 1229 q 713 1235 703 1229 q 722 1256 722 1242 q 710 1276 722 1271 q 674 1282 699 1282 l 593 1282 l 593 1343 q 708 1354 646 1354 q 822 1335 772 1354 q 871 1269 871 1317 q 838 1212 871 1232 q 753 1189 804 1192 l 753 1154 l 658 1154 l 658 1229 z "},"Ẫ":{"ha":1003,"x_min":3,"x_max":1000,"o":"m 3 0 m 3 0 l 375 953 l 628 953 l 1000 0 l 781 0 l 713 182 l 279 182 l 211 0 l 3 0 m 649 350 l 558 592 q 526 689 547 621 q 499 779 506 757 l 492 779 q 464 689 485 757 q 432 592 443 621 l 342 350 l 649 350 m 269 1018 l 417 1206 l 586 1206 l 732 1018 l 578 1018 l 501 1114 l 424 1018 l 269 1018 m 271 1258 q 305 1380 271 1332 q 407 1428 339 1428 q 449 1422 429 1428 q 503 1401 468 1415 q 551 1383 532 1389 q 592 1376 571 1376 q 624 1388 613 1376 q 640 1428 636 1400 l 738 1428 q 703 1306 738 1354 q 600 1258 669 1258 q 559 1265 578 1258 q 506 1285 540 1271 q 457 1303 476 1297 q 417 1310 438 1310 q 368 1258 375 1310 l 271 1258 z "},"Ȁ":{"ha":1003,"x_min":3,"x_max":1000,"o":"m 3 0 m 3 0 l 375 953 l 628 953 l 1000 0 l 781 0 l 713 182 l 279 182 l 211 0 l 3 0 m 649 350 l 558 592 q 526 689 547 621 q 499 779 506 757 l 492 779 q 464 689 485 757 q 432 592 443 621 l 342 350 l 649 350 m 335 1022 l 185 1201 l 186 1206 l 371 1206 l 481 1022 l 335 1022 m 578 1022 l 428 1201 l 429 1206 l 614 1206 l 724 1022 l 578 1022 z "},"Ä":{"ha":1003,"x_min":3,"x_max":1000,"o":"m 3 0 m 3 0 l 375 953 l 628 953 l 1000 0 l 781 0 l 713 182 l 279 182 l 211 0 l 3 0 m 649 350 l 558 592 q 526 689 547 621 q 499 779 506 757 l 492 779 q 464 689 485 757 q 432 592 443 621 l 342 350 l 649 350 m 274 1042 l 274 1206 l 438 1206 l 438 1042 l 274 1042 m 565 1042 l 565 1206 l 731 1206 l 731 1042 l 565 1042 z "},"Ạ":{"ha":1003,"x_min":3,"x_max":1000,"o":"m 3 0 m 3 0 l 375 953 l 628 953 l 1000 0 l 781 0 l 713 182 l 279 182 l 211 0 l 3 0 m 649 350 l 558 592 q 526 689 547 621 q 499 779 506 757 l 492 779 q 464 689 485 757 q 432 592 443 621 l 342 350 l 649 350 m 407 -240 l 407 -60 l 594 -60 l 594 -240 l 407 -240 z "},"À":{"ha":1003,"x_min":3,"x_max":1000,"o":"m 3 0 m 3 0 l 375 953 l 628 953 l 1000 0 l 781 0 l 713 182 l 279 182 l 211 0 l 3 0 m 649 350 l 558 592 q 526 689 547 621 q 499 779 506 757 l 492 779 q 464 689 485 757 q 432 592 443 621 l 342 350 l 649 350 m 428 1022 l 278 1201 l 279 1206 l 464 1206 l 574 1022 l 428 1022 z "},"Ả":{"ha":1003,"x_min":3,"x_max":1000,"o":"m 3 0 m 3 0 l 375 953 l 628 953 l 1000 0 l 781 0 l 713 182 l 279 182 l 211 0 l 3 0 m 649 350 l 558 592 q 526 689 547 621 q 499 779 506 757 l 492 779 q 464 689 485 757 q 432 592 443 621 l 342 350 l 649 350 m 454 1097 l 474 1097 q 508 1103 499 1097 q 518 1124 518 1110 q 506 1144 518 1139 q 469 1150 494 1150 l 389 1150 l 389 1211 q 504 1222 442 1222 q 617 1203 568 1222 q 667 1138 667 1185 q 633 1080 667 1100 q 549 1057 600 1060 l 549 1022 l 454 1022 l 454 1097 z "},"Ȃ":{"ha":1003,"x_min":3,"x_max":1000,"o":"m 3 0 m 3 0 l 375 953 l 628 953 l 1000 0 l 781 0 l 713 182 l 279 182 l 211 0 l 3 0 m 649 350 l 558 592 q 526 689 547 621 q 499 779 506 757 l 492 779 q 464 689 485 757 q 432 592 443 621 l 342 350 l 649 350 m 276 1015 q 300 1106 276 1063 q 374 1178 324 1150 q 500 1206 424 1206 q 627 1178 576 1206 q 701 1106 678 1150 q 725 1015 725 1063 l 600 1015 q 571 1061 597 1040 q 500 1082 544 1082 q 431 1061 456 1082 q 401 1015 406 1040 l 276 1015 z "},"Ā":{"ha":1003,"x_min":3,"x_max":1000,"o":"m 3 0 m 3 0 l 375 953 l 628 953 l 1000 0 l 781 0 l 713 182 l 279 182 l 211 0 l 3 0 m 649 350 l 558 592 q 526 689 547 621 q 499 779 506 757 l 492 779 q 464 689 485 757 q 432 592 443 621 l 342 350 l 649 350 m 289 1050 l 289 1172 l 713 1172 l 713 1050 l 289 1050 z "},"Ą":{"ha":1003,"x_min":3,"x_max":1001,"o":"m 886 -253 q 769 -224 814 -253 q 725 -131 725 -196 q 740 -58 725 -89 q 781 0 754 -28 l 713 182 l 279 182 l 211 0 l 3 0 l 375 953 l 628 953 l 1000 0 l 906 0 q 871 -86 871 -43 q 951 -157 871 -157 l 1001 -157 l 1001 -233 q 886 -253 939 -253 m 649 350 l 558 592 q 526 689 547 621 q 499 779 506 757 l 492 779 q 464 689 485 757 q 432 592 443 621 l 342 350 l 649 350 z "},"Å":{"ha":1003,"x_min":3,"x_max":1000,"o":"m 3 0 m 3 0 l 375 953 l 628 953 l 1000 0 l 781 0 l 713 182 l 279 182 l 211 0 l 3 0 m 649 350 l 558 592 q 526 689 547 621 q 499 779 506 757 l 492 779 q 464 689 485 757 q 432 592 443 621 l 342 350 l 649 350 m 501 974 q 399 1014 438 974 q 361 1114 361 1054 q 399 1214 361 1174 q 501 1254 438 1254 q 603 1214 565 1254 q 642 1114 642 1174 q 603 1014 642 1054 q 501 974 565 974 m 501 1053 q 545 1070 528 1053 q 563 1114 563 1088 q 545 1158 563 1140 q 501 1175 528 1175 q 457 1158 474 1175 q 440 1114 440 1140 q 457 1070 440 1088 q 501 1053 474 1053 z "},"Ǻ":{"ha":1003,"x_min":3,"x_max":1000,"o":"m 419 1196 l 529 1379 l 714 1379 l 715 1375 l 565 1196 l 419 1196 m 375 953 q 361 1018 361 981 q 399 1118 361 1078 q 501 1158 438 1158 q 603 1118 565 1158 q 642 1018 642 1078 q 628 953 642 985 l 1000 0 l 781 0 l 713 182 l 279 182 l 211 0 l 3 0 l 375 953 m 503 956 q 546 974 529 956 q 563 1018 563 992 q 545 1062 563 1044 q 501 1079 528 1079 q 457 1062 474 1079 q 440 1018 440 1044 q 458 974 440 992 q 503 956 475 956 m 649 350 l 558 592 q 526 689 547 621 q 499 779 506 757 l 492 779 q 464 689 485 757 q 432 592 443 621 l 342 350 l 649 350 z "},"Ã":{"ha":1003,"x_min":3,"x_max":1000,"o":"m 3 0 m 3 0 l 375 953 l 628 953 l 1000 0 l 781 0 l 713 182 l 279 182 l 211 0 l 3 0 m 649 350 l 558 592 q 526 689 547 621 q 499 779 506 757 l 492 779 q 464 689 485 757 q 432 592 443 621 l 342 350 l 649 350 m 268 1036 q 302 1158 268 1110 q 404 1206 336 1206 q 446 1199 426 1206 q 500 1179 465 1193 q 549 1160 529 1167 q 589 1154 568 1154 q 622 1166 610 1154 q 638 1206 633 1178 l 735 1206 q 701 1084 735 1132 q 597 1036 667 1036 q 556 1042 575 1036 q 503 1063 538 1049 q 454 1081 474 1075 q 414 1088 435 1088 q 365 1036 372 1088 l 268 1036 z "},"Æ":{"ha":1389,"x_min":-7,"x_max":1313,"o":"m -7 0 l 454 953 l 1304 953 l 1304 782 l 767 782 l 822 572 l 1243 572 l 1243 401 l 868 401 l 929 171 l 1313 171 l 1313 0 l 771 0 l 724 182 l 285 182 l 201 0 l -7 0 m 363 350 l 681 350 l 569 782 l 563 782 l 363 350 z "},"Ǽ":{"ha":1389,"x_min":-7,"x_max":1313,"o":"m 0 0 m -7 0 l 454 953 l 1304 953 l 1304 782 l 767 782 l 822 572 l 1243 572 l 1243 401 l 868 401 l 929 171 l 1313 171 l 1313 0 l 771 0 l 724 182 l 285 182 l 201 0 l -7 0 m 363 350 l 681 350 l 569 782 l 563 782 l 363 350 m 621 1022 l 731 1206 l 915 1206 l 917 1201 l 767 1022 l 621 1022 z "},"B":{"ha":1003,"x_min":93,"x_max":932,"o":"m 93 953 l 639 953 q 775 923 714 953 q 871 840 836 893 q 906 717 906 786 q 862 580 906 638 q 750 500 818 522 l 750 494 q 881 416 831 479 q 932 267 932 353 q 849 69 932 138 q 639 0 767 0 l 93 0 l 93 953 m 582 572 q 668 601 638 572 q 699 674 699 629 q 670 754 699 726 q 592 782 642 782 l 296 782 l 296 572 l 582 572 m 606 171 q 692 201 658 171 q 725 289 725 232 q 692 372 725 340 q 594 404 658 404 l 296 404 l 296 171 l 606 171 z "},"C":{"ha":1003,"x_min":58,"x_max":946,"o":"m 519 -17 q 58 476 58 -17 q 179 847 58 724 q 519 969 300 969 q 737 928 640 969 q 890 803 833 888 q 946 599 946 719 l 739 599 q 679 745 739 692 q 524 799 619 799 q 329 721 393 799 q 265 497 265 643 l 265 456 q 524 154 265 154 q 685 207 625 154 q 746 353 746 260 l 946 353 q 890 148 946 231 q 739 24 835 65 q 519 -17 643 -17 z "},"Ć":{"ha":1003,"x_min":58,"x_max":946,"o":"m 58 0 m 519 -17 q 58 476 58 -17 q 179 847 58 724 q 519 969 300 969 q 737 928 640 969 q 890 803 833 888 q 946 599 946 719 l 739 599 q 679 745 739 692 q 524 799 619 799 q 329 721 393 799 q 265 497 265 643 l 265 456 q 524 154 265 154 q 685 207 625 154 q 746 353 746 260 l 946 353 q 890 148 946 231 q 739 24 835 65 q 519 -17 643 -17 m 428 1022 l 538 1206 l 722 1206 l 724 1201 l 574 1022 l 428 1022 z "},"Č":{"ha":1003,"x_min":58,"x_max":946,"o":"m 58 0 m 519 -17 q 58 476 58 -17 q 179 847 58 724 q 519 969 300 969 q 737 928 640 969 q 890 803 833 888 q 946 599 946 719 l 739 599 q 679 745 739 692 q 524 799 619 799 q 329 721 393 799 q 265 497 265 643 l 265 456 q 524 154 265 154 q 685 207 625 154 q 746 353 746 260 l 946 353 q 890 148 946 231 q 739 24 835 65 q 519 -17 643 -17 m 417 1018 l 269 1206 l 424 1206 l 501 1110 l 578 1206 l 732 1206 l 586 1018 l 417 1018 z "},"Ç":{"ha":1003,"x_min":58,"x_max":946,"o":"m 524 154 q 685 207 625 154 q 746 353 746 260 l 946 353 q 842 91 946 185 q 569 -15 739 -3 l 565 -46 q 664 -72 626 -49 q 701 -140 701 -96 q 644 -228 701 -203 q 513 -253 586 -253 q 368 -242 435 -253 l 368 -174 l 490 -174 q 538 -167 522 -174 q 553 -140 553 -160 q 540 -115 553 -124 q 494 -107 526 -107 l 438 -107 l 451 -14 q 58 476 58 22 q 179 847 58 724 q 519 969 300 969 q 737 928 640 969 q 890 803 833 888 q 946 599 946 719 l 739 599 q 679 745 739 692 q 524 799 619 799 q 329 721 393 799 q 265 497 265 643 l 265 456 q 524 154 265 154 z "},"Ĉ":{"ha":1003,"x_min":58,"x_max":946,"o":"m 58 0 m 519 -17 q 58 476 58 -17 q 179 847 58 724 q 519 969 300 969 q 737 928 640 969 q 890 803 833 888 q 946 599 946 719 l 739 599 q 679 745 739 692 q 524 799 619 799 q 329 721 393 799 q 265 497 265 643 l 265 456 q 524 154 265 154 q 685 207 625 154 q 746 353 746 260 l 946 353 q 890 148 946 231 q 739 24 835 65 q 519 -17 643 -17 m 269 1018 l 417 1206 l 586 1206 l 732 1018 l 578 1018 l 501 1114 l 424 1018 l 269 1018 z "},"Ċ":{"ha":1003,"x_min":58,"x_max":946,"o":"m 58 0 m 519 -17 q 58 476 58 -17 q 179 847 58 724 q 519 969 300 969 q 737 928 640 969 q 890 803 833 888 q 946 599 946 719 l 739 599 q 679 745 739 692 q 524 799 619 799 q 329 721 393 799 q 265 497 265 643 l 265 456 q 524 154 265 154 q 685 207 625 154 q 746 353 746 260 l 946 353 q 890 148 946 231 q 739 24 835 65 q 519 -17 643 -17 m 407 1026 l 407 1207 l 594 1207 l 594 1026 l 407 1026 z "},"D":{"ha":1003,"x_min":93,"x_max":943,"o":"m 93 953 l 488 953 q 824 834 706 953 q 943 476 943 715 q 824 119 943 238 q 488 0 706 0 l 93 0 l 93 953 m 488 171 q 673 245 610 171 q 736 456 736 319 l 736 497 q 673 708 736 633 q 488 782 610 782 l 294 782 l 294 171 l 488 171 z "},"Ǳ":{"ha":1851,"x_min":93,"x_max":1817,"o":"m 93 0 m 93 953 l 488 953 q 824 834 706 953 q 943 476 943 715 q 824 119 943 238 q 488 0 706 0 l 93 0 l 93 953 m 488 171 q 673 245 610 171 q 736 456 736 319 l 736 497 q 673 708 736 633 q 488 782 610 782 l 294 782 l 294 171 l 488 171 m 1026 0 l 1026 94 l 1508 782 l 1063 782 l 1063 953 l 1804 953 l 1804 857 l 1324 171 l 1817 171 l 1817 0 l 1026 0 z "},"Ǆ":{"ha":1851,"x_min":93,"x_max":1817,"o":"m 93 0 m 93 953 l 488 953 q 824 834 706 953 q 943 476 943 715 q 824 119 943 238 q 488 0 706 0 l 93 0 l 93 953 m 488 171 q 673 245 610 171 q 736 456 736 319 l 736 497 q 673 708 736 633 q 488 782 610 782 l 294 782 l 294 171 l 488 171 m 1026 0 l 1026 94 l 1508 782 l 1063 782 l 1063 953 l 1804 953 l 1804 857 l 1324 171 l 1817 171 l 1817 0 l 1026 0 m 1343 1018 l 1196 1206 l 1350 1206 l 1428 1110 l 1504 1206 l 1658 1206 l 1513 1018 l 1343 1018 z "},"Ð":{"ha":1003,"x_min":6,"x_max":943,"o":"m 488 953 q 824 834 706 953 q 943 476 943 715 q 824 119 943 238 q 488 0 706 0 l 93 0 l 93 433 l 6 433 l 6 551 l 93 551 l 93 953 l 488 953 m 736 497 q 673 708 736 633 q 488 782 610 782 l 294 782 l 294 551 l 488 551 l 488 433 l 294 433 l 294 171 l 488 171 q 673 245 610 171 q 736 456 736 319 l 736 497 z "},"Ď":{"ha":1003,"x_min":93,"x_max":943,"o":"m 93 0 m 93 953 l 488 953 q 824 834 706 953 q 943 476 943 715 q 824 119 943 238 q 488 0 706 0 l 93 0 l 93 953 m 488 171 q 673 245 610 171 q 736 456 736 319 l 736 497 q 673 708 736 633 q 488 782 610 782 l 294 782 l 294 171 l 488 171 m 417 1018 l 269 1206 l 424 1206 l 501 1110 l 578 1206 l 732 1206 l 586 1018 l 417 1018 z "},"Đ":{"ha":1003,"x_min":6,"x_max":943,"o":"m 6 0 m 488 953 q 824 834 706 953 q 943 476 943 715 q 824 119 943 238 q 488 0 706 0 l 93 0 l 93 433 l 6 433 l 6 551 l 93 551 l 93 953 l 488 953 m 736 497 q 673 708 736 633 q 488 782 610 782 l 294 782 l 294 551 l 488 551 l 488 433 l 294 433 l 294 171 l 488 171 q 673 245 610 171 q 736 456 736 319 l 736 497 z "},"Ḍ":{"ha":1003,"x_min":93,"x_max":943,"o":"m 93 0 m 93 953 l 488 953 q 824 834 706 953 q 943 476 943 715 q 824 119 943 238 q 488 0 706 0 l 93 0 l 93 953 m 488 171 q 673 245 610 171 q 736 456 736 319 l 736 497 q 673 708 736 633 q 488 782 610 782 l 294 782 l 294 171 l 488 171 m 407 -240 l 407 -60 l 594 -60 l 594 -240 l 407 -240 z "},"ǲ":{"ha":1697,"x_min":93,"x_max":1667,"o":"m 93 0 m 93 953 l 488 953 q 824 834 706 953 q 943 476 943 715 q 824 119 943 238 q 488 0 706 0 l 93 0 l 93 953 m 488 171 q 673 245 610 171 q 736 456 736 319 l 736 497 q 673 708 736 633 q 488 782 610 782 l 294 782 l 294 171 l 488 171 m 1032 0 l 1032 85 l 1378 575 l 1053 575 l 1053 731 l 1654 731 l 1654 647 l 1307 156 l 1667 156 l 1667 0 l 1032 0 z "},"ǅ":{"ha":1697,"x_min":93,"x_max":1667,"o":"m 93 0 m 93 953 l 488 953 q 824 834 706 953 q 943 476 943 715 q 824 119 943 238 q 488 0 706 0 l 93 0 l 93 953 m 488 171 q 673 245 610 171 q 736 456 736 319 l 736 497 q 673 708 736 633 q 488 782 610 782 l 294 782 l 294 171 l 488 171 m 1032 0 l 1032 85 l 1378 575 l 1053 575 l 1053 731 l 1654 731 l 1654 647 l 1307 156 l 1667 156 l 1667 0 l 1032 0 m 1265 817 l 1118 1004 l 1272 1004 l 1350 908 l 1426 1004 l 1581 1004 l 1435 817 l 1265 817 z "},"E":{"ha":926,"x_min":93,"x_max":850,"o":"m 93 0 l 93 953 l 842 953 l 842 782 l 294 782 l 294 572 l 781 572 l 781 401 l 294 401 l 294 171 l 850 171 l 850 0 l 93 0 z "},"É":{"ha":926,"x_min":93,"x_max":850,"o":"m 93 0 m 93 0 l 93 953 l 842 953 l 842 782 l 294 782 l 294 572 l 781 572 l 781 401 l 294 401 l 294 171 l 850 171 l 850 0 l 93 0 m 390 1022 l 500 1206 l 685 1206 l 686 1201 l 536 1022 l 390 1022 z "},"Ĕ":{"ha":926,"x_min":93,"x_max":850,"o":"m 93 0 m 93 0 l 93 953 l 842 953 l 842 782 l 294 782 l 294 572 l 781 572 l 781 401 l 294 401 l 294 171 l 850 171 l 850 0 l 93 0 m 463 1015 q 336 1043 386 1015 q 263 1115 286 1071 q 239 1206 239 1158 l 364 1206 q 393 1160 368 1181 q 463 1139 418 1139 q 533 1160 507 1139 q 563 1206 560 1181 l 688 1206 q 664 1115 688 1158 q 590 1043 640 1071 q 463 1015 539 1015 z "},"Ě":{"ha":926,"x_min":93,"x_max":850,"o":"m 93 0 m 93 0 l 93 953 l 842 953 l 842 782 l 294 782 l 294 572 l 781 572 l 781 401 l 294 401 l 294 171 l 850 171 l 850 0 l 93 0 m 379 1018 l 232 1206 l 386 1206 l 464 1110 l 540 1206 l 694 1206 l 549 1018 l 379 1018 z "},"Ê":{"ha":926,"x_min":93,"x_max":850,"o":"m 93 0 m 93 0 l 93 953 l 842 953 l 842 782 l 294 782 l 294 572 l 781 572 l 781 401 l 294 401 l 294 171 l 850 171 l 850 0 l 93 0 m 232 1018 l 379 1206 l 549 1206 l 694 1018 l 540 1018 l 464 1114 l 386 1018 l 232 1018 z "},"Ế":{"ha":926,"x_min":93,"x_max":890,"o":"m 93 0 m 93 0 l 93 953 l 842 953 l 842 782 l 294 782 l 294 572 l 781 572 l 781 401 l 294 401 l 294 171 l 850 171 l 850 0 l 93 0 m 232 1018 l 379 1206 l 549 1206 l 694 1018 l 540 1018 l 464 1114 l 386 1018 l 232 1018 m 594 1154 l 704 1338 l 889 1338 l 890 1333 l 740 1154 l 594 1154 z "},"Ệ":{"ha":926,"x_min":93,"x_max":850,"o":"m 93 0 m 93 0 l 93 953 l 842 953 l 842 782 l 294 782 l 294 572 l 781 572 l 781 401 l 294 401 l 294 171 l 850 171 l 850 0 l 93 0 m 232 1018 l 379 1206 l 549 1206 l 694 1018 l 540 1018 l 464 1114 l 386 1018 l 232 1018 m 369 -240 l 369 -60 l 557 -60 l 557 -240 l 369 -240 z "},"Ề":{"ha":926,"x_min":93,"x_max":850,"o":"m 93 0 m 93 0 l 93 953 l 842 953 l 842 782 l 294 782 l 294 572 l 781 572 l 781 401 l 294 401 l 294 171 l 850 171 l 850 0 l 93 0 m 232 1018 l 379 1206 l 549 1206 l 694 1018 l 540 1018 l 464 1114 l 386 1018 l 232 1018 m 650 1154 l 500 1333 l 501 1338 l 686 1338 l 796 1154 l 650 1154 z "},"Ể":{"ha":926,"x_min":93,"x_max":850,"o":"m 93 0 m 93 0 l 93 953 l 842 953 l 842 782 l 294 782 l 294 572 l 781 572 l 781 401 l 294 401 l 294 171 l 850 171 l 850 0 l 93 0 m 232 1018 l 379 1206 l 549 1206 l 694 1018 l 540 1018 l 464 1114 l 386 1018 l 232 1018 m 621 1229 l 640 1229 q 675 1235 665 1229 q 685 1256 685 1242 q 673 1276 685 1271 q 636 1282 661 1282 l 556 1282 l 556 1343 q 671 1354 608 1354 q 784 1335 735 1354 q 833 1269 833 1317 q 800 1212 833 1232 q 715 1189 767 1192 l 715 1154 l 621 1154 l 621 1229 z "},"Ễ":{"ha":926,"x_min":93,"x_max":850,"o":"m 93 0 m 93 0 l 93 953 l 842 953 l 842 782 l 294 782 l 294 572 l 781 572 l 781 401 l 294 401 l 294 171 l 850 171 l 850 0 l 93 0 m 232 1018 l 379 1206 l 549 1206 l 694 1018 l 540 1018 l 464 1114 l 386 1018 l 232 1018 m 233 1258 q 267 1380 233 1332 q 369 1428 301 1428 q 411 1422 392 1428 q 465 1401 431 1415 q 514 1383 494 1389 q 554 1376 533 1376 q 587 1388 575 1376 q 603 1428 599 1400 l 700 1428 q 666 1306 700 1354 q 563 1258 632 1258 q 522 1265 540 1258 q 468 1285 503 1271 q 419 1303 439 1297 q 379 1310 400 1310 q 331 1258 338 1310 l 233 1258 z "},"Ȅ":{"ha":926,"x_min":93,"x_max":850,"o":"m 93 0 m 93 0 l 93 953 l 842 953 l 842 782 l 294 782 l 294 572 l 781 572 l 781 401 l 294 401 l 294 171 l 850 171 l 850 0 l 93 0 m 297 1022 l 147 1201 l 149 1206 l 333 1206 l 443 1022 l 297 1022 m 540 1022 l 390 1201 l 392 1206 l 576 1206 l 686 1022 l 540 1022 z "},"Ë":{"ha":926,"x_min":93,"x_max":850,"o":"m 93 0 m 93 0 l 93 953 l 842 953 l 842 782 l 294 782 l 294 572 l 781 572 l 781 401 l 294 401 l 294 171 l 850 171 l 850 0 l 93 0 m 236 1042 l 236 1206 l 400 1206 l 400 1042 l 236 1042 m 528 1042 l 528 1206 l 693 1206 l 693 1042 l 528 1042 z "},"Ė":{"ha":926,"x_min":93,"x_max":850,"o":"m 93 0 m 93 0 l 93 953 l 842 953 l 842 782 l 294 782 l 294 572 l 781 572 l 781 401 l 294 401 l 294 171 l 850 171 l 850 0 l 93 0 m 369 1026 l 369 1207 l 557 1207 l 557 1026 l 369 1026 z "},"Ẹ":{"ha":926,"x_min":93,"x_max":850,"o":"m 93 0 m 93 0 l 93 953 l 842 953 l 842 782 l 294 782 l 294 572 l 781 572 l 781 401 l 294 401 l 294 171 l 850 171 l 850 0 l 93 0 m 369 -240 l 369 -60 l 557 -60 l 557 -240 l 369 -240 z "},"È":{"ha":926,"x_min":93,"x_max":850,"o":"m 93 0 m 93 0 l 93 953 l 842 953 l 842 782 l 294 782 l 294 572 l 781 572 l 781 401 l 294 401 l 294 171 l 850 171 l 850 0 l 93 0 m 390 1022 l 240 1201 l 242 1206 l 426 1206 l 536 1022 l 390 1022 z "},"Ẻ":{"ha":926,"x_min":93,"x_max":850,"o":"m 93 0 m 93 0 l 93 953 l 842 953 l 842 782 l 294 782 l 294 572 l 781 572 l 781 401 l 294 401 l 294 171 l 850 171 l 850 0 l 93 0 m 417 1097 l 436 1097 q 471 1103 461 1097 q 481 1124 481 1110 q 469 1144 481 1139 q 432 1150 457 1150 l 351 1150 l 351 1211 q 467 1222 404 1222 q 580 1203 531 1222 q 629 1138 629 1185 q 596 1080 629 1100 q 511 1057 563 1060 l 511 1022 l 417 1022 l 417 1097 z "},"Ȇ":{"ha":926,"x_min":93,"x_max":850,"o":"m 93 0 m 93 0 l 93 953 l 842 953 l 842 782 l 294 782 l 294 572 l 781 572 l 781 401 l 294 401 l 294 171 l 850 171 l 850 0 l 93 0 m 239 1015 q 263 1106 239 1063 q 336 1178 286 1150 q 463 1206 386 1206 q 590 1178 539 1206 q 664 1106 640 1150 q 688 1015 688 1063 l 563 1015 q 533 1061 560 1040 q 463 1082 507 1082 q 393 1061 418 1082 q 364 1015 368 1040 l 239 1015 z "},"Ē":{"ha":926,"x_min":93,"x_max":850,"o":"m 93 0 m 93 0 l 93 953 l 842 953 l 842 782 l 294 782 l 294 572 l 781 572 l 781 401 l 294 401 l 294 171 l 850 171 l 850 0 l 93 0 m 251 1050 l 251 1172 l 675 1172 l 675 1050 l 251 1050 z "},"Ę":{"ha":926,"x_min":93,"x_max":850,"o":"m 751 -253 q 648 -226 692 -253 q 604 -139 604 -199 q 631 -62 604 -94 q 707 0 658 -29 l 93 0 l 93 953 l 842 953 l 842 782 l 294 782 l 294 572 l 781 572 l 781 401 l 294 401 l 294 171 l 850 171 l 850 0 q 781 -49 811 -22 q 750 -106 750 -76 q 767 -142 750 -126 q 817 -157 785 -157 l 850 -157 l 850 -233 q 751 -253 796 -253 z "},"Ẽ":{"ha":926,"x_min":93,"x_max":850,"o":"m 93 0 m 93 0 l 93 953 l 842 953 l 842 782 l 294 782 l 294 572 l 781 572 l 781 401 l 294 401 l 294 171 l 850 171 l 850 0 l 93 0 m 231 1036 q 265 1158 231 1110 q 367 1206 299 1206 q 408 1199 389 1206 q 463 1179 428 1193 q 511 1160 492 1167 q 551 1154 531 1154 q 584 1166 572 1154 q 600 1206 596 1178 l 697 1206 q 663 1084 697 1132 q 560 1036 629 1036 q 519 1042 538 1036 q 465 1063 500 1049 q 417 1081 436 1075 q 376 1088 397 1088 q 328 1036 335 1088 l 231 1036 z "},"F":{"ha":849,"x_min":93,"x_max":783,"o":"m 93 0 l 93 953 l 783 953 l 783 782 l 294 782 l 294 547 l 732 547 l 732 376 l 294 376 l 294 0 l 93 0 z "},"G":{"ha":1081,"x_min":58,"x_max":996,"o":"m 506 518 l 996 518 l 996 0 l 857 0 l 839 106 q 699 13 772 42 q 519 -17 625 -17 q 178 104 299 -17 q 58 476 58 225 q 186 846 58 722 q 547 969 314 969 q 773 931 671 969 q 935 816 875 893 q 996 628 996 739 l 788 628 q 719 752 788 706 q 554 799 650 799 q 337 721 408 799 q 265 497 265 643 l 265 456 q 331 228 265 303 q 533 154 397 154 q 719 208 646 154 q 794 353 793 261 l 506 353 l 506 518 z "},"Ǵ":{"ha":1081,"x_min":58,"x_max":996,"o":"m 58 0 m 506 518 l 996 518 l 996 0 l 857 0 l 839 106 q 699 13 772 42 q 519 -17 625 -17 q 178 104 299 -17 q 58 476 58 225 q 186 846 58 722 q 547 969 314 969 q 773 931 671 969 q 935 816 875 893 q 996 628 996 739 l 788 628 q 719 752 788 706 q 554 799 650 799 q 337 721 408 799 q 265 497 265 643 l 265 456 q 331 228 265 303 q 533 154 397 154 q 719 208 646 154 q 794 353 793 261 l 506 353 l 506 518 m 467 1022 l 576 1206 l 761 1206 l 763 1201 l 613 1022 l 467 1022 z "},"Ğ":{"ha":1081,"x_min":58,"x_max":996,"o":"m 58 0 m 506 518 l 996 518 l 996 0 l 857 0 l 839 106 q 699 13 772 42 q 519 -17 625 -17 q 178 104 299 -17 q 58 476 58 225 q 186 846 58 722 q 547 969 314 969 q 773 931 671 969 q 935 816 875 893 q 996 628 996 739 l 788 628 q 719 752 788 706 q 554 799 650 799 q 337 721 408 799 q 265 497 265 643 l 265 456 q 331 228 265 303 q 533 154 397 154 q 719 208 646 154 q 794 353 793 261 l 506 353 l 506 518 m 539 1015 q 413 1043 463 1015 q 339 1115 363 1071 q 315 1206 315 1158 l 440 1206 q 469 1160 444 1181 q 539 1139 494 1139 q 610 1160 583 1139 q 639 1206 636 1181 l 764 1206 q 740 1115 764 1158 q 666 1043 717 1071 q 539 1015 615 1015 z "},"Ǧ":{"ha":1081,"x_min":58,"x_max":996,"o":"m 58 0 m 506 518 l 996 518 l 996 0 l 857 0 l 839 106 q 699 13 772 42 q 519 -17 625 -17 q 178 104 299 -17 q 58 476 58 225 q 186 846 58 722 q 547 969 314 969 q 773 931 671 969 q 935 816 875 893 q 996 628 996 739 l 788 628 q 719 752 788 706 q 554 799 650 799 q 337 721 408 799 q 265 497 265 643 l 265 456 q 331 228 265 303 q 533 154 397 154 q 719 208 646 154 q 794 353 793 261 l 506 353 l 506 518 m 456 1018 l 308 1206 l 463 1206 l 540 1110 l 617 1206 l 771 1206 l 625 1018 l 456 1018 z "},"Ĝ":{"ha":1081,"x_min":58,"x_max":996,"o":"m 58 0 m 506 518 l 996 518 l 996 0 l 857 0 l 839 106 q 699 13 772 42 q 519 -17 625 -17 q 178 104 299 -17 q 58 476 58 225 q 186 846 58 722 q 547 969 314 969 q 773 931 671 969 q 935 816 875 893 q 996 628 996 739 l 788 628 q 719 752 788 706 q 554 799 650 799 q 337 721 408 799 q 265 497 265 643 l 265 456 q 331 228 265 303 q 533 154 397 154 q 719 208 646 154 q 794 353 793 261 l 506 353 l 506 518 m 308 1018 l 456 1206 l 625 1206 l 771 1018 l 617 1018 l 540 1114 l 463 1018 l 308 1018 z "},"Ģ":{"ha":1081,"x_min":58,"x_max":996,"o":"m 58 0 m 506 518 l 996 518 l 996 0 l 857 0 l 839 106 q 699 13 772 42 q 519 -17 625 -17 q 178 104 299 -17 q 58 476 58 225 q 186 846 58 722 q 547 969 314 969 q 773 931 671 969 q 935 816 875 893 q 996 628 996 739 l 788 628 q 719 752 788 706 q 554 799 650 799 q 337 721 408 799 q 265 497 265 643 l 265 456 q 331 228 265 303 q 533 154 397 154 q 719 208 646 154 q 794 353 793 261 l 506 353 l 506 518 m 449 -319 l 521 -192 l 444 -192 l 444 -56 l 636 -56 l 636 -175 l 549 -319 l 449 -319 z "},"Ġ":{"ha":1081,"x_min":58,"x_max":996,"o":"m 58 0 m 506 518 l 996 518 l 996 0 l 857 0 l 839 106 q 699 13 772 42 q 519 -17 625 -17 q 178 104 299 -17 q 58 476 58 225 q 186 846 58 722 q 547 969 314 969 q 773 931 671 969 q 935 816 875 893 q 996 628 996 739 l 788 628 q 719 752 788 706 q 554 799 650 799 q 337 721 408 799 q 265 497 265 643 l 265 456 q 331 228 265 303 q 533 154 397 154 q 719 208 646 154 q 794 353 793 261 l 506 353 l 506 518 m 446 1026 l 446 1207 l 633 1207 l 633 1026 l 446 1026 z "},"H":{"ha":1003,"x_min":93,"x_max":910,"o":"m 93 0 l 93 953 l 294 953 l 294 575 l 708 575 l 708 953 l 910 953 l 910 0 l 708 0 l 708 401 l 294 401 l 294 0 l 93 0 z "},"Ħ":{"ha":1003,"x_min":10,"x_max":993,"o":"m 93 0 l 93 704 l 10 704 l 10 831 l 93 831 l 93 953 l 294 953 l 294 831 l 708 831 l 708 953 l 910 953 l 910 831 l 993 831 l 993 704 l 910 704 l 910 0 l 708 0 l 708 401 l 294 401 l 294 0 l 93 0 m 294 575 l 708 575 l 708 704 l 294 704 l 294 575 z "},"Ĥ":{"ha":1003,"x_min":93,"x_max":910,"o":"m 93 0 m 93 0 l 93 953 l 294 953 l 294 575 l 708 575 l 708 953 l 910 953 l 910 0 l 708 0 l 708 401 l 294 401 l 294 0 l 93 0 m 269 1018 l 417 1206 l 586 1206 l 732 1018 l 578 1018 l 501 1114 l 424 1018 l 269 1018 z "},"Ḥ":{"ha":1003,"x_min":93,"x_max":910,"o":"m 93 0 m 93 0 l 93 953 l 294 953 l 294 575 l 708 575 l 708 953 l 910 953 l 910 0 l 708 0 l 708 401 l 294 401 l 294 0 l 93 0 m 407 -240 l 407 -60 l 594 -60 l 594 -240 l 407 -240 z "},"I":{"ha":386,"x_min":93,"x_max":294,"o":"m 93 0 l 93 953 l 294 953 l 294 0 l 93 0 z "},"Ĳ":{"ha":1158,"x_min":93,"x_max":1074,"o":"m 93 0 m 93 0 l 93 953 l 294 953 l 294 0 l 93 0 m 749 -17 q 506 56 590 -17 q 421 268 421 128 l 421 328 l 621 328 l 621 271 q 653 183 621 214 q 749 153 686 153 q 840 183 810 153 q 871 271 871 214 l 871 953 l 1074 953 l 1074 268 q 990 56 1074 128 q 749 -17 907 -17 z "},"Í":{"ha":386,"x_min":93,"x_max":415,"o":"m 93 0 m 93 0 l 93 953 l 294 953 l 294 0 l 93 0 m 119 1022 l 229 1206 l 414 1206 l 415 1201 l 265 1022 l 119 1022 z "},"Ĭ":{"ha":386,"x_min":-32,"x_max":417,"o":"m 0 0 m 93 0 l 93 953 l 294 953 l 294 0 l 93 0 m 192 1015 q 65 1043 115 1015 q -8 1115 15 1071 q -32 1206 -32 1158 l 93 1206 q 122 1160 97 1181 q 192 1139 147 1139 q 263 1160 236 1139 q 292 1206 289 1181 l 417 1206 q 393 1115 417 1158 q 319 1043 369 1071 q 192 1015 268 1015 z "},"Ǐ":{"ha":386,"x_min":-39,"x_max":424,"o":"m 0 0 m 93 0 l 93 953 l 294 953 l 294 0 l 93 0 m 108 1018 l -39 1206 l 115 1206 l 193 1110 l 269 1206 l 424 1206 l 278 1018 l 108 1018 z "},"Î":{"ha":386,"x_min":-39,"x_max":424,"o":"m 0 0 m 93 0 l 93 953 l 294 953 l 294 0 l 93 0 m -39 1018 l 108 1206 l 278 1206 l 424 1018 l 269 1018 l 193 1114 l 115 1018 l -39 1018 z "},"Ȉ":{"ha":386,"x_min":-124,"x_max":415,"o":"m 0 0 m 93 0 l 93 953 l 294 953 l 294 0 l 93 0 m 26 1022 l -124 1201 l -122 1206 l 63 1206 l 172 1022 l 26 1022 m 269 1022 l 119 1201 l 121 1206 l 306 1206 l 415 1022 l 269 1022 z "},"Ï":{"ha":386,"x_min":-35,"x_max":422,"o":"m 0 0 m 93 0 l 93 953 l 294 953 l 294 0 l 93 0 m -35 1042 l -35 1206 l 129 1206 l 129 1042 l -35 1042 m 257 1042 l 257 1206 l 422 1206 l 422 1042 l 257 1042 z "},"İ":{"ha":386,"x_min":93,"x_max":294,"o":"m 93 0 m 93 0 l 93 953 l 294 953 l 294 0 l 93 0 m 99 1026 l 99 1207 l 286 1207 l 286 1026 l 99 1026 z "},"Ị":{"ha":386,"x_min":93,"x_max":294,"o":"m 93 0 m 93 0 l 93 953 l 294 953 l 294 0 l 93 0 m 99 -240 l 99 -60 l 286 -60 l 286 -240 l 99 -240 z "},"Ì":{"ha":386,"x_min":-31,"x_max":294,"o":"m 0 0 m 93 0 l 93 953 l 294 953 l 294 0 l 93 0 m 119 1022 l -31 1201 l -29 1206 l 156 1206 l 265 1022 l 119 1022 z "},"Ỉ":{"ha":386,"x_min":81,"x_max":358,"o":"m 81 0 m 93 0 l 93 953 l 294 953 l 294 0 l 93 0 m 146 1097 l 165 1097 q 200 1103 190 1097 q 210 1124 210 1110 q 198 1144 210 1139 q 161 1150 186 1150 l 81 1150 l 81 1211 q 196 1222 133 1222 q 309 1203 260 1222 q 358 1138 358 1185 q 325 1080 358 1100 q 240 1057 292 1060 l 240 1022 l 146 1022 l 146 1097 z "},"Ȋ":{"ha":386,"x_min":-32,"x_max":417,"o":"m 0 0 m 93 0 l 93 953 l 294 953 l 294 0 l 93 0 m -32 1015 q -8 1106 -32 1063 q 65 1178 15 1150 q 192 1206 115 1206 q 319 1178 268 1206 q 393 1106 369 1150 q 417 1015 417 1063 l 292 1015 q 263 1061 289 1040 q 192 1082 236 1082 q 122 1061 147 1082 q 93 1015 97 1040 l -32 1015 z "},"Ī":{"ha":386,"x_min":-19,"x_max":404,"o":"m 0 0 m 93 0 l 93 953 l 294 953 l 294 0 l 93 0 m -19 1050 l -19 1172 l 404 1172 l 404 1050 l -19 1050 z "},"Į":{"ha":386,"x_min":49,"x_max":294,"o":"m 239 0 q 208 -44 222 -18 q 194 -97 194 -71 q 211 -148 194 -128 q 261 -168 228 -168 l 294 -168 l 294 -244 q 196 -264 240 -264 q 92 -235 135 -264 q 49 -142 49 -206 q 66 -65 49 -97 q 114 0 83 -32 l 93 0 l 93 953 l 294 953 l 294 0 l 239 0 z "},"Ĩ":{"ha":386,"x_min":-40,"x_max":426,"o":"m 0 0 m 93 0 l 93 953 l 294 953 l 294 0 l 93 0 m -40 1036 q -6 1158 -40 1110 q 96 1206 28 1206 q 138 1199 118 1206 q 192 1179 157 1193 q 240 1160 221 1167 q 281 1154 260 1154 q 313 1166 301 1154 q 329 1206 325 1178 l 426 1206 q 392 1084 426 1132 q 289 1036 358 1036 q 248 1042 267 1036 q 194 1063 229 1049 q 146 1081 165 1075 q 106 1088 126 1088 q 57 1036 64 1088 l -40 1036 z "},"J":{"ha":772,"x_min":35,"x_max":688,"o":"m 363 -17 q 119 56 204 -17 q 35 268 35 128 l 35 328 l 235 328 l 235 271 q 267 183 235 214 q 363 153 300 153 q 454 183 424 153 q 485 271 485 214 l 485 953 l 688 953 l 688 268 q 604 56 688 128 q 363 -17 521 -17 z "},"Ĵ":{"ha":772,"x_min":35,"x_max":817,"o":"m 35 0 m 363 -17 q 119 56 204 -17 q 35 268 35 128 l 35 328 l 235 328 l 235 271 q 267 183 235 214 q 363 153 300 153 q 454 183 424 153 q 485 271 485 214 l 485 953 l 688 953 l 688 268 q 604 56 688 128 q 363 -17 521 -17 m 354 1018 l 501 1206 l 671 1206 l 817 1018 l 663 1018 l 586 1114 l 508 1018 l 354 1018 z "},"K":{"ha":1003,"x_min":93,"x_max":985,"o":"m 93 0 l 93 953 l 294 953 l 294 493 l 735 953 l 979 953 l 607 565 l 985 0 l 746 0 l 472 424 l 294 276 l 294 0 l 93 0 z "},"Ķ":{"ha":1003,"x_min":93,"x_max":985,"o":"m 93 0 m 93 0 l 93 953 l 294 953 l 294 493 l 735 953 l 979 953 l 607 565 l 985 0 l 746 0 l 472 424 l 294 276 l 294 0 l 93 0 m 410 -319 l 482 -192 l 406 -192 l 406 -56 l 597 -56 l 597 -175 l 510 -319 l 410 -319 z "},"L":{"ha":849,"x_min":93,"x_max":808,"o":"m 93 0 l 93 953 l 294 953 l 294 175 l 808 175 l 808 0 l 93 0 z "},"Ǉ":{"ha":1621,"x_min":93,"x_max":1536,"o":"m 93 0 m 93 0 l 93 953 l 294 953 l 294 175 l 808 175 l 808 0 l 93 0 m 1211 -17 q 968 56 1053 -17 q 883 268 883 128 l 883 328 l 1083 328 l 1083 271 q 1116 183 1083 214 q 1211 153 1149 153 q 1303 183 1272 153 q 1333 271 1333 214 l 1333 953 l 1536 953 l 1536 268 q 1453 56 1536 128 q 1211 -17 1369 -17 z "},"Ĺ":{"ha":849,"x_min":93,"x_max":808,"o":"m 93 0 m 93 0 l 93 953 l 294 953 l 294 175 l 808 175 l 808 0 l 93 0 m 121 1022 l 231 1206 l 415 1206 l 417 1201 l 267 1022 l 121 1022 z "},"Ľ":{"ha":849,"x_min":93,"x_max":808,"o":"m 93 0 l 93 953 l 294 953 l 294 175 l 808 175 l 808 0 l 93 0 m 492 614 l 568 776 l 492 776 l 492 953 l 683 953 l 683 793 l 592 614 l 492 614 z "},"Ļ":{"ha":849,"x_min":93,"x_max":808,"o":"m 93 0 m 93 0 l 93 953 l 294 953 l 294 175 l 808 175 l 808 0 l 93 0 m 360 -319 l 432 -192 l 356 -192 l 356 -56 l 547 -56 l 547 -175 l 460 -319 l 360 -319 z "},"Ŀ":{"ha":849,"x_min":93,"x_max":808,"o":"m 93 0 m 93 0 l 93 953 l 294 953 l 294 175 l 808 175 l 808 0 l 93 0 m 476 540 l 476 731 l 668 731 l 668 540 l 476 540 z "},"ǈ":{"ha":1235,"x_min":93,"x_max":1138,"o":"m 93 0 m 93 0 l 93 953 l 294 953 l 294 175 l 808 175 l 808 0 l 93 0 m 947 832 l 947 1004 l 1138 1004 l 1138 832 l 947 832 m 946 -253 q 877 -246 915 -253 q 815 -231 839 -239 l 815 -97 l 888 -97 q 947 -37 947 -97 l 947 731 l 1138 731 l 1138 -57 q 1093 -197 1138 -142 q 946 -253 1049 -253 z "},"Ł":{"ha":849,"x_min":0,"x_max":808,"o":"m 93 0 l 93 342 l 0 281 l 0 422 l 93 483 l 93 953 l 294 953 l 294 617 l 490 746 l 490 604 l 294 475 l 294 175 l 808 175 l 808 0 l 93 0 z "},"M":{"ha":1157,"x_min":93,"x_max":1064,"o":"m 93 953 l 407 953 l 540 428 q 566 313 551 389 q 585 213 581 238 l 592 213 q 609 316 596 239 q 631 428 622 393 l 764 953 l 1064 953 l 1064 0 l 863 0 l 863 607 q 866 688 863 633 q 871 760 869 742 l 864 760 l 835 647 l 671 0 l 479 0 l 315 647 l 286 760 l 279 760 q 284 686 281 742 q 288 607 288 631 l 288 0 l 93 0 l 93 953 z "},"N":{"ha":1003,"x_min":93,"x_max":910,"o":"m 93 953 l 289 953 l 656 435 q 686 386 667 419 q 711 342 706 353 l 718 346 q 716 382 718 357 q 714 426 714 407 l 714 953 l 910 953 l 910 0 l 714 0 l 346 522 q 313 576 329 546 q 292 614 296 606 l 285 610 q 287 575 285 600 q 289 526 289 550 l 289 0 l 93 0 l 93 953 z "},"Ǌ":{"ha":1775,"x_min":93,"x_max":1690,"o":"m 93 0 m 93 953 l 289 953 l 656 435 q 686 386 667 419 q 711 342 706 353 l 718 346 q 716 382 718 357 q 714 426 714 407 l 714 953 l 910 953 l 910 0 l 714 0 l 346 522 q 313 576 329 546 q 292 614 296 606 l 285 610 q 287 575 285 600 q 289 526 289 550 l 289 0 l 93 0 l 93 953 m 1365 -17 q 1122 56 1207 -17 q 1038 268 1038 128 l 1038 328 l 1238 328 l 1238 271 q 1270 183 1238 214 q 1365 153 1303 153 q 1457 183 1426 153 q 1488 271 1488 214 l 1488 953 l 1690 953 l 1690 268 q 1607 56 1690 128 q 1365 -17 1524 -17 z "},"Ń":{"ha":1003,"x_min":93,"x_max":910,"o":"m 93 0 m 93 953 l 289 953 l 656 435 q 686 386 667 419 q 711 342 706 353 l 718 346 q 716 382 718 357 q 714 426 714 407 l 714 953 l 910 953 l 910 0 l 714 0 l 346 522 q 313 576 329 546 q 292 614 296 606 l 285 610 q 287 575 285 600 q 289 526 289 550 l 289 0 l 93 0 l 93 953 m 428 1022 l 538 1206 l 722 1206 l 724 1201 l 574 1022 l 428 1022 z "},"Ň":{"ha":1003,"x_min":93,"x_max":910,"o":"m 93 0 m 93 953 l 289 953 l 656 435 q 686 386 667 419 q 711 342 706 353 l 718 346 q 716 382 718 357 q 714 426 714 407 l 714 953 l 910 953 l 910 0 l 714 0 l 346 522 q 313 576 329 546 q 292 614 296 606 l 285 610 q 287 575 285 600 q 289 526 289 550 l 289 0 l 93 0 l 93 953 m 417 1018 l 269 1206 l 424 1206 l 501 1110 l 578 1206 l 732 1206 l 586 1018 l 417 1018 z "},"Ņ":{"ha":1003,"x_min":93,"x_max":910,"o":"m 93 0 m 93 953 l 289 953 l 656 435 q 686 386 667 419 q 711 342 706 353 l 718 346 q 716 382 718 357 q 714 426 714 407 l 714 953 l 910 953 l 910 0 l 714 0 l 346 522 q 313 576 329 546 q 292 614 296 606 l 285 610 q 287 575 285 600 q 289 526 289 550 l 289 0 l 93 0 l 93 953 m 410 -319 l 482 -192 l 406 -192 l 406 -56 l 597 -56 l 597 -175 l 510 -319 l 410 -319 z "},"Ṅ":{"ha":1003,"x_min":93,"x_max":910,"o":"m 93 0 m 93 953 l 289 953 l 656 435 q 686 386 667 419 q 711 342 706 353 l 718 346 q 716 382 718 357 q 714 426 714 407 l 714 953 l 910 953 l 910 0 l 714 0 l 346 522 q 313 576 329 546 q 292 614 296 606 l 285 610 q 287 575 285 600 q 289 526 289 550 l 289 0 l 93 0 l 93 953 m 407 1026 l 407 1207 l 594 1207 l 594 1026 l 407 1026 z "},"Ŋ":{"ha":1003,"x_min":93,"x_max":910,"o":"m 718 -253 q 647 -246 686 -253 q 582 -231 607 -239 l 582 -97 l 654 -97 q 714 -37 714 -97 l 714 0 l 346 518 q 313 572 329 542 q 292 610 296 601 l 285 606 q 287 571 285 596 q 289 522 289 546 l 289 0 l 93 0 l 93 953 l 289 953 l 656 439 q 686 390 667 424 q 711 346 706 357 l 718 350 q 716 386 718 361 q 714 431 714 411 l 714 953 l 910 953 l 910 -57 q 865 -197 910 -142 q 718 -253 821 -253 z "},"Ɲ":{"ha":1003,"x_min":-39,"x_max":910,"o":"m 97 -253 q 26 -246 65 -253 q -39 -231 -14 -239 l -39 -97 l 33 -97 q 93 -37 93 -97 l 93 953 l 289 953 l 656 435 q 686 386 667 419 q 711 342 706 353 l 718 346 q 716 382 718 357 q 714 426 714 407 l 714 953 l 910 953 l 910 0 l 714 0 l 346 522 q 313 576 329 546 q 292 614 296 606 l 285 610 q 287 575 285 600 q 289 526 289 550 l 289 -57 q 244 -197 289 -142 q 97 -253 200 -253 z "},"ǋ":{"ha":1389,"x_min":93,"x_max":1292,"o":"m 93 0 m 93 953 l 289 953 l 656 435 q 686 386 667 419 q 711 342 706 353 l 718 346 q 716 382 718 357 q 714 426 714 407 l 714 953 l 910 953 l 910 0 l 714 0 l 346 522 q 313 576 329 546 q 292 614 296 606 l 285 610 q 287 575 285 600 q 289 526 289 550 l 289 0 l 93 0 l 93 953 m 1101 832 l 1101 1004 l 1292 1004 l 1292 832 l 1101 832 m 1100 -253 q 1031 -246 1069 -253 q 969 -231 993 -239 l 969 -97 l 1042 -97 q 1101 -37 1101 -97 l 1101 731 l 1292 731 l 1292 -57 q 1247 -197 1292 -142 q 1100 -253 1203 -253 z "},"Ñ":{"ha":1003,"x_min":93,"x_max":910,"o":"m 93 0 m 93 953 l 289 953 l 656 435 q 686 386 667 419 q 711 342 706 353 l 718 346 q 716 382 718 357 q 714 426 714 407 l 714 953 l 910 953 l 910 0 l 714 0 l 346 522 q 313 576 329 546 q 292 614 296 606 l 285 610 q 287 575 285 600 q 289 526 289 550 l 289 0 l 93 0 l 93 953 m 268 1036 q 302 1158 268 1110 q 404 1206 336 1206 q 446 1199 426 1206 q 500 1179 465 1193 q 549 1160 529 1167 q 589 1154 568 1154 q 622 1166 610 1154 q 638 1206 633 1178 l 735 1206 q 701 1084 735 1132 q 597 1036 667 1036 q 556 1042 575 1036 q 503 1063 538 1049 q 454 1081 474 1075 q 414 1088 435 1088 q 365 1036 372 1088 l 268 1036 z "},"O":{"ha":1081,"x_min":58,"x_max":1024,"o":"m 540 -17 q 185 106 311 -17 q 58 476 58 229 q 185 847 58 724 q 540 969 311 969 q 897 847 771 969 q 1024 476 1024 724 q 897 106 1024 229 q 540 -17 771 -17 m 540 154 q 747 233 676 154 q 817 456 817 311 l 817 497 q 747 720 817 642 q 540 799 676 799 q 335 720 404 799 q 265 497 265 642 l 265 456 q 335 233 265 311 q 540 154 404 154 z "},"Ó":{"ha":1081,"x_min":58,"x_max":1024,"o":"m 58 0 m 540 -17 q 185 106 311 -17 q 58 476 58 229 q 185 847 58 724 q 540 969 311 969 q 897 847 771 969 q 1024 476 1024 724 q 897 106 1024 229 q 540 -17 771 -17 m 540 154 q 747 233 676 154 q 817 456 817 311 l 817 497 q 747 720 817 642 q 540 799 676 799 q 335 720 404 799 q 265 497 265 642 l 265 456 q 335 233 265 311 q 540 154 404 154 m 467 1022 l 576 1206 l 761 1206 l 763 1201 l 613 1022 l 467 1022 z "},"Ŏ":{"ha":1081,"x_min":58,"x_max":1024,"o":"m 58 0 m 540 -17 q 185 106 311 -17 q 58 476 58 229 q 185 847 58 724 q 540 969 311 969 q 897 847 771 969 q 1024 476 1024 724 q 897 106 1024 229 q 540 -17 771 -17 m 540 154 q 747 233 676 154 q 817 456 817 311 l 817 497 q 747 720 817 642 q 540 799 676 799 q 335 720 404 799 q 265 497 265 642 l 265 456 q 335 233 265 311 q 540 154 404 154 m 539 1015 q 413 1043 463 1015 q 339 1115 363 1071 q 315 1206 315 1158 l 440 1206 q 469 1160 444 1181 q 539 1139 494 1139 q 610 1160 583 1139 q 639 1206 636 1181 l 764 1206 q 740 1115 764 1158 q 666 1043 717 1071 q 539 1015 615 1015 z "},"Ǒ":{"ha":1081,"x_min":58,"x_max":1024,"o":"m 58 0 m 540 -17 q 185 106 311 -17 q 58 476 58 229 q 185 847 58 724 q 540 969 311 969 q 897 847 771 969 q 1024 476 1024 724 q 897 106 1024 229 q 540 -17 771 -17 m 540 154 q 747 233 676 154 q 817 456 817 311 l 817 497 q 747 720 817 642 q 540 799 676 799 q 335 720 404 799 q 265 497 265 642 l 265 456 q 335 233 265 311 q 540 154 404 154 m 456 1018 l 308 1206 l 463 1206 l 540 1110 l 617 1206 l 771 1206 l 625 1018 l 456 1018 z "},"Ô":{"ha":1081,"x_min":58,"x_max":1024,"o":"m 58 0 m 540 -17 q 185 106 311 -17 q 58 476 58 229 q 185 847 58 724 q 540 969 311 969 q 897 847 771 969 q 1024 476 1024 724 q 897 106 1024 229 q 540 -17 771 -17 m 540 154 q 747 233 676 154 q 817 456 817 311 l 817 497 q 747 720 817 642 q 540 799 676 799 q 335 720 404 799 q 265 497 265 642 l 265 456 q 335 233 265 311 q 540 154 404 154 m 308 1018 l 456 1206 l 625 1206 l 771 1018 l 617 1018 l 540 1114 l 463 1018 l 308 1018 z "},"Ố":{"ha":1081,"x_min":58,"x_max":1024,"o":"m 58 0 m 540 -17 q 185 106 311 -17 q 58 476 58 229 q 185 847 58 724 q 540 969 311 969 q 897 847 771 969 q 1024 476 1024 724 q 897 106 1024 229 q 540 -17 771 -17 m 540 154 q 747 233 676 154 q 817 456 817 311 l 817 497 q 747 720 817 642 q 540 799 676 799 q 335 720 404 799 q 265 497 265 642 l 265 456 q 335 233 265 311 q 540 154 404 154 m 308 1018 l 456 1206 l 625 1206 l 771 1018 l 617 1018 l 540 1114 l 463 1018 l 308 1018 m 671 1154 l 781 1338 l 965 1338 l 967 1333 l 817 1154 l 671 1154 z "},"Ộ":{"ha":1081,"x_min":58,"x_max":1024,"o":"m 58 0 m 540 -17 q 185 106 311 -17 q 58 476 58 229 q 185 847 58 724 q 540 969 311 969 q 897 847 771 969 q 1024 476 1024 724 q 897 106 1024 229 q 540 -17 771 -17 m 540 154 q 747 233 676 154 q 817 456 817 311 l 817 497 q 747 720 817 642 q 540 799 676 799 q 335 720 404 799 q 265 497 265 642 l 265 456 q 335 233 265 311 q 540 154 404 154 m 308 1018 l 456 1206 l 625 1206 l 771 1018 l 617 1018 l 540 1114 l 463 1018 l 308 1018 m 446 -240 l 446 -60 l 633 -60 l 633 -240 l 446 -240 z "},"Ồ":{"ha":1081,"x_min":58,"x_max":1024,"o":"m 58 0 m 540 -17 q 185 106 311 -17 q 58 476 58 229 q 185 847 58 724 q 540 969 311 969 q 897 847 771 969 q 1024 476 1024 724 q 897 106 1024 229 q 540 -17 771 -17 m 540 154 q 747 233 676 154 q 817 456 817 311 l 817 497 q 747 720 817 642 q 540 799 676 799 q 335 720 404 799 q 265 497 265 642 l 265 456 q 335 233 265 311 q 540 154 404 154 m 308 1018 l 456 1206 l 625 1206 l 771 1018 l 617 1018 l 540 1114 l 463 1018 l 308 1018 m 726 1154 l 576 1333 l 578 1338 l 763 1338 l 872 1154 l 726 1154 z "},"Ổ":{"ha":1081,"x_min":58,"x_max":1024,"o":"m 58 0 m 540 -17 q 185 106 311 -17 q 58 476 58 229 q 185 847 58 724 q 540 969 311 969 q 897 847 771 969 q 1024 476 1024 724 q 897 106 1024 229 q 540 -17 771 -17 m 540 154 q 747 233 676 154 q 817 456 817 311 l 817 497 q 747 720 817 642 q 540 799 676 799 q 335 720 404 799 q 265 497 265 642 l 265 456 q 335 233 265 311 q 540 154 404 154 m 308 1018 l 456 1206 l 625 1206 l 771 1018 l 617 1018 l 540 1114 l 463 1018 l 308 1018 m 697 1229 l 717 1229 q 751 1235 742 1229 q 761 1256 761 1242 q 749 1276 761 1271 q 713 1282 738 1282 l 632 1282 l 632 1343 q 747 1354 685 1354 q 860 1335 811 1354 q 910 1269 910 1317 q 876 1212 910 1232 q 792 1189 843 1192 l 792 1154 l 697 1154 l 697 1229 z "},"Ỗ":{"ha":1081,"x_min":58,"x_max":1024,"o":"m 58 0 m 540 -17 q 185 106 311 -17 q 58 476 58 229 q 185 847 58 724 q 540 969 311 969 q 897 847 771 969 q 1024 476 1024 724 q 897 106 1024 229 q 540 -17 771 -17 m 540 154 q 747 233 676 154 q 817 456 817 311 l 817 497 q 747 720 817 642 q 540 799 676 799 q 335 720 404 799 q 265 497 265 642 l 265 456 q 335 233 265 311 q 540 154 404 154 m 308 1018 l 456 1206 l 625 1206 l 771 1018 l 617 1018 l 540 1114 l 463 1018 l 308 1018 m 310 1258 q 344 1380 310 1332 q 446 1428 378 1428 q 488 1422 468 1428 q 542 1401 507 1415 q 590 1383 571 1389 q 631 1376 610 1376 q 663 1388 651 1376 q 679 1428 675 1400 l 776 1428 q 742 1306 776 1354 q 639 1258 708 1258 q 598 1265 617 1258 q 544 1285 579 1271 q 496 1303 515 1297 q 456 1310 476 1310 q 407 1258 414 1310 l 310 1258 z "},"Ȍ":{"ha":1081,"x_min":58,"x_max":1024,"o":"m 58 0 m 540 -17 q 185 106 311 -17 q 58 476 58 229 q 185 847 58 724 q 540 969 311 969 q 897 847 771 969 q 1024 476 1024 724 q 897 106 1024 229 q 540 -17 771 -17 m 540 154 q 747 233 676 154 q 817 456 817 311 l 817 497 q 747 720 817 642 q 540 799 676 799 q 335 720 404 799 q 265 497 265 642 l 265 456 q 335 233 265 311 q 540 154 404 154 m 374 1022 l 224 1201 l 225 1206 l 410 1206 l 519 1022 l 374 1022 m 617 1022 l 467 1201 l 468 1206 l 653 1206 l 763 1022 l 617 1022 z "},"Ö":{"ha":1081,"x_min":58,"x_max":1024,"o":"m 58 0 m 540 -17 q 185 106 311 -17 q 58 476 58 229 q 185 847 58 724 q 540 969 311 969 q 897 847 771 969 q 1024 476 1024 724 q 897 106 1024 229 q 540 -17 771 -17 m 540 154 q 747 233 676 154 q 817 456 817 311 l 817 497 q 747 720 817 642 q 540 799 676 799 q 335 720 404 799 q 265 497 265 642 l 265 456 q 335 233 265 311 q 540 154 404 154 m 313 1042 l 313 1206 l 476 1206 l 476 1042 l 313 1042 m 604 1042 l 604 1206 l 769 1206 l 769 1042 l 604 1042 z "},"Ọ":{"ha":1081,"x_min":58,"x_max":1024,"o":"m 58 0 m 540 -17 q 185 106 311 -17 q 58 476 58 229 q 185 847 58 724 q 540 969 311 969 q 897 847 771 969 q 1024 476 1024 724 q 897 106 1024 229 q 540 -17 771 -17 m 540 154 q 747 233 676 154 q 817 456 817 311 l 817 497 q 747 720 817 642 q 540 799 676 799 q 335 720 404 799 q 265 497 265 642 l 265 456 q 335 233 265 311 q 540 154 404 154 m 446 -240 l 446 -60 l 633 -60 l 633 -240 l 446 -240 z "},"Ò":{"ha":1081,"x_min":58,"x_max":1024,"o":"m 58 0 m 540 -17 q 185 106 311 -17 q 58 476 58 229 q 185 847 58 724 q 540 969 311 969 q 897 847 771 969 q 1024 476 1024 724 q 897 106 1024 229 q 540 -17 771 -17 m 540 154 q 747 233 676 154 q 817 456 817 311 l 817 497 q 747 720 817 642 q 540 799 676 799 q 335 720 404 799 q 265 497 265 642 l 265 456 q 335 233 265 311 q 540 154 404 154 m 467 1022 l 317 1201 l 318 1206 l 503 1206 l 613 1022 l 467 1022 z "},"Ỏ":{"ha":1081,"x_min":58,"x_max":1024,"o":"m 58 0 m 540 -17 q 185 106 311 -17 q 58 476 58 229 q 185 847 58 724 q 540 969 311 969 q 897 847 771 969 q 1024 476 1024 724 q 897 106 1024 229 q 540 -17 771 -17 m 540 154 q 747 233 676 154 q 817 456 817 311 l 817 497 q 747 720 817 642 q 540 799 676 799 q 335 720 404 799 q 265 497 265 642 l 265 456 q 335 233 265 311 q 540 154 404 154 m 493 1097 l 513 1097 q 547 1103 538 1097 q 557 1124 557 1110 q 545 1144 557 1139 q 508 1150 533 1150 l 428 1150 l 428 1211 q 543 1222 481 1222 q 656 1203 607 1222 q 706 1138 706 1185 q 672 1080 706 1100 q 588 1057 639 1060 l 588 1022 l 493 1022 l 493 1097 z "},"Ơ":{"ha":1081,"x_min":58,"x_max":1107,"o":"m 1107 1150 l 1107 1075 q 1067 895 1107 963 q 940 794 1026 828 q 1024 476 1024 672 q 897 106 1024 229 q 540 -17 771 -17 q 185 106 311 -17 q 58 476 58 229 q 185 847 58 724 q 540 969 311 969 q 872 869 749 969 q 983 960 957 894 l 888 960 l 888 1150 l 1107 1150 m 817 497 q 747 720 817 642 q 540 799 676 799 q 335 720 404 799 q 265 497 265 642 l 265 456 q 335 233 265 311 q 540 154 404 154 q 747 233 676 154 q 817 456 817 311 l 817 497 z "},"Ớ":{"ha":1081,"x_min":58,"x_max":1107,"o":"m 58 0 m 1107 1150 l 1107 1075 q 1067 895 1107 963 q 940 794 1026 828 q 1024 476 1024 672 q 897 106 1024 229 q 540 -17 771 -17 q 185 106 311 -17 q 58 476 58 229 q 185 847 58 724 q 540 969 311 969 q 872 869 749 969 q 983 960 957 894 l 888 960 l 888 1150 l 1107 1150 m 817 497 q 747 720 817 642 q 540 799 676 799 q 335 720 404 799 q 265 497 265 642 l 265 456 q 335 233 265 311 q 540 154 404 154 q 747 233 676 154 q 817 456 817 311 l 817 497 m 467 1022 l 576 1206 l 761 1206 l 763 1201 l 613 1022 l 467 1022 z "},"Ợ":{"ha":1081,"x_min":58,"x_max":1107,"o":"m 58 0 m 1107 1150 l 1107 1075 q 1067 895 1107 963 q 940 794 1026 828 q 1024 476 1024 672 q 897 106 1024 229 q 540 -17 771 -17 q 185 106 311 -17 q 58 476 58 229 q 185 847 58 724 q 540 969 311 969 q 872 869 749 969 q 983 960 957 894 l 888 960 l 888 1150 l 1107 1150 m 817 497 q 747 720 817 642 q 540 799 676 799 q 335 720 404 799 q 265 497 265 642 l 265 456 q 335 233 265 311 q 540 154 404 154 q 747 233 676 154 q 817 456 817 311 l 817 497 m 446 -240 l 446 -60 l 633 -60 l 633 -240 l 446 -240 z "},"Ờ":{"ha":1081,"x_min":58,"x_max":1107,"o":"m 58 0 m 1107 1150 l 1107 1075 q 1067 895 1107 963 q 940 794 1026 828 q 1024 476 1024 672 q 897 106 1024 229 q 540 -17 771 -17 q 185 106 311 -17 q 58 476 58 229 q 185 847 58 724 q 540 969 311 969 q 872 869 749 969 q 983 960 957 894 l 888 960 l 888 1150 l 1107 1150 m 817 497 q 747 720 817 642 q 540 799 676 799 q 335 720 404 799 q 265 497 265 642 l 265 456 q 335 233 265 311 q 540 154 404 154 q 747 233 676 154 q 817 456 817 311 l 817 497 m 467 1022 l 317 1201 l 318 1206 l 503 1206 l 613 1022 l 467 1022 z "},"Ở":{"ha":1081,"x_min":58,"x_max":1107,"o":"m 58 0 m 1107 1150 l 1107 1075 q 1067 895 1107 963 q 940 794 1026 828 q 1024 476 1024 672 q 897 106 1024 229 q 540 -17 771 -17 q 185 106 311 -17 q 58 476 58 229 q 185 847 58 724 q 540 969 311 969 q 872 869 749 969 q 983 960 957 894 l 888 960 l 888 1150 l 1107 1150 m 817 497 q 747 720 817 642 q 540 799 676 799 q 335 720 404 799 q 265 497 265 642 l 265 456 q 335 233 265 311 q 540 154 404 154 q 747 233 676 154 q 817 456 817 311 l 817 497 m 493 1097 l 513 1097 q 547 1103 538 1097 q 557 1124 557 1110 q 545 1144 557 1139 q 508 1150 533 1150 l 428 1150 l 428 1211 q 543 1222 481 1222 q 656 1203 607 1222 q 706 1138 706 1185 q 672 1080 706 1100 q 588 1057 639 1060 l 588 1022 l 493 1022 l 493 1097 z "},"Ỡ":{"ha":1081,"x_min":58,"x_max":1107,"o":"m 58 0 m 1107 1150 l 1107 1075 q 1067 895 1107 963 q 940 794 1026 828 q 1024 476 1024 672 q 897 106 1024 229 q 540 -17 771 -17 q 185 106 311 -17 q 58 476 58 229 q 185 847 58 724 q 540 969 311 969 q 872 869 749 969 q 983 960 957 894 l 888 960 l 888 1150 l 1107 1150 m 817 497 q 747 720 817 642 q 540 799 676 799 q 335 720 404 799 q 265 497 265 642 l 265 456 q 335 233 265 311 q 540 154 404 154 q 747 233 676 154 q 817 456 817 311 l 817 497 m 307 1036 q 341 1158 307 1110 q 443 1206 375 1206 q 485 1199 465 1206 q 539 1179 504 1193 q 588 1160 568 1167 q 628 1154 607 1154 q 660 1166 649 1154 q 676 1206 672 1178 l 774 1206 q 740 1084 774 1132 q 636 1036 706 1036 q 595 1042 614 1036 q 542 1063 576 1049 q 493 1081 513 1075 q 453 1088 474 1088 q 404 1036 411 1088 l 307 1036 z "},"Ő":{"ha":1081,"x_min":58,"x_max":1024,"o":"m 58 0 m 540 -17 q 185 106 311 -17 q 58 476 58 229 q 185 847 58 724 q 540 969 311 969 q 897 847 771 969 q 1024 476 1024 724 q 897 106 1024 229 q 540 -17 771 -17 m 540 154 q 747 233 676 154 q 817 456 817 311 l 817 497 q 747 720 817 642 q 540 799 676 799 q 335 720 404 799 q 265 497 265 642 l 265 456 q 335 233 265 311 q 540 154 404 154 m 346 1022 l 456 1206 l 640 1206 l 642 1201 l 492 1022 l 346 1022 m 589 1022 l 699 1206 l 883 1206 l 885 1201 l 735 1022 l 589 1022 z "},"Ȏ":{"ha":1081,"x_min":58,"x_max":1024,"o":"m 58 0 m 540 -17 q 185 106 311 -17 q 58 476 58 229 q 185 847 58 724 q 540 969 311 969 q 897 847 771 969 q 1024 476 1024 724 q 897 106 1024 229 q 540 -17 771 -17 m 540 154 q 747 233 676 154 q 817 456 817 311 l 817 497 q 747 720 817 642 q 540 799 676 799 q 335 720 404 799 q 265 497 265 642 l 265 456 q 335 233 265 311 q 540 154 404 154 m 315 1015 q 339 1106 315 1063 q 413 1178 363 1150 q 539 1206 463 1206 q 666 1178 615 1206 q 740 1106 717 1150 q 764 1015 764 1063 l 639 1015 q 610 1061 636 1040 q 539 1082 583 1082 q 469 1061 494 1082 q 440 1015 444 1040 l 315 1015 z "},"Ō":{"ha":1081,"x_min":58,"x_max":1024,"o":"m 58 0 m 540 -17 q 185 106 311 -17 q 58 476 58 229 q 185 847 58 724 q 540 969 311 969 q 897 847 771 969 q 1024 476 1024 724 q 897 106 1024 229 q 540 -17 771 -17 m 540 154 q 747 233 676 154 q 817 456 817 311 l 817 497 q 747 720 817 642 q 540 799 676 799 q 335 720 404 799 q 265 497 265 642 l 265 456 q 335 233 265 311 q 540 154 404 154 m 328 1050 l 328 1172 l 751 1172 l 751 1050 l 328 1050 z "},"Ǫ":{"ha":1081,"x_min":58,"x_max":1024,"o":"m 1024 476 q 949 172 1024 289 q 735 10 874 54 q 704 -34 718 -8 q 690 -86 690 -60 q 707 -137 690 -117 q 757 -157 724 -157 l 790 -157 l 790 -233 q 692 -253 736 -253 q 588 -224 631 -253 q 544 -131 544 -194 q 586 -15 544 -67 q 540 -17 571 -17 q 185 106 311 -17 q 58 476 58 229 q 185 847 58 724 q 540 969 311 969 q 897 847 771 969 q 1024 476 1024 724 m 265 456 q 335 233 265 311 q 540 154 404 154 q 747 233 676 154 q 817 456 817 311 l 817 497 q 747 720 817 642 q 540 799 676 799 q 335 720 404 799 q 265 497 265 642 l 265 456 z "},"Ø":{"ha":1081,"x_min":58,"x_max":1024,"o":"m 192 100 q 58 476 58 225 q 185 847 58 724 q 540 969 311 969 q 806 913 697 969 l 886 1021 l 1017 1021 l 890 853 q 1024 476 1024 728 q 897 106 1024 229 q 540 -17 771 -17 q 278 39 385 -17 l 197 -68 l 65 -68 l 192 100 m 692 763 q 540 799 631 799 q 335 720 404 799 q 265 497 265 642 l 265 456 q 313 261 265 335 l 692 763 m 540 154 q 747 233 676 154 q 817 456 817 311 l 817 497 q 768 692 817 615 l 390 189 q 540 154 450 154 z "},"Ǿ":{"ha":1081,"x_min":58,"x_max":1024,"o":"m 58 0 m 192 100 q 58 476 58 225 q 185 847 58 724 q 540 969 311 969 q 806 913 697 969 l 886 1021 l 1017 1021 l 890 853 q 1024 476 1024 728 q 897 106 1024 229 q 540 -17 771 -17 q 278 39 385 -17 l 197 -68 l 65 -68 l 192 100 m 692 763 q 540 799 631 799 q 335 720 404 799 q 265 497 265 642 l 265 456 q 313 261 265 335 l 692 763 m 540 154 q 747 233 676 154 q 817 456 817 311 l 817 497 q 768 692 817 615 l 390 189 q 540 154 450 154 m 467 1022 l 576 1206 l 761 1206 l 763 1201 l 613 1022 l 467 1022 z "},"Õ":{"ha":1081,"x_min":58,"x_max":1024,"o":"m 58 0 m 540 -17 q 185 106 311 -17 q 58 476 58 229 q 185 847 58 724 q 540 969 311 969 q 897 847 771 969 q 1024 476 1024 724 q 897 106 1024 229 q 540 -17 771 -17 m 540 154 q 747 233 676 154 q 817 456 817 311 l 817 497 q 747 720 817 642 q 540 799 676 799 q 335 720 404 799 q 265 497 265 642 l 265 456 q 335 233 265 311 q 540 154 404 154 m 307 1036 q 341 1158 307 1110 q 443 1206 375 1206 q 485 1199 465 1206 q 539 1179 504 1193 q 588 1160 568 1167 q 628 1154 607 1154 q 660 1166 649 1154 q 676 1206 672 1178 l 774 1206 q 740 1084 774 1132 q 636 1036 706 1036 q 595 1042 614 1036 q 542 1063 576 1049 q 493 1081 513 1075 q 453 1088 474 1088 q 404 1036 411 1088 l 307 1036 z "},"Œ":{"ha":1389,"x_min":58,"x_max":1313,"o":"m 435 -17 q 158 110 257 -17 q 58 476 58 238 q 158 842 58 715 q 435 969 257 969 q 681 878 585 969 l 681 953 l 1304 953 l 1304 782 l 882 782 l 882 572 l 1243 572 l 1243 401 l 882 401 l 882 171 l 1313 171 l 1313 0 l 681 0 l 681 74 q 435 -17 581 -17 m 476 154 q 628 230 576 154 q 681 476 681 306 q 628 723 681 647 q 476 799 576 799 q 315 720 365 799 q 265 476 265 642 q 315 233 265 311 q 476 154 365 154 z "},"P":{"ha":926,"x_min":93,"x_max":868,"o":"m 93 953 l 547 953 q 788 872 707 953 q 868 642 868 790 q 784 410 868 493 q 533 328 700 328 l 294 328 l 294 0 l 93 0 l 93 953 m 529 499 q 629 536 594 499 q 664 642 664 574 q 629 745 664 708 q 529 782 594 782 l 294 782 l 294 499 l 529 499 z "},"Þ":{"ha":926,"x_min":93,"x_max":868,"o":"m 93 953 l 294 953 l 294 804 l 547 804 q 788 723 707 804 q 868 493 868 642 q 784 262 868 344 q 533 179 700 179 l 294 179 l 294 0 l 93 0 l 93 953 m 529 350 q 629 388 594 350 q 664 493 664 425 q 629 597 664 560 q 529 633 594 633 l 294 633 l 294 350 l 529 350 z "},"Q":{"ha":1081,"x_min":58,"x_max":1024,"o":"m 578 -15 q 540 -17 565 -17 q 185 106 311 -17 q 58 476 58 229 q 185 847 58 724 q 540 969 311 969 q 897 847 771 969 q 1024 476 1024 724 q 961 192 1024 304 q 781 28 899 79 l 997 -181 l 732 -181 l 578 -15 m 540 154 q 747 233 676 154 q 817 456 817 311 l 817 497 q 747 720 817 642 q 540 799 676 799 q 335 720 404 799 q 265 497 265 642 l 265 456 q 335 233 265 311 q 540 154 404 154 z "},"R":{"ha":1003,"x_min":93,"x_max":947,"o":"m 93 953 l 599 953 q 839 874 758 953 q 919 654 919 796 q 753 388 919 454 l 947 0 l 729 0 l 561 356 l 294 356 l 294 0 l 93 0 l 93 953 m 581 524 q 681 558 646 524 q 715 654 715 593 q 681 749 715 715 q 581 782 646 782 l 294 782 l 294 524 l 581 524 z "},"Ŕ":{"ha":1003,"x_min":93,"x_max":947,"o":"m 93 0 m 93 953 l 599 953 q 839 874 758 953 q 919 654 919 796 q 753 388 919 454 l 947 0 l 729 0 l 561 356 l 294 356 l 294 0 l 93 0 l 93 953 m 581 524 q 681 558 646 524 q 715 654 715 593 q 681 749 715 715 q 581 782 646 782 l 294 782 l 294 524 l 581 524 m 428 1022 l 538 1206 l 722 1206 l 724 1201 l 574 1022 l 428 1022 z "},"Ř":{"ha":1003,"x_min":93,"x_max":947,"o":"m 93 0 m 93 953 l 599 953 q 839 874 758 953 q 919 654 919 796 q 753 388 919 454 l 947 0 l 729 0 l 561 356 l 294 356 l 294 0 l 93 0 l 93 953 m 581 524 q 681 558 646 524 q 715 654 715 593 q 681 749 715 715 q 581 782 646 782 l 294 782 l 294 524 l 581 524 m 417 1018 l 269 1206 l 424 1206 l 501 1110 l 578 1206 l 732 1206 l 586 1018 l 417 1018 z "},"Ŗ":{"ha":1003,"x_min":93,"x_max":947,"o":"m 93 0 m 93 953 l 599 953 q 839 874 758 953 q 919 654 919 796 q 753 388 919 454 l 947 0 l 729 0 l 561 356 l 294 356 l 294 0 l 93 0 l 93 953 m 581 524 q 681 558 646 524 q 715 654 715 593 q 681 749 715 715 q 581 782 646 782 l 294 782 l 294 524 l 581 524 m 410 -319 l 482 -192 l 406 -192 l 406 -56 l 597 -56 l 597 -175 l 510 -319 l 410 -319 z "},"Ȑ":{"ha":1003,"x_min":93,"x_max":947,"o":"m 93 0 m 93 953 l 599 953 q 839 874 758 953 q 919 654 919 796 q 753 388 919 454 l 947 0 l 729 0 l 561 356 l 294 356 l 294 0 l 93 0 l 93 953 m 581 524 q 681 558 646 524 q 715 654 715 593 q 681 749 715 715 q 581 782 646 782 l 294 782 l 294 524 l 581 524 m 335 1022 l 185 1201 l 186 1206 l 371 1206 l 481 1022 l 335 1022 m 578 1022 l 428 1201 l 429 1206 l 614 1206 l 724 1022 l 578 1022 z "},"Ṛ":{"ha":1003,"x_min":93,"x_max":947,"o":"m 93 0 m 93 953 l 599 953 q 839 874 758 953 q 919 654 919 796 q 753 388 919 454 l 947 0 l 729 0 l 561 356 l 294 356 l 294 0 l 93 0 l 93 953 m 581 524 q 681 558 646 524 q 715 654 715 593 q 681 749 715 715 q 581 782 646 782 l 294 782 l 294 524 l 581 524 m 407 -240 l 407 -60 l 594 -60 l 594 -240 l 407 -240 z "},"Ȓ":{"ha":1003,"x_min":93,"x_max":947,"o":"m 93 0 m 93 953 l 599 953 q 839 874 758 953 q 919 654 919 796 q 753 388 919 454 l 947 0 l 729 0 l 561 356 l 294 356 l 294 0 l 93 0 l 93 953 m 581 524 q 681 558 646 524 q 715 654 715 593 q 681 749 715 715 q 581 782 646 782 l 294 782 l 294 524 l 581 524 m 276 1015 q 300 1106 276 1063 q 374 1178 324 1150 q 500 1206 424 1206 q 627 1178 576 1206 q 701 1106 678 1150 q 725 1015 725 1063 l 600 1015 q 571 1061 597 1040 q 500 1082 544 1082 q 431 1061 456 1082 q 401 1015 406 1040 l 276 1015 z "},"S":{"ha":926,"x_min":58,"x_max":865,"o":"m 458 -17 q 258 17 349 -17 q 113 118 167 51 q 58 279 58 185 l 60 310 l 264 310 l 263 288 q 317 190 263 226 q 468 154 371 154 q 617 181 571 154 q 663 254 663 208 q 633 322 663 294 q 558 365 603 349 q 433 403 513 381 q 251 464 321 435 q 132 551 182 493 q 82 703 82 608 q 188 901 82 833 q 468 969 293 969 q 738 899 633 969 q 843 689 843 829 l 843 672 l 643 672 l 643 685 q 595 768 643 738 q 465 799 547 799 q 331 775 378 799 q 285 710 285 751 q 313 655 285 678 q 382 617 340 632 q 500 582 424 603 q 687 522 614 551 q 813 433 760 492 q 865 281 865 375 q 756 56 865 128 q 458 -17 647 -17 z "},"Ś":{"ha":926,"x_min":58,"x_max":865,"o":"m 58 0 m 458 -17 q 258 17 349 -17 q 113 118 167 51 q 58 279 58 185 l 60 310 l 264 310 l 263 288 q 317 190 263 226 q 468 154 371 154 q 617 181 571 154 q 663 254 663 208 q 633 322 663 294 q 558 365 603 349 q 433 403 513 381 q 251 464 321 435 q 132 551 182 493 q 82 703 82 608 q 188 901 82 833 q 468 969 293 969 q 738 899 633 969 q 843 689 843 829 l 843 672 l 643 672 l 643 685 q 595 768 643 738 q 465 799 547 799 q 331 775 378 799 q 285 710 285 751 q 313 655 285 678 q 382 617 340 632 q 500 582 424 603 q 687 522 614 551 q 813 433 760 492 q 865 281 865 375 q 756 56 865 128 q 458 -17 647 -17 m 390 1022 l 500 1206 l 685 1206 l 686 1201 l 536 1022 l 390 1022 z "},"Ꞌ":{"ha":310,"x_min":68,"x_max":254,"o":"m 68 288 l 68 953 l 254 953 l 254 786 l 194 288 l 68 288 z "},"Š":{"ha":926,"x_min":58,"x_max":865,"o":"m 58 0 m 458 -17 q 258 17 349 -17 q 113 118 167 51 q 58 279 58 185 l 60 310 l 264 310 l 263 288 q 317 190 263 226 q 468 154 371 154 q 617 181 571 154 q 663 254 663 208 q 633 322 663 294 q 558 365 603 349 q 433 403 513 381 q 251 464 321 435 q 132 551 182 493 q 82 703 82 608 q 188 901 82 833 q 468 969 293 969 q 738 899 633 969 q 843 689 843 829 l 843 672 l 643 672 l 643 685 q 595 768 643 738 q 465 799 547 799 q 331 775 378 799 q 285 710 285 751 q 313 655 285 678 q 382 617 340 632 q 500 582 424 603 q 687 522 614 551 q 813 433 760 492 q 865 281 865 375 q 756 56 865 128 q 458 -17 647 -17 m 379 1018 l 232 1206 l 386 1206 l 464 1110 l 540 1206 l 694 1206 l 549 1018 l 379 1018 z "},"Ş":{"ha":926,"x_min":58,"x_max":865,"o":"m 467 -253 q 322 -242 389 -253 l 322 -174 l 444 -174 q 492 -167 476 -174 q 507 -140 507 -160 q 494 -115 507 -124 q 449 -107 481 -107 l 392 -107 l 406 -14 q 157 74 256 -3 q 58 279 58 150 l 60 310 l 264 310 l 263 288 q 317 190 263 226 q 468 154 371 154 q 617 181 571 154 q 663 254 663 208 q 633 322 663 294 q 558 365 603 349 q 433 403 513 381 q 251 464 321 435 q 132 551 182 493 q 82 703 82 608 q 188 901 82 833 q 468 969 293 969 q 738 899 633 969 q 843 689 843 829 l 843 672 l 643 672 l 643 685 q 595 768 643 738 q 465 799 547 799 q 331 775 378 799 q 285 710 285 751 q 313 655 285 678 q 382 617 340 632 q 500 582 424 603 q 687 522 614 551 q 813 433 760 492 q 865 281 865 375 q 774 69 865 140 q 524 -14 683 -3 l 519 -46 q 618 -72 581 -49 q 656 -140 656 -96 q 598 -228 656 -203 q 467 -253 540 -253 z "},"Ŝ":{"ha":926,"x_min":58,"x_max":865,"o":"m 58 0 m 458 -17 q 258 17 349 -17 q 113 118 167 51 q 58 279 58 185 l 60 310 l 264 310 l 263 288 q 317 190 263 226 q 468 154 371 154 q 617 181 571 154 q 663 254 663 208 q 633 322 663 294 q 558 365 603 349 q 433 403 513 381 q 251 464 321 435 q 132 551 182 493 q 82 703 82 608 q 188 901 82 833 q 468 969 293 969 q 738 899 633 969 q 843 689 843 829 l 843 672 l 643 672 l 643 685 q 595 768 643 738 q 465 799 547 799 q 331 775 378 799 q 285 710 285 751 q 313 655 285 678 q 382 617 340 632 q 500 582 424 603 q 687 522 614 551 q 813 433 760 492 q 865 281 865 375 q 756 56 865 128 q 458 -17 647 -17 m 232 1018 l 379 1206 l 549 1206 l 694 1018 l 540 1018 l 464 1114 l 386 1018 l 232 1018 z "},"Ș":{"ha":926,"x_min":58,"x_max":865,"o":"m 58 0 m 458 -17 q 258 17 349 -17 q 113 118 167 51 q 58 279 58 185 l 60 310 l 264 310 l 263 288 q 317 190 263 226 q 468 154 371 154 q 617 181 571 154 q 663 254 663 208 q 633 322 663 294 q 558 365 603 349 q 433 403 513 381 q 251 464 321 435 q 132 551 182 493 q 82 703 82 608 q 188 901 82 833 q 468 969 293 969 q 738 899 633 969 q 843 689 843 829 l 843 672 l 643 672 l 643 685 q 595 768 643 738 q 465 799 547 799 q 331 775 378 799 q 285 710 285 751 q 313 655 285 678 q 382 617 340 632 q 500 582 424 603 q 687 522 614 551 q 813 433 760 492 q 865 281 865 375 q 756 56 865 128 q 458 -17 647 -17 m 372 -319 l 444 -192 l 368 -192 l 368 -56 l 560 -56 l 560 -175 l 472 -319 l 372 -319 z "},"Ṣ":{"ha":926,"x_min":58,"x_max":865,"o":"m 58 0 m 458 -17 q 258 17 349 -17 q 113 118 167 51 q 58 279 58 185 l 60 310 l 264 310 l 263 288 q 317 190 263 226 q 468 154 371 154 q 617 181 571 154 q 663 254 663 208 q 633 322 663 294 q 558 365 603 349 q 433 403 513 381 q 251 464 321 435 q 132 551 182 493 q 82 703 82 608 q 188 901 82 833 q 468 969 293 969 q 738 899 633 969 q 843 689 843 829 l 843 672 l 643 672 l 643 685 q 595 768 643 738 q 465 799 547 799 q 331 775 378 799 q 285 710 285 751 q 313 655 285 678 q 382 617 340 632 q 500 582 424 603 q 687 522 614 551 q 813 433 760 492 q 865 281 865 375 q 756 56 865 128 q 458 -17 647 -17 m 369 -240 l 369 -60 l 557 -60 l 557 -240 l 369 -240 z "},"ẞ":{"ha":1108,"x_min":93,"x_max":1038,"o":"m 93 543 q 219 861 93 753 q 574 969 344 969 q 790 935 696 969 q 938 839 885 901 q 990 693 990 776 q 954 566 990 624 q 864 488 918 508 l 864 482 q 991 403 944 461 q 1038 263 1038 346 q 1000 128 1038 188 q 892 34 963 68 q 728 0 822 0 l 413 0 l 413 174 l 710 174 q 799 206 767 174 q 831 281 831 238 q 791 356 831 328 q 682 385 751 385 l 413 385 l 413 558 l 678 558 q 755 594 726 558 q 783 675 783 631 q 733 765 783 732 q 589 799 683 799 q 368 733 442 799 q 294 533 294 668 l 294 0 l 93 0 l 93 543 z "},"Ə":{"ha":1053,"x_min":58,"x_max":986,"o":"m 522 -17 q 175 99 292 -17 q 58 460 58 215 l 58 526 l 778 526 q 706 739 771 669 q 506 808 640 808 q 325 761 393 808 q 257 619 257 714 l 58 619 q 181 881 58 793 q 511 969 304 969 q 868 848 750 969 q 986 471 986 726 q 872 103 986 222 q 522 -17 757 -17 m 525 146 q 703 201 644 146 q 775 379 761 257 l 269 379 q 338 202 269 258 q 525 146 406 146 z "},"T":{"ha":849,"x_min":29,"x_max":819,"o":"m 324 0 l 324 779 l 29 779 l 29 953 l 819 953 l 819 779 l 525 779 l 525 0 l 324 0 z "},"Ŧ":{"ha":849,"x_min":29,"x_max":819,"o":"m 324 0 l 324 489 l 200 489 l 200 615 l 324 615 l 324 779 l 29 779 l 29 953 l 819 953 l 819 779 l 525 779 l 525 615 l 649 615 l 649 489 l 525 489 l 525 0 l 324 0 z "},"Ť":{"ha":849,"x_min":29,"x_max":819,"o":"m 29 0 m 324 0 l 324 779 l 29 779 l 29 953 l 819 953 l 819 779 l 525 779 l 525 0 l 324 0 m 340 1018 l 193 1206 l 347 1206 l 425 1110 l 501 1206 l 656 1206 l 510 1018 l 340 1018 z "},"Ţ":{"ha":849,"x_min":29,"x_max":819,"o":"m 482 0 l 475 -46 q 574 -72 536 -49 q 611 -140 611 -96 q 553 -228 611 -203 q 422 -253 496 -253 q 278 -242 344 -253 l 278 -174 l 400 -174 q 447 -167 432 -174 q 463 -140 463 -160 q 449 -115 463 -124 q 404 -107 436 -107 l 347 -107 l 363 0 l 324 0 l 324 779 l 29 779 l 29 953 l 819 953 l 819 779 l 525 779 l 525 0 l 482 0 z "},"Ț":{"ha":849,"x_min":29,"x_max":819,"o":"m 29 0 m 324 0 l 324 779 l 29 779 l 29 953 l 819 953 l 819 779 l 525 779 l 525 0 l 324 0 m 333 -319 l 406 -192 l 329 -192 l 329 -56 l 521 -56 l 521 -175 l 433 -319 l 333 -319 z "},"Ṭ":{"ha":849,"x_min":29,"x_max":819,"o":"m 29 0 m 324 0 l 324 779 l 29 779 l 29 953 l 819 953 l 819 779 l 525 779 l 525 0 l 324 0 m 331 -240 l 331 -60 l 518 -60 l 518 -240 l 331 -240 z "},"U":{"ha":1003,"x_min":93,"x_max":910,"o":"m 500 -17 q 200 78 307 -17 q 93 354 93 172 l 93 953 l 294 953 l 294 364 q 348 208 294 261 q 500 154 401 154 q 653 208 599 154 q 708 364 708 261 l 708 953 l 910 953 l 910 354 q 802 78 910 172 q 500 -17 694 -17 z "},"Ú":{"ha":1003,"x_min":93,"x_max":910,"o":"m 93 0 m 500 -17 q 200 78 307 -17 q 93 354 93 172 l 93 953 l 294 953 l 294 364 q 348 208 294 261 q 500 154 401 154 q 653 208 599 154 q 708 364 708 261 l 708 953 l 910 953 l 910 354 q 802 78 910 172 q 500 -17 694 -17 m 428 1022 l 538 1206 l 722 1206 l 724 1201 l 574 1022 l 428 1022 z "},"Ŭ":{"ha":1003,"x_min":93,"x_max":910,"o":"m 93 0 m 500 -17 q 200 78 307 -17 q 93 354 93 172 l 93 953 l 294 953 l 294 364 q 348 208 294 261 q 500 154 401 154 q 653 208 599 154 q 708 364 708 261 l 708 953 l 910 953 l 910 354 q 802 78 910 172 q 500 -17 694 -17 m 500 1015 q 374 1043 424 1015 q 300 1115 324 1071 q 276 1206 276 1158 l 401 1206 q 431 1160 406 1181 q 500 1139 456 1139 q 571 1160 544 1139 q 600 1206 597 1181 l 725 1206 q 701 1115 725 1158 q 627 1043 678 1071 q 500 1015 576 1015 z "},"Ǔ":{"ha":1003,"x_min":93,"x_max":910,"o":"m 93 0 m 500 -17 q 200 78 307 -17 q 93 354 93 172 l 93 953 l 294 953 l 294 364 q 348 208 294 261 q 500 154 401 154 q 653 208 599 154 q 708 364 708 261 l 708 953 l 910 953 l 910 354 q 802 78 910 172 q 500 -17 694 -17 m 417 1018 l 269 1206 l 424 1206 l 501 1110 l 578 1206 l 732 1206 l 586 1018 l 417 1018 z "},"Û":{"ha":1003,"x_min":93,"x_max":910,"o":"m 93 0 m 500 -17 q 200 78 307 -17 q 93 354 93 172 l 93 953 l 294 953 l 294 364 q 348 208 294 261 q 500 154 401 154 q 653 208 599 154 q 708 364 708 261 l 708 953 l 910 953 l 910 354 q 802 78 910 172 q 500 -17 694 -17 m 269 1018 l 417 1206 l 586 1206 l 732 1018 l 578 1018 l 501 1114 l 424 1018 l 269 1018 z "},"Ȕ":{"ha":1003,"x_min":93,"x_max":910,"o":"m 93 0 m 500 -17 q 200 78 307 -17 q 93 354 93 172 l 93 953 l 294 953 l 294 364 q 348 208 294 261 q 500 154 401 154 q 653 208 599 154 q 708 364 708 261 l 708 953 l 910 953 l 910 354 q 802 78 910 172 q 500 -17 694 -17 m 335 1022 l 185 1201 l 186 1206 l 371 1206 l 481 1022 l 335 1022 m 578 1022 l 428 1201 l 429 1206 l 614 1206 l 724 1022 l 578 1022 z "},"Ü":{"ha":1003,"x_min":93,"x_max":910,"o":"m 93 0 m 500 -17 q 200 78 307 -17 q 93 354 93 172 l 93 953 l 294 953 l 294 364 q 348 208 294 261 q 500 154 401 154 q 653 208 599 154 q 708 364 708 261 l 708 953 l 910 953 l 910 354 q 802 78 910 172 q 500 -17 694 -17 m 274 1042 l 274 1206 l 438 1206 l 438 1042 l 274 1042 m 565 1042 l 565 1206 l 731 1206 l 731 1042 l 565 1042 z "},"Ǘ":{"ha":1003,"x_min":93,"x_max":910,"o":"m 93 0 m 500 -17 q 200 78 307 -17 q 93 354 93 172 l 93 953 l 294 953 l 294 364 q 348 208 294 261 q 500 154 401 154 q 653 208 599 154 q 708 364 708 261 l 708 953 l 910 953 l 910 354 q 802 78 910 172 q 500 -17 694 -17 m 274 1042 l 274 1206 l 438 1206 l 438 1042 l 274 1042 m 565 1042 l 565 1206 l 731 1206 l 731 1042 l 565 1042 m 428 1254 l 538 1438 l 722 1438 l 724 1433 l 574 1254 l 428 1254 z "},"Ǚ":{"ha":1003,"x_min":93,"x_max":910,"o":"m 93 0 m 500 -17 q 200 78 307 -17 q 93 354 93 172 l 93 953 l 294 953 l 294 364 q 348 208 294 261 q 500 154 401 154 q 653 208 599 154 q 708 364 708 261 l 708 953 l 910 953 l 910 354 q 802 78 910 172 q 500 -17 694 -17 m 274 1042 l 274 1206 l 438 1206 l 438 1042 l 274 1042 m 565 1042 l 565 1206 l 731 1206 l 731 1042 l 565 1042 m 417 1250 l 269 1438 l 424 1438 l 501 1342 l 578 1438 l 732 1438 l 586 1250 l 417 1250 z "},"Ǜ":{"ha":1003,"x_min":93,"x_max":910,"o":"m 93 0 m 500 -17 q 200 78 307 -17 q 93 354 93 172 l 93 953 l 294 953 l 294 364 q 348 208 294 261 q 500 154 401 154 q 653 208 599 154 q 708 364 708 261 l 708 953 l 910 953 l 910 354 q 802 78 910 172 q 500 -17 694 -17 m 274 1042 l 274 1206 l 438 1206 l 438 1042 l 274 1042 m 565 1042 l 565 1206 l 731 1206 l 731 1042 l 565 1042 m 428 1254 l 278 1433 l 279 1438 l 464 1438 l 574 1254 l 428 1254 z "},"Ǖ":{"ha":1003,"x_min":93,"x_max":910,"o":"m 93 0 m 500 -17 q 200 78 307 -17 q 93 354 93 172 l 93 953 l 294 953 l 294 364 q 348 208 294 261 q 500 154 401 154 q 653 208 599 154 q 708 364 708 261 l 708 953 l 910 953 l 910 354 q 802 78 910 172 q 500 -17 694 -17 m 274 1042 l 274 1206 l 438 1206 l 438 1042 l 274 1042 m 565 1042 l 565 1206 l 731 1206 l 731 1042 l 565 1042 m 289 1282 l 289 1404 l 713 1404 l 713 1282 l 289 1282 z "},"Ụ":{"ha":1003,"x_min":93,"x_max":910,"o":"m 93 0 m 500 -17 q 200 78 307 -17 q 93 354 93 172 l 93 953 l 294 953 l 294 364 q 348 208 294 261 q 500 154 401 154 q 653 208 599 154 q 708 364 708 261 l 708 953 l 910 953 l 910 354 q 802 78 910 172 q 500 -17 694 -17 m 407 -240 l 407 -60 l 594 -60 l 594 -240 l 407 -240 z "},"Ù":{"ha":1003,"x_min":93,"x_max":910,"o":"m 93 0 m 500 -17 q 200 78 307 -17 q 93 354 93 172 l 93 953 l 294 953 l 294 364 q 348 208 294 261 q 500 154 401 154 q 653 208 599 154 q 708 364 708 261 l 708 953 l 910 953 l 910 354 q 802 78 910 172 q 500 -17 694 -17 m 428 1022 l 278 1201 l 279 1206 l 464 1206 l 574 1022 l 428 1022 z "},"Ủ":{"ha":1003,"x_min":93,"x_max":910,"o":"m 93 0 m 500 -17 q 200 78 307 -17 q 93 354 93 172 l 93 953 l 294 953 l 294 364 q 348 208 294 261 q 500 154 401 154 q 653 208 599 154 q 708 364 708 261 l 708 953 l 910 953 l 910 354 q 802 78 910 172 q 500 -17 694 -17 m 454 1097 l 474 1097 q 508 1103 499 1097 q 518 1124 518 1110 q 506 1144 518 1139 q 469 1150 494 1150 l 389 1150 l 389 1211 q 504 1222 442 1222 q 617 1203 568 1222 q 667 1138 667 1185 q 633 1080 667 1100 q 549 1057 600 1060 l 549 1022 l 454 1022 l 454 1097 z "},"Ư":{"ha":1003,"x_min":93,"x_max":1050,"o":"m 1050 1206 l 1050 1131 q 1016 962 1050 1026 q 910 861 982 897 l 910 354 q 802 78 910 172 q 500 -17 694 -17 q 200 78 307 -17 q 93 354 93 172 l 93 953 l 294 953 l 294 364 q 348 208 294 261 q 500 154 401 154 q 653 208 599 154 q 708 364 708 261 l 708 953 l 876 953 q 926 1015 913 979 l 831 1015 l 831 1206 l 1050 1206 z "},"Ứ":{"ha":1003,"x_min":93,"x_max":1050,"o":"m 93 0 m 1050 1206 l 1050 1131 q 1016 962 1050 1026 q 910 861 982 897 l 910 354 q 802 78 910 172 q 500 -17 694 -17 q 200 78 307 -17 q 93 354 93 172 l 93 953 l 294 953 l 294 364 q 348 208 294 261 q 500 154 401 154 q 653 208 599 154 q 708 364 708 261 l 708 953 l 876 953 q 926 1015 913 979 l 831 1015 l 831 1206 l 1050 1206 m 428 1022 l 538 1206 l 722 1206 l 724 1201 l 574 1022 l 428 1022 z "},"Ự":{"ha":1003,"x_min":93,"x_max":1050,"o":"m 93 0 m 1050 1206 l 1050 1131 q 1016 962 1050 1026 q 910 861 982 897 l 910 354 q 802 78 910 172 q 500 -17 694 -17 q 200 78 307 -17 q 93 354 93 172 l 93 953 l 294 953 l 294 364 q 348 208 294 261 q 500 154 401 154 q 653 208 599 154 q 708 364 708 261 l 708 953 l 876 953 q 926 1015 913 979 l 831 1015 l 831 1206 l 1050 1206 m 407 -240 l 407 -60 l 594 -60 l 594 -240 l 407 -240 z "},"Ừ":{"ha":1003,"x_min":93,"x_max":1050,"o":"m 93 0 m 1050 1206 l 1050 1131 q 1016 962 1050 1026 q 910 861 982 897 l 910 354 q 802 78 910 172 q 500 -17 694 -17 q 200 78 307 -17 q 93 354 93 172 l 93 953 l 294 953 l 294 364 q 348 208 294 261 q 500 154 401 154 q 653 208 599 154 q 708 364 708 261 l 708 953 l 876 953 q 926 1015 913 979 l 831 1015 l 831 1206 l 1050 1206 m 428 1022 l 278 1201 l 279 1206 l 464 1206 l 574 1022 l 428 1022 z "},"Ử":{"ha":1003,"x_min":93,"x_max":1050,"o":"m 93 0 m 1050 1206 l 1050 1131 q 1016 962 1050 1026 q 910 861 982 897 l 910 354 q 802 78 910 172 q 500 -17 694 -17 q 200 78 307 -17 q 93 354 93 172 l 93 953 l 294 953 l 294 364 q 348 208 294 261 q 500 154 401 154 q 653 208 599 154 q 708 364 708 261 l 708 953 l 876 953 q 926 1015 913 979 l 831 1015 l 831 1206 l 1050 1206 m 454 1097 l 474 1097 q 508 1103 499 1097 q 518 1124 518 1110 q 506 1144 518 1139 q 469 1150 494 1150 l 389 1150 l 389 1211 q 504 1222 442 1222 q 617 1203 568 1222 q 667 1138 667 1185 q 633 1080 667 1100 q 549 1057 600 1060 l 549 1022 l 454 1022 l 454 1097 z "},"Ữ":{"ha":1003,"x_min":93,"x_max":1050,"o":"m 93 0 m 1050 1206 l 1050 1131 q 1016 962 1050 1026 q 910 861 982 897 l 910 354 q 802 78 910 172 q 500 -17 694 -17 q 200 78 307 -17 q 93 354 93 172 l 93 953 l 294 953 l 294 364 q 348 208 294 261 q 500 154 401 154 q 653 208 599 154 q 708 364 708 261 l 708 953 l 876 953 q 926 1015 913 979 l 831 1015 l 831 1206 l 1050 1206 m 268 1036 q 302 1158 268 1110 q 404 1206 336 1206 q 446 1199 426 1206 q 500 1179 465 1193 q 549 1160 529 1167 q 589 1154 568 1154 q 622 1166 610 1154 q 638 1206 633 1178 l 735 1206 q 701 1084 735 1132 q 597 1036 667 1036 q 556 1042 575 1036 q 503 1063 538 1049 q 454 1081 474 1075 q 414 1088 435 1088 q 365 1036 372 1088 l 268 1036 z "},"Ű":{"ha":1003,"x_min":93,"x_max":910,"o":"m 93 0 m 500 -17 q 200 78 307 -17 q 93 354 93 172 l 93 953 l 294 953 l 294 364 q 348 208 294 261 q 500 154 401 154 q 653 208 599 154 q 708 364 708 261 l 708 953 l 910 953 l 910 354 q 802 78 910 172 q 500 -17 694 -17 m 307 1022 l 417 1206 l 601 1206 l 603 1201 l 453 1022 l 307 1022 m 550 1022 l 660 1206 l 844 1206 l 846 1201 l 696 1022 l 550 1022 z "},"Ȗ":{"ha":1003,"x_min":93,"x_max":910,"o":"m 93 0 m 500 -17 q 200 78 307 -17 q 93 354 93 172 l 93 953 l 294 953 l 294 364 q 348 208 294 261 q 500 154 401 154 q 653 208 599 154 q 708 364 708 261 l 708 953 l 910 953 l 910 354 q 802 78 910 172 q 500 -17 694 -17 m 276 1015 q 300 1106 276 1063 q 374 1178 324 1150 q 500 1206 424 1206 q 627 1178 576 1206 q 701 1106 678 1150 q 725 1015 725 1063 l 600 1015 q 571 1061 597 1040 q 500 1082 544 1082 q 431 1061 456 1082 q 401 1015 406 1040 l 276 1015 z "},"Ū":{"ha":1003,"x_min":93,"x_max":910,"o":"m 93 0 m 500 -17 q 200 78 307 -17 q 93 354 93 172 l 93 953 l 294 953 l 294 364 q 348 208 294 261 q 500 154 401 154 q 653 208 599 154 q 708 364 708 261 l 708 953 l 910 953 l 910 354 q 802 78 910 172 q 500 -17 694 -17 m 289 1050 l 289 1172 l 713 1172 l 713 1050 l 289 1050 z "},"Ų":{"ha":1003,"x_min":93,"x_max":910,"o":"m 608 -253 q 504 -224 547 -253 q 461 -131 461 -194 q 500 -17 461 -71 q 200 78 307 -17 q 93 354 93 172 l 93 953 l 294 953 l 294 364 q 348 208 294 261 q 500 154 401 154 q 653 208 599 154 q 708 364 708 261 l 708 953 l 910 953 l 910 354 q 840 118 910 208 q 640 -1 771 28 q 607 -86 607 -47 q 624 -137 607 -117 q 674 -157 640 -157 l 707 -157 l 707 -233 q 608 -253 653 -253 z "},"Ů":{"ha":1003,"x_min":93,"x_max":910,"o":"m 93 0 m 500 -17 q 200 78 307 -17 q 93 354 93 172 l 93 953 l 294 953 l 294 364 q 348 208 294 261 q 500 154 401 154 q 653 208 599 154 q 708 364 708 261 l 708 953 l 910 953 l 910 354 q 802 78 910 172 q 500 -17 694 -17 m 501 974 q 399 1014 438 974 q 361 1114 361 1054 q 399 1214 361 1174 q 501 1254 438 1254 q 603 1214 565 1254 q 642 1114 642 1174 q 603 1014 642 1054 q 501 974 565 974 m 501 1053 q 545 1070 528 1053 q 563 1114 563 1088 q 545 1158 563 1140 q 501 1175 528 1175 q 457 1158 474 1175 q 440 1114 440 1140 q 457 1070 440 1088 q 501 1053 474 1053 z "},"Ũ":{"ha":1003,"x_min":93,"x_max":910,"o":"m 93 0 m 500 -17 q 200 78 307 -17 q 93 354 93 172 l 93 953 l 294 953 l 294 364 q 348 208 294 261 q 500 154 401 154 q 653 208 599 154 q 708 364 708 261 l 708 953 l 910 953 l 910 354 q 802 78 910 172 q 500 -17 694 -17 m 268 1036 q 302 1158 268 1110 q 404 1206 336 1206 q 446 1199 426 1206 q 500 1179 465 1193 q 549 1160 529 1167 q 589 1154 568 1154 q 622 1166 610 1154 q 638 1206 633 1178 l 735 1206 q 701 1084 735 1132 q 597 1036 667 1036 q 556 1042 575 1036 q 503 1063 538 1049 q 454 1081 474 1075 q 414 1088 435 1088 q 365 1036 372 1088 l 268 1036 z "},"V":{"ha":926,"x_min":6,"x_max":919,"o":"m 6 953 l 224 953 l 403 431 q 439 319 419 381 q 465 233 458 257 l 472 233 q 500 329 479 257 q 532 431 521 401 l 710 953 l 919 953 l 575 0 l 350 0 l 6 953 z "},"W":{"ha":1311,"x_min":3,"x_max":1308,"o":"m 3 953 l 218 953 l 356 367 q 369 294 361 340 q 378 233 376 249 l 385 233 q 394 295 386 249 q 407 367 401 342 l 547 953 l 790 953 l 929 367 q 942 296 935 343 q 951 233 949 249 l 958 233 q 967 292 960 247 q 981 367 974 338 l 1122 953 l 1308 953 l 1056 0 l 838 0 l 681 607 q 665 683 672 638 q 657 742 658 728 l 651 742 q 641 679 649 726 q 628 607 633 632 l 474 0 l 256 0 l 3 953 z "},"Ẃ":{"ha":1311,"x_min":3,"x_max":1308,"o":"m 3 0 m 3 953 l 218 953 l 356 367 q 369 294 361 340 q 378 233 376 249 l 385 233 q 394 295 386 249 q 407 367 401 342 l 547 953 l 790 953 l 929 367 q 942 296 935 343 q 951 233 949 249 l 958 233 q 967 292 960 247 q 981 367 974 338 l 1122 953 l 1308 953 l 1056 0 l 838 0 l 681 607 q 665 683 672 638 q 657 742 658 728 l 651 742 q 641 679 649 726 q 628 607 633 632 l 474 0 l 256 0 l 3 953 m 582 1022 l 692 1206 l 876 1206 l 878 1201 l 728 1022 l 582 1022 z "},"Ŵ":{"ha":1311,"x_min":3,"x_max":1308,"o":"m 3 0 m 3 953 l 218 953 l 356 367 q 369 294 361 340 q 378 233 376 249 l 385 233 q 394 295 386 249 q 407 367 401 342 l 547 953 l 790 953 l 929 367 q 942 296 935 343 q 951 233 949 249 l 958 233 q 967 292 960 247 q 981 367 974 338 l 1122 953 l 1308 953 l 1056 0 l 838 0 l 681 607 q 665 683 672 638 q 657 742 658 728 l 651 742 q 641 679 649 726 q 628 607 633 632 l 474 0 l 256 0 l 3 953 m 424 1018 l 571 1206 l 740 1206 l 886 1018 l 732 1018 l 656 1114 l 578 1018 l 424 1018 z "},"Ẅ":{"ha":1311,"x_min":3,"x_max":1308,"o":"m 3 0 m 3 953 l 218 953 l 356 367 q 369 294 361 340 q 378 233 376 249 l 385 233 q 394 295 386 249 q 407 367 401 342 l 547 953 l 790 953 l 929 367 q 942 296 935 343 q 951 233 949 249 l 958 233 q 967 292 960 247 q 981 367 974 338 l 1122 953 l 1308 953 l 1056 0 l 838 0 l 681 607 q 665 683 672 638 q 657 742 658 728 l 651 742 q 641 679 649 726 q 628 607 633 632 l 474 0 l 256 0 l 3 953 m 428 1042 l 428 1206 l 592 1206 l 592 1042 l 428 1042 m 719 1042 l 719 1206 l 885 1206 l 885 1042 l 719 1042 z "},"Ẁ":{"ha":1311,"x_min":3,"x_max":1308,"o":"m 3 0 m 3 953 l 218 953 l 356 367 q 369 294 361 340 q 378 233 376 249 l 385 233 q 394 295 386 249 q 407 367 401 342 l 547 953 l 790 953 l 929 367 q 942 296 935 343 q 951 233 949 249 l 958 233 q 967 292 960 247 q 981 367 974 338 l 1122 953 l 1308 953 l 1056 0 l 838 0 l 681 607 q 665 683 672 638 q 657 742 658 728 l 651 742 q 641 679 649 726 q 628 607 633 632 l 474 0 l 256 0 l 3 953 m 582 1022 l 432 1201 l 433 1206 l 618 1206 l 728 1022 l 582 1022 z "},"X":{"ha":926,"x_min":0,"x_max":925,"o":"m 0 0 l 329 500 l 31 953 l 275 953 l 468 644 l 475 644 l 667 953 l 894 953 l 594 503 l 925 0 l 682 0 l 457 358 l 450 358 l 228 0 l 0 0 z "},"Y":{"ha":926,"x_min":0,"x_max":926,"o":"m 364 0 l 364 385 l 0 953 l 229 953 l 467 564 l 474 564 l 708 953 l 926 953 l 565 385 l 565 0 l 364 0 z "},"Ý":{"ha":926,"x_min":0,"x_max":926,"o":"m 0 0 m 364 0 l 364 385 l 0 953 l 229 953 l 467 564 l 474 564 l 708 953 l 926 953 l 565 385 l 565 0 l 364 0 m 390 1022 l 500 1206 l 685 1206 l 686 1201 l 536 1022 l 390 1022 z "},"Ŷ":{"ha":926,"x_min":0,"x_max":926,"o":"m 0 0 m 364 0 l 364 385 l 0 953 l 229 953 l 467 564 l 474 564 l 708 953 l 926 953 l 565 385 l 565 0 l 364 0 m 232 1018 l 379 1206 l 549 1206 l 694 1018 l 540 1018 l 464 1114 l 386 1018 l 232 1018 z "},"Ÿ":{"ha":926,"x_min":0,"x_max":926,"o":"m 0 0 m 364 0 l 364 385 l 0 953 l 229 953 l 467 564 l 474 564 l 708 953 l 926 953 l 565 385 l 565 0 l 364 0 m 236 1042 l 236 1206 l 400 1206 l 400 1042 l 236 1042 m 528 1042 l 528 1206 l 693 1206 l 693 1042 l 528 1042 z "},"Ỵ":{"ha":926,"x_min":0,"x_max":926,"o":"m 0 0 m 364 0 l 364 385 l 0 953 l 229 953 l 467 564 l 474 564 l 708 953 l 926 953 l 565 385 l 565 0 l 364 0 m 369 -240 l 369 -60 l 557 -60 l 557 -240 l 369 -240 z "},"Ỳ":{"ha":926,"x_min":0,"x_max":926,"o":"m 0 0 m 364 0 l 364 385 l 0 953 l 229 953 l 467 564 l 474 564 l 708 953 l 926 953 l 565 385 l 565 0 l 364 0 m 390 1022 l 240 1201 l 242 1206 l 426 1206 l 536 1022 l 390 1022 z "},"Ỷ":{"ha":926,"x_min":0,"x_max":926,"o":"m 0 0 m 364 0 l 364 385 l 0 953 l 229 953 l 467 564 l 474 564 l 708 953 l 926 953 l 565 385 l 565 0 l 364 0 m 417 1097 l 436 1097 q 471 1103 461 1097 q 481 1124 481 1110 q 469 1144 481 1139 q 432 1150 457 1150 l 351 1150 l 351 1211 q 467 1222 404 1222 q 580 1203 531 1222 q 629 1138 629 1185 q 596 1080 629 1100 q 511 1057 563 1060 l 511 1022 l 417 1022 l 417 1097 z "},"Ȳ":{"ha":926,"x_min":0,"x_max":926,"o":"m 0 0 m 364 0 l 364 385 l 0 953 l 229 953 l 467 564 l 474 564 l 708 953 l 926 953 l 565 385 l 565 0 l 364 0 m 251 1050 l 251 1172 l 675 1172 l 675 1050 l 251 1050 z "},"Ỹ":{"ha":926,"x_min":0,"x_max":926,"o":"m 0 0 m 364 0 l 364 385 l 0 953 l 229 953 l 467 564 l 474 564 l 708 953 l 926 953 l 565 385 l 565 0 l 364 0 m 231 1036 q 265 1158 231 1110 q 367 1206 299 1206 q 408 1199 389 1206 q 463 1179 428 1193 q 511 1160 492 1167 q 551 1154 531 1154 q 584 1166 572 1154 q 600 1206 596 1178 l 697 1206 q 663 1084 697 1132 q 560 1036 629 1036 q 519 1042 538 1036 q 465 1063 500 1049 q 417 1081 436 1075 q 376 1088 397 1088 q 328 1036 335 1088 l 231 1036 z "},"Z":{"ha":849,"x_min":24,"x_max":814,"o":"m 24 0 l 24 94 l 506 782 l 60 782 l 60 953 l 801 953 l 801 857 l 321 171 l 814 171 l 814 0 l 24 0 z "},"Ź":{"ha":849,"x_min":24,"x_max":814,"o":"m 24 0 m 24 0 l 24 94 l 506 782 l 60 782 l 60 953 l 801 953 l 801 857 l 321 171 l 814 171 l 814 0 l 24 0 m 351 1022 l 461 1206 l 646 1206 l 647 1201 l 497 1022 l 351 1022 z "},"Ž":{"ha":849,"x_min":24,"x_max":814,"o":"m 24 0 m 24 0 l 24 94 l 506 782 l 60 782 l 60 953 l 801 953 l 801 857 l 321 171 l 814 171 l 814 0 l 24 0 m 340 1018 l 193 1206 l 347 1206 l 425 1110 l 501 1206 l 656 1206 l 510 1018 l 340 1018 z "},"Ż":{"ha":849,"x_min":24,"x_max":814,"o":"m 24 0 m 24 0 l 24 94 l 506 782 l 60 782 l 60 953 l 801 953 l 801 857 l 321 171 l 814 171 l 814 0 l 24 0 m 331 1026 l 331 1207 l 518 1207 l 518 1026 l 331 1026 z "},"Ẓ":{"ha":849,"x_min":24,"x_max":814,"o":"m 24 0 m 24 0 l 24 94 l 506 782 l 60 782 l 60 953 l 801 953 l 801 857 l 321 171 l 814 171 l 814 0 l 24 0 m 331 -240 l 331 -60 l 518 -60 l 518 -240 l 331 -240 z "},"a":{"ha":772,"x_min":40,"x_max":760,"o":"m 267 -17 q 111 28 182 -17 q 40 189 40 72 q 156 388 40 329 q 482 447 271 447 l 482 499 q 460 574 482 547 q 379 600 439 600 q 288 581 315 600 q 261 535 261 561 l 261 514 l 78 514 q 76 544 76 522 q 158 692 76 636 q 374 747 239 747 q 598 686 524 747 q 672 510 672 625 l 672 188 q 686 151 672 163 q 721 139 700 139 l 760 139 l 760 6 q 650 -17 715 -17 q 555 8 593 -17 q 503 79 517 33 l 494 79 q 402 8 454 32 q 267 -17 350 -17 m 326 133 q 444 178 407 133 q 482 299 482 224 l 482 321 q 233 210 233 321 q 256 154 233 175 q 326 133 279 133 z "},"á":{"ha":772,"x_min":40,"x_max":760,"o":"m 40 0 m 267 -17 q 111 28 182 -17 q 40 189 40 72 q 156 388 40 329 q 482 447 271 447 l 482 499 q 460 574 482 547 q 379 600 439 600 q 288 581 315 600 q 261 535 261 561 l 261 514 l 78 514 q 76 544 76 522 q 158 692 76 636 q 374 747 239 747 q 598 686 524 747 q 672 510 672 625 l 672 188 q 686 151 672 163 q 721 139 700 139 l 760 139 l 760 6 q 650 -17 715 -17 q 555 8 593 -17 q 503 79 517 33 l 494 79 q 402 8 454 32 q 267 -17 350 -17 m 326 133 q 444 178 407 133 q 482 299 482 224 l 482 321 q 233 210 233 321 q 256 154 233 175 q 326 133 279 133 m 313 821 l 422 1004 l 607 1004 l 608 1000 l 458 821 l 313 821 z "},"ă":{"ha":772,"x_min":40,"x_max":760,"o":"m 40 0 m 267 -17 q 111 28 182 -17 q 40 189 40 72 q 156 388 40 329 q 482 447 271 447 l 482 499 q 460 574 482 547 q 379 600 439 600 q 288 581 315 600 q 261 535 261 561 l 261 514 l 78 514 q 76 544 76 522 q 158 692 76 636 q 374 747 239 747 q 598 686 524 747 q 672 510 672 625 l 672 188 q 686 151 672 163 q 721 139 700 139 l 760 139 l 760 6 q 650 -17 715 -17 q 555 8 593 -17 q 503 79 517 33 l 494 79 q 402 8 454 32 q 267 -17 350 -17 m 326 133 q 444 178 407 133 q 482 299 482 224 l 482 321 q 233 210 233 321 q 256 154 233 175 q 326 133 279 133 m 385 814 q 258 842 308 814 q 185 913 208 869 q 161 1004 161 957 l 286 1004 q 315 958 290 979 q 385 938 340 938 q 456 958 429 938 q 485 1004 482 979 l 610 1004 q 586 913 610 957 q 512 842 563 869 q 385 814 461 814 z "},"ắ":{"ha":772,"x_min":40,"x_max":760,"o":"m 40 0 m 267 -17 q 111 28 182 -17 q 40 189 40 72 q 156 388 40 329 q 482 447 271 447 l 482 499 q 460 574 482 547 q 379 600 439 600 q 288 581 315 600 q 261 535 261 561 l 261 514 l 78 514 q 76 544 76 522 q 158 692 76 636 q 374 747 239 747 q 598 686 524 747 q 672 510 672 625 l 672 188 q 686 151 672 163 q 721 139 700 139 l 760 139 l 760 6 q 650 -17 715 -17 q 555 8 593 -17 q 503 79 517 33 l 494 79 q 402 8 454 32 q 267 -17 350 -17 m 326 133 q 444 178 407 133 q 482 299 482 224 l 482 321 q 233 210 233 321 q 256 154 233 175 q 326 133 279 133 m 385 814 q 258 842 308 814 q 185 913 208 869 q 161 1004 161 957 l 286 1004 q 315 958 290 979 q 385 938 340 938 q 456 958 429 938 q 485 1004 482 979 l 610 1004 q 586 913 610 957 q 512 842 563 869 q 385 814 461 814 m 313 1004 l 422 1188 l 607 1188 l 608 1183 l 458 1004 l 313 1004 z "},"ặ":{"ha":772,"x_min":40,"x_max":760,"o":"m 40 0 m 267 -17 q 111 28 182 -17 q 40 189 40 72 q 156 388 40 329 q 482 447 271 447 l 482 499 q 460 574 482 547 q 379 600 439 600 q 288 581 315 600 q 261 535 261 561 l 261 514 l 78 514 q 76 544 76 522 q 158 692 76 636 q 374 747 239 747 q 598 686 524 747 q 672 510 672 625 l 672 188 q 686 151 672 163 q 721 139 700 139 l 760 139 l 760 6 q 650 -17 715 -17 q 555 8 593 -17 q 503 79 517 33 l 494 79 q 402 8 454 32 q 267 -17 350 -17 m 326 133 q 444 178 407 133 q 482 299 482 224 l 482 321 q 233 210 233 321 q 256 154 233 175 q 326 133 279 133 m 385 814 q 258 842 308 814 q 185 913 208 869 q 161 1004 161 957 l 286 1004 q 315 958 290 979 q 385 938 340 938 q 456 958 429 938 q 485 1004 482 979 l 610 1004 q 586 913 610 957 q 512 842 563 869 q 385 814 461 814 m 292 -240 l 292 -60 l 479 -60 l 479 -240 l 292 -240 z "},"ằ":{"ha":772,"x_min":40,"x_max":760,"o":"m 40 0 m 267 -17 q 111 28 182 -17 q 40 189 40 72 q 156 388 40 329 q 482 447 271 447 l 482 499 q 460 574 482 547 q 379 600 439 600 q 288 581 315 600 q 261 535 261 561 l 261 514 l 78 514 q 76 544 76 522 q 158 692 76 636 q 374 747 239 747 q 598 686 524 747 q 672 510 672 625 l 672 188 q 686 151 672 163 q 721 139 700 139 l 760 139 l 760 6 q 650 -17 715 -17 q 555 8 593 -17 q 503 79 517 33 l 494 79 q 402 8 454 32 q 267 -17 350 -17 m 326 133 q 444 178 407 133 q 482 299 482 224 l 482 321 q 233 210 233 321 q 256 154 233 175 q 326 133 279 133 m 385 814 q 258 842 308 814 q 185 913 208 869 q 161 1004 161 957 l 286 1004 q 315 958 290 979 q 385 938 340 938 q 456 958 429 938 q 485 1004 482 979 l 610 1004 q 586 913 610 957 q 512 842 563 869 q 385 814 461 814 m 315 1004 l 165 1183 l 167 1188 l 351 1188 l 461 1004 l 315 1004 z "},"ẳ":{"ha":772,"x_min":40,"x_max":760,"o":"m 40 0 m 267 -17 q 111 28 182 -17 q 40 189 40 72 q 156 388 40 329 q 482 447 271 447 l 482 499 q 460 574 482 547 q 379 600 439 600 q 288 581 315 600 q 261 535 261 561 l 261 514 l 78 514 q 76 544 76 522 q 158 692 76 636 q 374 747 239 747 q 598 686 524 747 q 672 510 672 625 l 672 188 q 686 151 672 163 q 721 139 700 139 l 760 139 l 760 6 q 650 -17 715 -17 q 555 8 593 -17 q 503 79 517 33 l 494 79 q 402 8 454 32 q 267 -17 350 -17 m 326 133 q 444 178 407 133 q 482 299 482 224 l 482 321 q 233 210 233 321 q 256 154 233 175 q 326 133 279 133 m 385 814 q 258 842 308 814 q 185 913 208 869 q 161 1004 161 957 l 286 1004 q 315 958 290 979 q 385 938 340 938 q 456 958 429 938 q 485 1004 482 979 l 610 1004 q 586 913 610 957 q 512 842 563 869 q 385 814 461 814 m 339 1079 l 358 1079 q 393 1085 383 1079 q 403 1106 403 1092 q 391 1126 403 1121 q 354 1132 379 1132 l 274 1132 l 274 1193 q 389 1204 326 1204 q 502 1185 453 1204 q 551 1119 551 1167 q 518 1062 551 1082 q 433 1039 485 1042 l 433 1004 l 339 1004 l 339 1079 z "},"ẵ":{"ha":772,"x_min":40,"x_max":760,"o":"m 40 0 m 267 -17 q 111 28 182 -17 q 40 189 40 72 q 156 388 40 329 q 482 447 271 447 l 482 499 q 460 574 482 547 q 379 600 439 600 q 288 581 315 600 q 261 535 261 561 l 261 514 l 78 514 q 76 544 76 522 q 158 692 76 636 q 374 747 239 747 q 598 686 524 747 q 672 510 672 625 l 672 188 q 686 151 672 163 q 721 139 700 139 l 760 139 l 760 6 q 650 -17 715 -17 q 555 8 593 -17 q 503 79 517 33 l 494 79 q 402 8 454 32 q 267 -17 350 -17 m 326 133 q 444 178 407 133 q 482 299 482 224 l 482 321 q 233 210 233 321 q 256 154 233 175 q 326 133 279 133 m 385 814 q 258 842 308 814 q 185 913 208 869 q 161 1004 161 957 l 286 1004 q 315 958 290 979 q 385 938 340 938 q 456 958 429 938 q 485 1004 482 979 l 610 1004 q 586 913 610 957 q 512 842 563 869 q 385 814 461 814 m 156 1057 q 190 1178 156 1131 q 292 1226 224 1226 q 333 1220 314 1226 q 388 1200 353 1214 q 436 1181 417 1188 q 476 1175 456 1175 q 509 1187 497 1175 q 525 1226 521 1199 l 622 1226 q 588 1105 622 1153 q 485 1057 554 1057 q 444 1063 463 1057 q 390 1083 425 1069 q 342 1102 361 1096 q 301 1108 322 1108 q 253 1057 260 1108 l 156 1057 z "},"ǎ":{"ha":772,"x_min":40,"x_max":760,"o":"m 40 0 m 267 -17 q 111 28 182 -17 q 40 189 40 72 q 156 388 40 329 q 482 447 271 447 l 482 499 q 460 574 482 547 q 379 600 439 600 q 288 581 315 600 q 261 535 261 561 l 261 514 l 78 514 q 76 544 76 522 q 158 692 76 636 q 374 747 239 747 q 598 686 524 747 q 672 510 672 625 l 672 188 q 686 151 672 163 q 721 139 700 139 l 760 139 l 760 6 q 650 -17 715 -17 q 555 8 593 -17 q 503 79 517 33 l 494 79 q 402 8 454 32 q 267 -17 350 -17 m 326 133 q 444 178 407 133 q 482 299 482 224 l 482 321 q 233 210 233 321 q 256 154 233 175 q 326 133 279 133 m 301 817 l 154 1004 l 308 1004 l 386 908 l 463 1004 l 617 1004 l 471 817 l 301 817 z "},"â":{"ha":772,"x_min":40,"x_max":760,"o":"m 40 0 m 267 -17 q 111 28 182 -17 q 40 189 40 72 q 156 388 40 329 q 482 447 271 447 l 482 499 q 460 574 482 547 q 379 600 439 600 q 288 581 315 600 q 261 535 261 561 l 261 514 l 78 514 q 76 544 76 522 q 158 692 76 636 q 374 747 239 747 q 598 686 524 747 q 672 510 672 625 l 672 188 q 686 151 672 163 q 721 139 700 139 l 760 139 l 760 6 q 650 -17 715 -17 q 555 8 593 -17 q 503 79 517 33 l 494 79 q 402 8 454 32 q 267 -17 350 -17 m 326 133 q 444 178 407 133 q 482 299 482 224 l 482 321 q 233 210 233 321 q 256 154 233 175 q 326 133 279 133 m 154 817 l 301 1004 l 471 1004 l 617 817 l 463 817 l 386 913 l 308 817 l 154 817 z "},"ấ":{"ha":772,"x_min":40,"x_max":813,"o":"m 40 0 m 267 -17 q 111 28 182 -17 q 40 189 40 72 q 156 388 40 329 q 482 447 271 447 l 482 499 q 460 574 482 547 q 379 600 439 600 q 288 581 315 600 q 261 535 261 561 l 261 514 l 78 514 q 76 544 76 522 q 158 692 76 636 q 374 747 239 747 q 598 686 524 747 q 672 510 672 625 l 672 188 q 686 151 672 163 q 721 139 700 139 l 760 139 l 760 6 q 650 -17 715 -17 q 555 8 593 -17 q 503 79 517 33 l 494 79 q 402 8 454 32 q 267 -17 350 -17 m 326 133 q 444 178 407 133 q 482 299 482 224 l 482 321 q 233 210 233 321 q 256 154 233 175 q 326 133 279 133 m 154 817 l 301 1004 l 471 1004 l 617 817 l 463 817 l 386 913 l 308 817 l 154 817 m 517 953 l 626 1136 l 811 1136 l 813 1132 l 663 953 l 517 953 z "},"ậ":{"ha":772,"x_min":40,"x_max":760,"o":"m 40 0 m 267 -17 q 111 28 182 -17 q 40 189 40 72 q 156 388 40 329 q 482 447 271 447 l 482 499 q 460 574 482 547 q 379 600 439 600 q 288 581 315 600 q 261 535 261 561 l 261 514 l 78 514 q 76 544 76 522 q 158 692 76 636 q 374 747 239 747 q 598 686 524 747 q 672 510 672 625 l 672 188 q 686 151 672 163 q 721 139 700 139 l 760 139 l 760 6 q 650 -17 715 -17 q 555 8 593 -17 q 503 79 517 33 l 494 79 q 402 8 454 32 q 267 -17 350 -17 m 326 133 q 444 178 407 133 q 482 299 482 224 l 482 321 q 233 210 233 321 q 256 154 233 175 q 326 133 279 133 m 154 817 l 301 1004 l 471 1004 l 617 817 l 463 817 l 386 913 l 308 817 l 154 817 m 292 -240 l 292 -60 l 479 -60 l 479 -240 l 292 -240 z "},"ầ":{"ha":772,"x_min":40,"x_max":760,"o":"m 40 0 m 267 -17 q 111 28 182 -17 q 40 189 40 72 q 156 388 40 329 q 482 447 271 447 l 482 499 q 460 574 482 547 q 379 600 439 600 q 288 581 315 600 q 261 535 261 561 l 261 514 l 78 514 q 76 544 76 522 q 158 692 76 636 q 374 747 239 747 q 598 686 524 747 q 672 510 672 625 l 672 188 q 686 151 672 163 q 721 139 700 139 l 760 139 l 760 6 q 650 -17 715 -17 q 555 8 593 -17 q 503 79 517 33 l 494 79 q 402 8 454 32 q 267 -17 350 -17 m 326 133 q 444 178 407 133 q 482 299 482 224 l 482 321 q 233 210 233 321 q 256 154 233 175 q 326 133 279 133 m 154 817 l 301 1004 l 471 1004 l 617 817 l 463 817 l 386 913 l 308 817 l 154 817 m 572 953 l 422 1132 l 424 1136 l 608 1136 l 718 953 l 572 953 z "},"ẩ":{"ha":772,"x_min":40,"x_max":760,"o":"m 40 0 m 267 -17 q 111 28 182 -17 q 40 189 40 72 q 156 388 40 329 q 482 447 271 447 l 482 499 q 460 574 482 547 q 379 600 439 600 q 288 581 315 600 q 261 535 261 561 l 261 514 l 78 514 q 76 544 76 522 q 158 692 76 636 q 374 747 239 747 q 598 686 524 747 q 672 510 672 625 l 672 188 q 686 151 672 163 q 721 139 700 139 l 760 139 l 760 6 q 650 -17 715 -17 q 555 8 593 -17 q 503 79 517 33 l 494 79 q 402 8 454 32 q 267 -17 350 -17 m 326 133 q 444 178 407 133 q 482 299 482 224 l 482 321 q 233 210 233 321 q 256 154 233 175 q 326 133 279 133 m 154 817 l 301 1004 l 471 1004 l 617 817 l 463 817 l 386 913 l 308 817 l 154 817 m 543 1028 l 563 1028 q 597 1034 588 1028 q 607 1054 607 1040 q 595 1075 607 1069 q 558 1081 583 1081 l 478 1081 l 478 1142 q 593 1153 531 1153 q 706 1134 657 1153 q 756 1068 756 1115 q 722 1010 756 1031 q 638 988 689 990 l 638 953 l 543 953 l 543 1028 z "},"ẫ":{"ha":772,"x_min":40,"x_max":760,"o":"m 40 0 m 267 -17 q 111 28 182 -17 q 40 189 40 72 q 156 388 40 329 q 482 447 271 447 l 482 499 q 460 574 482 547 q 379 600 439 600 q 288 581 315 600 q 261 535 261 561 l 261 514 l 78 514 q 76 544 76 522 q 158 692 76 636 q 374 747 239 747 q 598 686 524 747 q 672 510 672 625 l 672 188 q 686 151 672 163 q 721 139 700 139 l 760 139 l 760 6 q 650 -17 715 -17 q 555 8 593 -17 q 503 79 517 33 l 494 79 q 402 8 454 32 q 267 -17 350 -17 m 326 133 q 444 178 407 133 q 482 299 482 224 l 482 321 q 233 210 233 321 q 256 154 233 175 q 326 133 279 133 m 154 817 l 301 1004 l 471 1004 l 617 817 l 463 817 l 386 913 l 308 817 l 154 817 m 156 1057 q 190 1178 156 1131 q 292 1226 224 1226 q 333 1220 314 1226 q 388 1200 353 1214 q 436 1181 417 1188 q 476 1175 456 1175 q 509 1187 497 1175 q 525 1226 521 1199 l 622 1226 q 588 1105 622 1153 q 485 1057 554 1057 q 444 1063 463 1057 q 390 1083 425 1069 q 342 1102 361 1096 q 301 1108 322 1108 q 253 1057 260 1108 l 156 1057 z "},"ȁ":{"ha":772,"x_min":40,"x_max":760,"o":"m 40 0 m 267 -17 q 111 28 182 -17 q 40 189 40 72 q 156 388 40 329 q 482 447 271 447 l 482 499 q 460 574 482 547 q 379 600 439 600 q 288 581 315 600 q 261 535 261 561 l 261 514 l 78 514 q 76 544 76 522 q 158 692 76 636 q 374 747 239 747 q 598 686 524 747 q 672 510 672 625 l 672 188 q 686 151 672 163 q 721 139 700 139 l 760 139 l 760 6 q 650 -17 715 -17 q 555 8 593 -17 q 503 79 517 33 l 494 79 q 402 8 454 32 q 267 -17 350 -17 m 326 133 q 444 178 407 133 q 482 299 482 224 l 482 321 q 233 210 233 321 q 256 154 233 175 q 326 133 279 133 m 219 821 l 69 1000 l 71 1004 l 256 1004 l 365 821 l 219 821 m 463 821 l 313 1000 l 314 1004 l 499 1004 l 608 821 l 463 821 z "},"ä":{"ha":772,"x_min":40,"x_max":760,"o":"m 40 0 m 267 -17 q 111 28 182 -17 q 40 189 40 72 q 156 388 40 329 q 482 447 271 447 l 482 499 q 460 574 482 547 q 379 600 439 600 q 288 581 315 600 q 261 535 261 561 l 261 514 l 78 514 q 76 544 76 522 q 158 692 76 636 q 374 747 239 747 q 598 686 524 747 q 672 510 672 625 l 672 188 q 686 151 672 163 q 721 139 700 139 l 760 139 l 760 6 q 650 -17 715 -17 q 555 8 593 -17 q 503 79 517 33 l 494 79 q 402 8 454 32 q 267 -17 350 -17 m 326 133 q 444 178 407 133 q 482 299 482 224 l 482 321 q 233 210 233 321 q 256 154 233 175 q 326 133 279 133 m 158 840 l 158 1004 l 322 1004 l 322 840 l 158 840 m 450 840 l 450 1004 l 615 1004 l 615 840 l 450 840 z "},"ạ":{"ha":772,"x_min":40,"x_max":760,"o":"m 40 0 m 267 -17 q 111 28 182 -17 q 40 189 40 72 q 156 388 40 329 q 482 447 271 447 l 482 499 q 460 574 482 547 q 379 600 439 600 q 288 581 315 600 q 261 535 261 561 l 261 514 l 78 514 q 76 544 76 522 q 158 692 76 636 q 374 747 239 747 q 598 686 524 747 q 672 510 672 625 l 672 188 q 686 151 672 163 q 721 139 700 139 l 760 139 l 760 6 q 650 -17 715 -17 q 555 8 593 -17 q 503 79 517 33 l 494 79 q 402 8 454 32 q 267 -17 350 -17 m 326 133 q 444 178 407 133 q 482 299 482 224 l 482 321 q 233 210 233 321 q 256 154 233 175 q 326 133 279 133 m 292 -240 l 292 -60 l 479 -60 l 479 -240 l 292 -240 z "},"à":{"ha":772,"x_min":40,"x_max":760,"o":"m 40 0 m 267 -17 q 111 28 182 -17 q 40 189 40 72 q 156 388 40 329 q 482 447 271 447 l 482 499 q 460 574 482 547 q 379 600 439 600 q 288 581 315 600 q 261 535 261 561 l 261 514 l 78 514 q 76 544 76 522 q 158 692 76 636 q 374 747 239 747 q 598 686 524 747 q 672 510 672 625 l 672 188 q 686 151 672 163 q 721 139 700 139 l 760 139 l 760 6 q 650 -17 715 -17 q 555 8 593 -17 q 503 79 517 33 l 494 79 q 402 8 454 32 q 267 -17 350 -17 m 326 133 q 444 178 407 133 q 482 299 482 224 l 482 321 q 233 210 233 321 q 256 154 233 175 q 326 133 279 133 m 313 821 l 163 1000 l 164 1004 l 349 1004 l 458 821 l 313 821 z "},"ả":{"ha":772,"x_min":40,"x_max":760,"o":"m 40 0 m 267 -17 q 111 28 182 -17 q 40 189 40 72 q 156 388 40 329 q 482 447 271 447 l 482 499 q 460 574 482 547 q 379 600 439 600 q 288 581 315 600 q 261 535 261 561 l 261 514 l 78 514 q 76 544 76 522 q 158 692 76 636 q 374 747 239 747 q 598 686 524 747 q 672 510 672 625 l 672 188 q 686 151 672 163 q 721 139 700 139 l 760 139 l 760 6 q 650 -17 715 -17 q 555 8 593 -17 q 503 79 517 33 l 494 79 q 402 8 454 32 q 267 -17 350 -17 m 326 133 q 444 178 407 133 q 482 299 482 224 l 482 321 q 233 210 233 321 q 256 154 233 175 q 326 133 279 133 m 339 896 l 358 896 q 393 902 383 896 q 403 922 403 908 q 391 943 403 938 q 354 949 379 949 l 274 949 l 274 1010 q 389 1021 326 1021 q 502 1002 453 1021 q 551 936 551 983 q 518 878 551 899 q 433 856 485 858 l 433 821 l 339 821 l 339 896 z "},"ȃ":{"ha":772,"x_min":40,"x_max":760,"o":"m 40 0 m 267 -17 q 111 28 182 -17 q 40 189 40 72 q 156 388 40 329 q 482 447 271 447 l 482 499 q 460 574 482 547 q 379 600 439 600 q 288 581 315 600 q 261 535 261 561 l 261 514 l 78 514 q 76 544 76 522 q 158 692 76 636 q 374 747 239 747 q 598 686 524 747 q 672 510 672 625 l 672 188 q 686 151 672 163 q 721 139 700 139 l 760 139 l 760 6 q 650 -17 715 -17 q 555 8 593 -17 q 503 79 517 33 l 494 79 q 402 8 454 32 q 267 -17 350 -17 m 326 133 q 444 178 407 133 q 482 299 482 224 l 482 321 q 233 210 233 321 q 256 154 233 175 q 326 133 279 133 m 161 814 q 185 905 161 861 q 258 976 208 949 q 385 1004 308 1004 q 512 976 461 1004 q 586 905 563 949 q 610 814 610 861 l 485 814 q 456 860 482 839 q 385 881 429 881 q 315 860 340 881 q 286 814 290 839 l 161 814 z "},"ā":{"ha":772,"x_min":40,"x_max":760,"o":"m 40 0 m 267 -17 q 111 28 182 -17 q 40 189 40 72 q 156 388 40 329 q 482 447 271 447 l 482 499 q 460 574 482 547 q 379 600 439 600 q 288 581 315 600 q 261 535 261 561 l 261 514 l 78 514 q 76 544 76 522 q 158 692 76 636 q 374 747 239 747 q 598 686 524 747 q 672 510 672 625 l 672 188 q 686 151 672 163 q 721 139 700 139 l 760 139 l 760 6 q 650 -17 715 -17 q 555 8 593 -17 q 503 79 517 33 l 494 79 q 402 8 454 32 q 267 -17 350 -17 m 326 133 q 444 178 407 133 q 482 299 482 224 l 482 321 q 233 210 233 321 q 256 154 233 175 q 326 133 279 133 m 174 849 l 174 971 l 597 971 l 597 849 l 174 849 z "},"ą":{"ha":772,"x_min":40,"x_max":760,"o":"m 661 -253 q 555 -227 596 -253 q 514 -144 514 -201 q 599 -10 514 -69 q 538 22 563 -1 q 503 79 514 44 l 494 79 q 402 8 454 32 q 267 -17 350 -17 q 111 28 182 -17 q 40 189 40 72 q 156 388 40 329 q 482 447 271 447 l 482 499 q 460 574 482 547 q 379 600 439 600 q 288 581 315 600 q 261 535 261 561 l 261 514 l 78 514 q 76 544 76 522 q 158 692 76 636 q 374 747 239 747 q 598 686 524 747 q 672 510 672 625 l 672 188 q 686 151 672 163 q 721 139 700 139 l 760 139 l 760 6 q 660 -100 660 -50 q 726 -157 660 -157 l 760 -157 l 760 -233 q 726 -244 760 -235 q 661 -253 692 -253 m 326 133 q 444 178 407 133 q 482 299 482 224 l 482 321 q 233 210 233 321 q 256 154 233 175 q 326 133 279 133 z "},"å":{"ha":772,"x_min":40,"x_max":760,"o":"m 40 0 m 267 -17 q 111 28 182 -17 q 40 189 40 72 q 156 388 40 329 q 482 447 271 447 l 482 499 q 460 574 482 547 q 379 600 439 600 q 288 581 315 600 q 261 535 261 561 l 261 514 l 78 514 q 76 544 76 522 q 158 692 76 636 q 374 747 239 747 q 598 686 524 747 q 672 510 672 625 l 672 188 q 686 151 672 163 q 721 139 700 139 l 760 139 l 760 6 q 650 -17 715 -17 q 555 8 593 -17 q 503 79 517 33 l 494 79 q 402 8 454 32 q 267 -17 350 -17 m 326 133 q 444 178 407 133 q 482 299 482 224 l 482 321 q 233 210 233 321 q 256 154 233 175 q 326 133 279 133 m 386 772 q 284 813 322 772 q 246 913 246 853 q 284 1013 246 972 q 386 1053 322 1053 q 488 1013 450 1053 q 526 913 526 972 q 488 813 526 853 q 386 772 450 772 m 386 851 q 430 869 413 851 q 447 913 447 886 q 430 956 447 939 q 386 974 413 974 q 342 956 358 974 q 325 913 325 939 q 342 869 325 886 q 386 851 358 851 z "},"ǻ":{"ha":772,"x_min":40,"x_max":760,"o":"m 40 0 m 267 -17 q 111 28 182 -17 q 40 189 40 72 q 156 388 40 329 q 482 447 271 447 l 482 499 q 460 574 482 547 q 379 600 439 600 q 288 581 315 600 q 261 535 261 561 l 261 514 l 78 514 q 76 544 76 522 q 158 692 76 636 q 374 747 239 747 q 598 686 524 747 q 672 510 672 625 l 672 188 q 686 151 672 163 q 721 139 700 139 l 760 139 l 760 6 q 650 -17 715 -17 q 555 8 593 -17 q 503 79 517 33 l 494 79 q 402 8 454 32 q 267 -17 350 -17 m 326 133 q 444 178 407 133 q 482 299 482 224 l 482 321 q 233 210 233 321 q 256 154 233 175 q 326 133 279 133 m 386 772 q 284 813 322 772 q 246 913 246 853 q 284 1013 246 972 q 386 1053 322 1053 q 488 1013 450 1053 q 526 913 526 972 q 488 813 526 853 q 386 772 450 772 m 386 851 q 430 869 413 851 q 447 913 447 886 q 430 956 447 939 q 386 974 413 974 q 342 956 358 974 q 325 913 325 939 q 342 869 325 886 q 386 851 358 851 m 313 1079 l 422 1263 l 607 1263 l 608 1258 l 458 1079 l 313 1079 z "},"ã":{"ha":772,"x_min":40,"x_max":760,"o":"m 40 0 m 267 -17 q 111 28 182 -17 q 40 189 40 72 q 156 388 40 329 q 482 447 271 447 l 482 499 q 460 574 482 547 q 379 600 439 600 q 288 581 315 600 q 261 535 261 561 l 261 514 l 78 514 q 76 544 76 522 q 158 692 76 636 q 374 747 239 747 q 598 686 524 747 q 672 510 672 625 l 672 188 q 686 151 672 163 q 721 139 700 139 l 760 139 l 760 6 q 650 -17 715 -17 q 555 8 593 -17 q 503 79 517 33 l 494 79 q 402 8 454 32 q 267 -17 350 -17 m 326 133 q 444 178 407 133 q 482 299 482 224 l 482 321 q 233 210 233 321 q 256 154 233 175 q 326 133 279 133 m 153 835 q 187 956 153 908 q 289 1004 221 1004 q 331 998 311 1004 q 385 978 350 992 q 433 959 414 965 q 474 953 453 953 q 506 965 494 953 q 522 1004 518 976 l 619 1004 q 585 883 619 931 q 482 835 551 835 q 441 841 460 835 q 388 861 422 847 q 339 880 358 874 q 299 886 319 886 q 250 835 257 886 l 153 835 z "},"æ":{"ha":1235,"x_min":40,"x_max":1186,"o":"m 322 -17 q 129 28 218 -17 q 40 189 40 72 q 163 388 40 329 q 515 447 286 447 l 515 499 q 490 574 515 547 q 393 600 465 600 q 292 581 322 600 q 261 535 261 561 l 261 514 l 78 514 q 76 544 76 522 q 162 692 76 636 q 388 747 247 747 q 631 676 549 747 q 863 747 717 747 q 1106 653 1025 747 q 1186 365 1186 560 l 1186 321 l 706 321 q 744 177 708 224 q 865 131 781 131 q 962 164 925 131 q 999 258 999 197 l 1186 258 q 1097 52 1186 121 q 863 -17 1008 -17 q 597 78 683 -17 q 483 8 549 32 q 322 -17 418 -17 m 989 447 q 863 599 989 599 q 753 561 790 599 q 708 447 717 524 l 989 447 m 340 133 q 473 178 431 133 q 515 299 515 224 l 515 321 q 233 210 233 321 q 260 154 233 175 q 340 133 286 133 z "},"ǽ":{"ha":1235,"x_min":40,"x_max":1186,"o":"m 40 0 m 322 -17 q 129 28 218 -17 q 40 189 40 72 q 163 388 40 329 q 515 447 286 447 l 515 499 q 490 574 515 547 q 393 600 465 600 q 292 581 322 600 q 261 535 261 561 l 261 514 l 78 514 q 76 544 76 522 q 162 692 76 636 q 388 747 247 747 q 631 676 549 747 q 863 747 717 747 q 1106 653 1025 747 q 1186 365 1186 560 l 1186 321 l 706 321 q 744 177 708 224 q 865 131 781 131 q 962 164 925 131 q 999 258 999 197 l 1186 258 q 1097 52 1186 121 q 863 -17 1008 -17 q 597 78 683 -17 q 483 8 549 32 q 322 -17 418 -17 m 989 447 q 863 599 989 599 q 753 561 790 599 q 708 447 717 524 l 989 447 m 340 133 q 473 178 431 133 q 515 299 515 224 l 515 321 q 233 210 233 321 q 260 154 233 175 q 340 133 286 133 m 544 821 l 654 1004 l 839 1004 l 840 1000 l 690 821 l 544 821 z "},"b":{"ha":849,"x_min":99,"x_max":797,"o":"m 506 -17 q 376 12 435 -17 q 283 96 318 40 l 274 96 l 261 0 l 99 0 l 99 1004 l 289 1004 l 289 646 l 297 646 q 385 721 329 694 q 515 747 442 747 q 720 651 643 747 q 797 367 797 556 q 721 78 797 174 q 506 -17 644 -17 m 444 149 q 565 199 529 149 q 601 353 601 250 l 601 378 q 565 531 601 481 q 444 582 529 582 q 289 375 289 582 l 289 353 q 444 149 289 149 z "},"c":{"ha":772,"x_min":53,"x_max":721,"o":"m 401 -17 q 140 76 226 -17 q 53 365 53 169 q 140 653 53 560 q 401 747 226 747 q 634 673 547 747 q 721 456 721 599 l 529 456 q 494 558 529 522 q 397 594 460 594 q 283 540 319 594 q 246 376 246 485 l 246 354 q 284 191 246 246 q 407 136 322 136 q 502 173 467 136 q 538 275 538 210 l 721 275 q 635 58 721 132 q 401 -17 549 -17 z "},"ć":{"ha":772,"x_min":53,"x_max":721,"o":"m 53 0 m 401 -17 q 140 76 226 -17 q 53 365 53 169 q 140 653 53 560 q 401 747 226 747 q 634 673 547 747 q 721 456 721 599 l 529 456 q 494 558 529 522 q 397 594 460 594 q 283 540 319 594 q 246 376 246 485 l 246 354 q 284 191 246 246 q 407 136 322 136 q 502 173 467 136 q 538 275 538 210 l 721 275 q 635 58 721 132 q 401 -17 549 -17 m 313 821 l 422 1004 l 607 1004 l 608 1000 l 458 821 l 313 821 z "},"č":{"ha":772,"x_min":53,"x_max":721,"o":"m 53 0 m 401 -17 q 140 76 226 -17 q 53 365 53 169 q 140 653 53 560 q 401 747 226 747 q 634 673 547 747 q 721 456 721 599 l 529 456 q 494 558 529 522 q 397 594 460 594 q 283 540 319 594 q 246 376 246 485 l 246 354 q 284 191 246 246 q 407 136 322 136 q 502 173 467 136 q 538 275 538 210 l 721 275 q 635 58 721 132 q 401 -17 549 -17 m 301 817 l 154 1004 l 308 1004 l 386 908 l 463 1004 l 617 1004 l 471 817 l 301 817 z "},"ç":{"ha":772,"x_min":53,"x_max":721,"o":"m 407 136 q 502 173 467 136 q 538 275 538 210 l 721 275 q 646 68 721 142 q 440 -15 571 -6 l 436 -46 q 535 -72 497 -49 q 572 -140 572 -96 q 515 -228 572 -203 q 383 -253 457 -253 q 239 -242 306 -253 l 239 -174 l 361 -174 q 408 -167 393 -174 q 424 -140 424 -160 q 410 -115 424 -124 q 365 -107 397 -107 l 308 -107 l 322 -11 q 120 101 188 8 q 53 365 53 193 q 140 653 53 560 q 401 747 226 747 q 634 673 547 747 q 721 456 721 599 l 529 456 q 494 558 529 522 q 397 594 460 594 q 283 540 319 594 q 246 376 246 485 l 246 354 q 284 191 246 246 q 407 136 322 136 z "},"ĉ":{"ha":772,"x_min":53,"x_max":721,"o":"m 53 0 m 401 -17 q 140 76 226 -17 q 53 365 53 169 q 140 653 53 560 q 401 747 226 747 q 634 673 547 747 q 721 456 721 599 l 529 456 q 494 558 529 522 q 397 594 460 594 q 283 540 319 594 q 246 376 246 485 l 246 354 q 284 191 246 246 q 407 136 322 136 q 502 173 467 136 q 538 275 538 210 l 721 275 q 635 58 721 132 q 401 -17 549 -17 m 154 817 l 301 1004 l 471 1004 l 617 817 l 463 817 l 386 913 l 308 817 l 154 817 z "},"ċ":{"ha":772,"x_min":53,"x_max":721,"o":"m 53 0 m 401 -17 q 140 76 226 -17 q 53 365 53 169 q 140 653 53 560 q 401 747 226 747 q 634 673 547 747 q 721 456 721 599 l 529 456 q 494 558 529 522 q 397 594 460 594 q 283 540 319 594 q 246 376 246 485 l 246 354 q 284 191 246 246 q 407 136 322 136 q 502 173 467 136 q 538 275 538 210 l 721 275 q 635 58 721 132 q 401 -17 549 -17 m 292 825 l 292 1006 l 479 1006 l 479 825 l 292 825 z "},"d":{"ha":849,"x_min":51,"x_max":750,"o":"m 343 -17 q 128 78 204 -17 q 51 367 51 174 q 128 651 51 556 q 333 747 206 747 q 463 721 407 747 q 551 646 519 694 l 560 646 l 560 1004 l 750 1004 l 750 0 l 588 0 l 575 96 l 565 96 q 472 12 531 40 q 343 -17 414 -17 m 404 149 q 560 353 560 149 l 560 375 q 404 582 560 582 q 283 531 319 582 q 247 378 247 481 l 247 353 q 283 199 247 250 q 404 149 319 149 z "},"ð":{"ha":849,"x_min":53,"x_max":796,"o":"m 424 -17 q 145 76 238 -17 q 53 360 53 168 q 131 634 53 535 q 354 733 208 733 q 479 707 419 733 l 486 713 q 401 826 449 769 l 171 810 l 171 911 l 311 921 q 222 997 283 947 l 228 1004 l 451 1004 q 535 936 500 968 l 756 953 l 756 851 l 628 842 q 755 620 714 739 q 796 360 796 501 q 703 75 796 167 q 424 -17 611 -17 m 424 139 q 558 191 517 139 q 600 349 600 243 l 600 371 q 558 526 600 475 q 424 578 517 578 q 290 526 331 578 q 249 371 249 475 l 249 349 q 290 191 249 243 q 424 139 331 139 z "},"ď":{"ha":999,"x_min":51,"x_max":1015,"o":"m 343 -17 q 128 78 204 -17 q 51 367 51 174 q 128 651 51 556 q 333 747 206 747 q 463 721 407 747 q 551 646 519 694 l 560 646 l 560 1004 l 750 1004 l 750 0 l 588 0 l 575 96 l 565 96 q 472 12 531 40 q 343 -17 414 -17 m 824 614 l 900 776 l 824 776 l 824 953 l 1015 953 l 1015 793 l 924 614 l 824 614 m 404 149 q 560 353 560 149 l 560 375 q 404 582 560 582 q 283 531 319 582 q 247 378 247 481 l 247 353 q 283 199 247 250 q 404 149 319 149 z "},"đ":{"ha":849,"x_min":51,"x_max":831,"o":"m 831 815 l 750 815 l 750 0 l 588 0 l 575 96 l 565 96 q 472 12 531 40 q 343 -17 414 -17 q 128 78 204 -17 q 51 367 51 174 q 128 651 51 556 q 333 747 206 747 q 463 721 407 747 q 551 646 519 694 l 560 646 l 560 815 l 346 815 l 346 914 l 560 914 l 560 1004 l 750 1004 l 750 914 l 831 914 l 831 815 m 560 375 q 404 582 560 582 q 283 531 319 582 q 247 378 247 481 l 247 353 q 283 199 247 250 q 404 149 319 149 q 560 353 560 149 l 560 375 z "},"ḍ":{"ha":849,"x_min":51,"x_max":750,"o":"m 51 0 m 343 -17 q 128 78 204 -17 q 51 367 51 174 q 128 651 51 556 q 333 747 206 747 q 463 721 407 747 q 551 646 519 694 l 560 646 l 560 1004 l 750 1004 l 750 0 l 588 0 l 575 96 l 565 96 q 472 12 531 40 q 343 -17 414 -17 m 404 149 q 560 353 560 149 l 560 375 q 404 582 560 582 q 283 531 319 582 q 247 378 247 481 l 247 353 q 283 199 247 250 q 404 149 319 149 m 331 -240 l 331 -60 l 518 -60 l 518 -240 l 331 -240 z "},"ǳ":{"ha":1543,"x_min":51,"x_max":1513,"o":"m 51 0 m 343 -17 q 128 78 204 -17 q 51 367 51 174 q 128 651 51 556 q 333 747 206 747 q 463 721 407 747 q 551 646 519 694 l 560 646 l 560 1004 l 750 1004 l 750 0 l 588 0 l 575 96 l 565 96 q 472 12 531 40 q 343 -17 414 -17 m 404 149 q 560 353 560 149 l 560 375 q 404 582 560 582 q 283 531 319 582 q 247 378 247 481 l 247 353 q 283 199 247 250 q 404 149 319 149 m 878 0 l 878 85 l 1224 575 l 899 575 l 899 731 l 1500 731 l 1500 647 l 1153 156 l 1513 156 l 1513 0 l 878 0 z "},"ǆ":{"ha":1543,"x_min":51,"x_max":1513,"o":"m 51 0 m 343 -17 q 128 78 204 -17 q 51 367 51 174 q 128 651 51 556 q 333 747 206 747 q 463 721 407 747 q 551 646 519 694 l 560 646 l 560 1004 l 750 1004 l 750 0 l 588 0 l 575 96 l 565 96 q 472 12 531 40 q 343 -17 414 -17 m 404 149 q 560 353 560 149 l 560 375 q 404 582 560 582 q 283 531 319 582 q 247 378 247 481 l 247 353 q 283 199 247 250 q 404 149 319 149 m 878 0 l 878 85 l 1224 575 l 899 575 l 899 731 l 1500 731 l 1500 647 l 1153 156 l 1513 156 l 1513 0 l 878 0 m 1111 817 l 964 1004 l 1118 1004 l 1196 908 l 1272 1004 l 1426 1004 l 1281 817 l 1111 817 z "},"e":{"ha":772,"x_min":50,"x_max":724,"o":"m 400 -17 q 137 76 224 -17 q 50 365 50 169 q 137 654 50 561 q 400 747 224 747 q 643 653 563 747 q 724 365 724 560 l 724 321 l 243 321 q 282 177 246 224 q 403 131 318 131 q 499 164 463 131 q 536 258 536 197 l 724 258 q 635 52 724 121 q 400 -17 546 -17 m 526 447 q 400 599 526 599 q 291 561 328 599 q 246 447 254 524 l 526 447 z "},"é":{"ha":772,"x_min":50,"x_max":724,"o":"m 50 0 m 400 -17 q 137 76 224 -17 q 50 365 50 169 q 137 654 50 561 q 400 747 224 747 q 643 653 563 747 q 724 365 724 560 l 724 321 l 243 321 q 282 177 246 224 q 403 131 318 131 q 499 164 463 131 q 536 258 536 197 l 724 258 q 635 52 724 121 q 400 -17 546 -17 m 526 447 q 400 599 526 599 q 291 561 328 599 q 246 447 254 524 l 526 447 m 313 821 l 422 1004 l 607 1004 l 608 1000 l 458 821 l 313 821 z "},"ĕ":{"ha":772,"x_min":50,"x_max":724,"o":"m 50 0 m 400 -17 q 137 76 224 -17 q 50 365 50 169 q 137 654 50 561 q 400 747 224 747 q 643 653 563 747 q 724 365 724 560 l 724 321 l 243 321 q 282 177 246 224 q 403 131 318 131 q 499 164 463 131 q 536 258 536 197 l 724 258 q 635 52 724 121 q 400 -17 546 -17 m 526 447 q 400 599 526 599 q 291 561 328 599 q 246 447 254 524 l 526 447 m 385 814 q 258 842 308 814 q 185 913 208 869 q 161 1004 161 957 l 286 1004 q 315 958 290 979 q 385 938 340 938 q 456 958 429 938 q 485 1004 482 979 l 610 1004 q 586 913 610 957 q 512 842 563 869 q 385 814 461 814 z "},"ě":{"ha":772,"x_min":50,"x_max":724,"o":"m 50 0 m 400 -17 q 137 76 224 -17 q 50 365 50 169 q 137 654 50 561 q 400 747 224 747 q 643 653 563 747 q 724 365 724 560 l 724 321 l 243 321 q 282 177 246 224 q 403 131 318 131 q 499 164 463 131 q 536 258 536 197 l 724 258 q 635 52 724 121 q 400 -17 546 -17 m 526 447 q 400 599 526 599 q 291 561 328 599 q 246 447 254 524 l 526 447 m 301 817 l 154 1004 l 308 1004 l 386 908 l 463 1004 l 617 1004 l 471 817 l 301 817 z "},"ê":{"ha":772,"x_min":50,"x_max":724,"o":"m 50 0 m 400 -17 q 137 76 224 -17 q 50 365 50 169 q 137 654 50 561 q 400 747 224 747 q 643 653 563 747 q 724 365 724 560 l 724 321 l 243 321 q 282 177 246 224 q 403 131 318 131 q 499 164 463 131 q 536 258 536 197 l 724 258 q 635 52 724 121 q 400 -17 546 -17 m 526 447 q 400 599 526 599 q 291 561 328 599 q 246 447 254 524 l 526 447 m 154 817 l 301 1004 l 471 1004 l 617 817 l 463 817 l 386 913 l 308 817 l 154 817 z "},"ế":{"ha":772,"x_min":50,"x_max":813,"o":"m 50 0 m 400 -17 q 137 76 224 -17 q 50 365 50 169 q 137 654 50 561 q 400 747 224 747 q 643 653 563 747 q 724 365 724 560 l 724 321 l 243 321 q 282 177 246 224 q 403 131 318 131 q 499 164 463 131 q 536 258 536 197 l 724 258 q 635 52 724 121 q 400 -17 546 -17 m 526 447 q 400 599 526 599 q 291 561 328 599 q 246 447 254 524 l 526 447 m 154 817 l 301 1004 l 471 1004 l 617 817 l 463 817 l 386 913 l 308 817 l 154 817 m 517 953 l 626 1136 l 811 1136 l 813 1132 l 663 953 l 517 953 z "},"ệ":{"ha":772,"x_min":50,"x_max":724,"o":"m 50 0 m 400 -17 q 137 76 224 -17 q 50 365 50 169 q 137 654 50 561 q 400 747 224 747 q 643 653 563 747 q 724 365 724 560 l 724 321 l 243 321 q 282 177 246 224 q 403 131 318 131 q 499 164 463 131 q 536 258 536 197 l 724 258 q 635 52 724 121 q 400 -17 546 -17 m 526 447 q 400 599 526 599 q 291 561 328 599 q 246 447 254 524 l 526 447 m 154 817 l 301 1004 l 471 1004 l 617 817 l 463 817 l 386 913 l 308 817 l 154 817 m 292 -240 l 292 -60 l 479 -60 l 479 -240 l 292 -240 z "},"ề":{"ha":772,"x_min":50,"x_max":724,"o":"m 50 0 m 400 -17 q 137 76 224 -17 q 50 365 50 169 q 137 654 50 561 q 400 747 224 747 q 643 653 563 747 q 724 365 724 560 l 724 321 l 243 321 q 282 177 246 224 q 403 131 318 131 q 499 164 463 131 q 536 258 536 197 l 724 258 q 635 52 724 121 q 400 -17 546 -17 m 526 447 q 400 599 526 599 q 291 561 328 599 q 246 447 254 524 l 526 447 m 154 817 l 301 1004 l 471 1004 l 617 817 l 463 817 l 386 913 l 308 817 l 154 817 m 572 953 l 422 1132 l 424 1136 l 608 1136 l 718 953 l 572 953 z "},"ể":{"ha":772,"x_min":50,"x_max":756,"o":"m 50 0 m 400 -17 q 137 76 224 -17 q 50 365 50 169 q 137 654 50 561 q 400 747 224 747 q 643 653 563 747 q 724 365 724 560 l 724 321 l 243 321 q 282 177 246 224 q 403 131 318 131 q 499 164 463 131 q 536 258 536 197 l 724 258 q 635 52 724 121 q 400 -17 546 -17 m 526 447 q 400 599 526 599 q 291 561 328 599 q 246 447 254 524 l 526 447 m 154 817 l 301 1004 l 471 1004 l 617 817 l 463 817 l 386 913 l 308 817 l 154 817 m 543 1028 l 563 1028 q 597 1034 588 1028 q 607 1054 607 1040 q 595 1075 607 1069 q 558 1081 583 1081 l 478 1081 l 478 1142 q 593 1153 531 1153 q 706 1134 657 1153 q 756 1068 756 1115 q 722 1010 756 1031 q 638 988 689 990 l 638 953 l 543 953 l 543 1028 z "},"ễ":{"ha":772,"x_min":50,"x_max":724,"o":"m 50 0 m 400 -17 q 137 76 224 -17 q 50 365 50 169 q 137 654 50 561 q 400 747 224 747 q 643 653 563 747 q 724 365 724 560 l 724 321 l 243 321 q 282 177 246 224 q 403 131 318 131 q 499 164 463 131 q 536 258 536 197 l 724 258 q 635 52 724 121 q 400 -17 546 -17 m 526 447 q 400 599 526 599 q 291 561 328 599 q 246 447 254 524 l 526 447 m 154 817 l 301 1004 l 471 1004 l 617 817 l 463 817 l 386 913 l 308 817 l 154 817 m 156 1057 q 190 1178 156 1131 q 292 1226 224 1226 q 333 1220 314 1226 q 388 1200 353 1214 q 436 1181 417 1188 q 476 1175 456 1175 q 509 1187 497 1175 q 525 1226 521 1199 l 622 1226 q 588 1105 622 1153 q 485 1057 554 1057 q 444 1063 463 1057 q 390 1083 425 1069 q 342 1102 361 1096 q 301 1108 322 1108 q 253 1057 260 1108 l 156 1057 z "},"ȅ":{"ha":772,"x_min":50,"x_max":724,"o":"m 50 0 m 400 -17 q 137 76 224 -17 q 50 365 50 169 q 137 654 50 561 q 400 747 224 747 q 643 653 563 747 q 724 365 724 560 l 724 321 l 243 321 q 282 177 246 224 q 403 131 318 131 q 499 164 463 131 q 536 258 536 197 l 724 258 q 635 52 724 121 q 400 -17 546 -17 m 526 447 q 400 599 526 599 q 291 561 328 599 q 246 447 254 524 l 526 447 m 219 821 l 69 1000 l 71 1004 l 256 1004 l 365 821 l 219 821 m 463 821 l 313 1000 l 314 1004 l 499 1004 l 608 821 l 463 821 z "},"ë":{"ha":772,"x_min":50,"x_max":724,"o":"m 50 0 m 400 -17 q 137 76 224 -17 q 50 365 50 169 q 137 654 50 561 q 400 747 224 747 q 643 653 563 747 q 724 365 724 560 l 724 321 l 243 321 q 282 177 246 224 q 403 131 318 131 q 499 164 463 131 q 536 258 536 197 l 724 258 q 635 52 724 121 q 400 -17 546 -17 m 526 447 q 400 599 526 599 q 291 561 328 599 q 246 447 254 524 l 526 447 m 158 840 l 158 1004 l 322 1004 l 322 840 l 158 840 m 450 840 l 450 1004 l 615 1004 l 615 840 l 450 840 z "},"ė":{"ha":772,"x_min":50,"x_max":724,"o":"m 50 0 m 400 -17 q 137 76 224 -17 q 50 365 50 169 q 137 654 50 561 q 400 747 224 747 q 643 653 563 747 q 724 365 724 560 l 724 321 l 243 321 q 282 177 246 224 q 403 131 318 131 q 499 164 463 131 q 536 258 536 197 l 724 258 q 635 52 724 121 q 400 -17 546 -17 m 526 447 q 400 599 526 599 q 291 561 328 599 q 246 447 254 524 l 526 447 m 292 825 l 292 1006 l 479 1006 l 479 825 l 292 825 z "},"ẹ":{"ha":772,"x_min":50,"x_max":724,"o":"m 50 0 m 400 -17 q 137 76 224 -17 q 50 365 50 169 q 137 654 50 561 q 400 747 224 747 q 643 653 563 747 q 724 365 724 560 l 724 321 l 243 321 q 282 177 246 224 q 403 131 318 131 q 499 164 463 131 q 536 258 536 197 l 724 258 q 635 52 724 121 q 400 -17 546 -17 m 526 447 q 400 599 526 599 q 291 561 328 599 q 246 447 254 524 l 526 447 m 292 -240 l 292 -60 l 479 -60 l 479 -240 l 292 -240 z "},"è":{"ha":772,"x_min":50,"x_max":724,"o":"m 50 0 m 400 -17 q 137 76 224 -17 q 50 365 50 169 q 137 654 50 561 q 400 747 224 747 q 643 653 563 747 q 724 365 724 560 l 724 321 l 243 321 q 282 177 246 224 q 403 131 318 131 q 499 164 463 131 q 536 258 536 197 l 724 258 q 635 52 724 121 q 400 -17 546 -17 m 526 447 q 400 599 526 599 q 291 561 328 599 q 246 447 254 524 l 526 447 m 313 821 l 163 1000 l 164 1004 l 349 1004 l 458 821 l 313 821 z "},"ẻ":{"ha":772,"x_min":50,"x_max":724,"o":"m 50 0 m 400 -17 q 137 76 224 -17 q 50 365 50 169 q 137 654 50 561 q 400 747 224 747 q 643 653 563 747 q 724 365 724 560 l 724 321 l 243 321 q 282 177 246 224 q 403 131 318 131 q 499 164 463 131 q 536 258 536 197 l 724 258 q 635 52 724 121 q 400 -17 546 -17 m 526 447 q 400 599 526 599 q 291 561 328 599 q 246 447 254 524 l 526 447 m 339 896 l 358 896 q 393 902 383 896 q 403 922 403 908 q 391 943 403 938 q 354 949 379 949 l 274 949 l 274 1010 q 389 1021 326 1021 q 502 1002 453 1021 q 551 936 551 983 q 518 878 551 899 q 433 856 485 858 l 433 821 l 339 821 l 339 896 z "},"ȇ":{"ha":772,"x_min":50,"x_max":724,"o":"m 50 0 m 400 -17 q 137 76 224 -17 q 50 365 50 169 q 137 654 50 561 q 400 747 224 747 q 643 653 563 747 q 724 365 724 560 l 724 321 l 243 321 q 282 177 246 224 q 403 131 318 131 q 499 164 463 131 q 536 258 536 197 l 724 258 q 635 52 724 121 q 400 -17 546 -17 m 526 447 q 400 599 526 599 q 291 561 328 599 q 246 447 254 524 l 526 447 m 161 814 q 185 905 161 861 q 258 976 208 949 q 385 1004 308 1004 q 512 976 461 1004 q 586 905 563 949 q 610 814 610 861 l 485 814 q 456 860 482 839 q 385 881 429 881 q 315 860 340 881 q 286 814 290 839 l 161 814 z "},"ē":{"ha":772,"x_min":50,"x_max":724,"o":"m 50 0 m 400 -17 q 137 76 224 -17 q 50 365 50 169 q 137 654 50 561 q 400 747 224 747 q 643 653 563 747 q 724 365 724 560 l 724 321 l 243 321 q 282 177 246 224 q 403 131 318 131 q 499 164 463 131 q 536 258 536 197 l 724 258 q 635 52 724 121 q 400 -17 546 -17 m 526 447 q 400 599 526 599 q 291 561 328 599 q 246 447 254 524 l 526 447 m 174 849 l 174 971 l 597 971 l 597 849 l 174 849 z "},"ę":{"ha":772,"x_min":50,"x_max":724,"o":"m 624 -253 q 513 -220 557 -253 q 469 -115 469 -187 q 493 -3 469 -54 q 393 -17 447 -17 q 135 76 219 -17 q 50 365 50 169 q 137 654 50 561 q 400 747 224 747 q 643 653 563 747 q 724 365 724 560 l 724 321 l 243 321 q 282 177 246 224 q 403 131 318 131 q 499 164 463 131 q 536 258 536 197 l 724 258 q 650 65 724 139 q 625 19 635 49 q 615 -49 615 -10 q 700 -157 615 -157 l 722 -157 l 722 -233 q 624 -253 668 -253 m 526 447 q 400 599 526 599 q 291 561 328 599 q 246 447 254 524 l 526 447 z "},"ẽ":{"ha":772,"x_min":50,"x_max":724,"o":"m 50 0 m 400 -17 q 137 76 224 -17 q 50 365 50 169 q 137 654 50 561 q 400 747 224 747 q 643 653 563 747 q 724 365 724 560 l 724 321 l 243 321 q 282 177 246 224 q 403 131 318 131 q 499 164 463 131 q 536 258 536 197 l 724 258 q 635 52 724 121 q 400 -17 546 -17 m 526 447 q 400 599 526 599 q 291 561 328 599 q 246 447 254 524 l 526 447 m 153 835 q 187 956 153 908 q 289 1004 221 1004 q 331 998 311 1004 q 385 978 350 992 q 433 959 414 965 q 474 953 453 953 q 506 965 494 953 q 522 1004 518 976 l 619 1004 q 585 883 619 931 q 482 835 551 835 q 441 841 460 835 q 388 861 422 847 q 339 880 358 874 q 299 886 319 886 q 250 835 257 886 l 153 835 z "},"f":{"ha":463,"x_min":13,"x_max":436,"o":"m 117 575 l 13 575 l 13 731 l 117 731 l 117 814 q 163 958 117 900 q 314 1015 208 1015 q 378 1008 343 1015 q 436 993 413 1001 l 436 860 l 367 860 q 307 800 307 860 l 307 731 l 436 731 l 436 575 l 307 575 l 307 0 l 117 0 l 117 575 z "},"g":{"ha":849,"x_min":33,"x_max":833,"o":"m 215 -253 q 86 -206 139 -253 q 33 -85 33 -158 q 146 64 33 13 q 75 174 75 100 q 111 253 75 219 q 204 301 147 288 q 97 499 97 367 q 181 681 97 614 q 421 747 265 747 q 568 726 506 747 q 628 790 610 753 q 647 853 647 826 l 833 853 q 792 730 833 776 q 676 667 751 683 q 746 499 746 601 q 665 317 746 383 q 432 250 583 250 l 321 250 q 281 239 296 250 q 267 208 267 228 q 279 180 267 192 q 313 168 292 168 l 644 168 q 779 114 725 168 q 833 -28 833 60 q 797 -146 833 -94 q 699 -225 761 -197 q 561 -253 636 -253 l 215 -253 m 421 379 q 522 410 488 379 q 557 499 557 442 q 522 587 557 556 q 421 618 488 618 q 320 587 354 618 q 286 499 286 556 q 320 410 286 442 q 421 379 354 379 m 558 -121 q 618 -103 594 -121 q 642 -56 642 -85 q 620 -8 642 -25 q 567 8 599 8 l 299 8 q 247 -10 268 8 q 225 -56 225 -28 q 246 -103 225 -85 q 299 -121 267 -121 l 558 -121 z "},"ǵ":{"ha":849,"x_min":33,"x_max":833,"o":"m 33 0 m 215 -253 q 86 -206 139 -253 q 33 -85 33 -158 q 146 64 33 13 q 75 174 75 100 q 111 253 75 219 q 204 301 147 288 q 97 499 97 367 q 181 681 97 614 q 421 747 265 747 q 568 726 506 747 q 628 790 610 753 q 647 853 647 826 l 833 853 q 792 730 833 776 q 676 667 751 683 q 746 499 746 601 q 665 317 746 383 q 432 250 583 250 l 321 250 q 281 239 296 250 q 267 208 267 228 q 279 180 267 192 q 313 168 292 168 l 644 168 q 779 114 725 168 q 833 -28 833 60 q 797 -146 833 -94 q 699 -225 761 -197 q 561 -253 636 -253 l 215 -253 m 421 379 q 522 410 488 379 q 557 499 557 442 q 522 587 557 556 q 421 618 488 618 q 320 587 354 618 q 286 499 286 556 q 320 410 286 442 q 421 379 354 379 m 558 -121 q 618 -103 594 -121 q 642 -56 642 -85 q 620 -8 642 -25 q 567 8 599 8 l 299 8 q 247 -10 268 8 q 225 -56 225 -28 q 246 -103 225 -85 q 299 -121 267 -121 l 558 -121 m 351 821 l 461 1004 l 646 1004 l 647 1000 l 497 821 l 351 821 z "},"ğ":{"ha":849,"x_min":33,"x_max":833,"o":"m 33 0 m 215 -253 q 86 -206 139 -253 q 33 -85 33 -158 q 146 64 33 13 q 75 174 75 100 q 111 253 75 219 q 204 301 147 288 q 97 499 97 367 q 181 681 97 614 q 421 747 265 747 q 568 726 506 747 q 628 790 610 753 q 647 853 647 826 l 833 853 q 792 730 833 776 q 676 667 751 683 q 746 499 746 601 q 665 317 746 383 q 432 250 583 250 l 321 250 q 281 239 296 250 q 267 208 267 228 q 279 180 267 192 q 313 168 292 168 l 644 168 q 779 114 725 168 q 833 -28 833 60 q 797 -146 833 -94 q 699 -225 761 -197 q 561 -253 636 -253 l 215 -253 m 421 379 q 522 410 488 379 q 557 499 557 442 q 522 587 557 556 q 421 618 488 618 q 320 587 354 618 q 286 499 286 556 q 320 410 286 442 q 421 379 354 379 m 558 -121 q 618 -103 594 -121 q 642 -56 642 -85 q 620 -8 642 -25 q 567 8 599 8 l 299 8 q 247 -10 268 8 q 225 -56 225 -28 q 246 -103 225 -85 q 299 -121 267 -121 l 558 -121 m 424 814 q 297 842 347 814 q 224 913 247 869 q 200 1004 200 957 l 325 1004 q 354 958 329 979 q 424 938 379 938 q 494 958 468 938 q 524 1004 521 979 l 649 1004 q 625 913 649 957 q 551 842 601 869 q 424 814 500 814 z "},"ǧ":{"ha":849,"x_min":33,"x_max":833,"o":"m 33 0 m 215 -253 q 86 -206 139 -253 q 33 -85 33 -158 q 146 64 33 13 q 75 174 75 100 q 111 253 75 219 q 204 301 147 288 q 97 499 97 367 q 181 681 97 614 q 421 747 265 747 q 568 726 506 747 q 628 790 610 753 q 647 853 647 826 l 833 853 q 792 730 833 776 q 676 667 751 683 q 746 499 746 601 q 665 317 746 383 q 432 250 583 250 l 321 250 q 281 239 296 250 q 267 208 267 228 q 279 180 267 192 q 313 168 292 168 l 644 168 q 779 114 725 168 q 833 -28 833 60 q 797 -146 833 -94 q 699 -225 761 -197 q 561 -253 636 -253 l 215 -253 m 421 379 q 522 410 488 379 q 557 499 557 442 q 522 587 557 556 q 421 618 488 618 q 320 587 354 618 q 286 499 286 556 q 320 410 286 442 q 421 379 354 379 m 558 -121 q 618 -103 594 -121 q 642 -56 642 -85 q 620 -8 642 -25 q 567 8 599 8 l 299 8 q 247 -10 268 8 q 225 -56 225 -28 q 246 -103 225 -85 q 299 -121 267 -121 l 558 -121 m 340 817 l 193 1004 l 347 1004 l 425 908 l 501 1004 l 656 1004 l 510 817 l 340 817 z "},"ĝ":{"ha":849,"x_min":33,"x_max":833,"o":"m 201 817 l 343 1004 l 513 1004 l 653 817 l 499 817 l 428 913 l 356 817 l 201 817 m 215 -253 q 86 -206 139 -253 q 33 -85 33 -158 q 146 64 33 13 q 75 174 75 100 q 111 253 75 219 q 204 301 147 288 q 97 499 97 367 q 181 681 97 614 q 421 747 265 747 q 568 726 506 747 q 638 760 611 736 q 677 810 665 783 q 689 853 689 836 l 833 853 q 792 730 833 776 q 676 667 751 683 q 746 499 746 601 q 665 317 746 383 q 432 250 583 250 l 321 250 q 281 239 296 250 q 267 208 267 228 q 279 180 267 192 q 313 168 292 168 l 644 168 q 779 114 725 168 q 833 -28 833 60 q 797 -146 833 -94 q 699 -225 761 -197 q 561 -253 636 -253 l 215 -253 m 421 379 q 522 410 488 379 q 557 499 557 442 q 522 587 557 556 q 421 618 488 618 q 320 587 354 618 q 286 499 286 556 q 320 410 286 442 q 421 379 354 379 m 558 -121 q 618 -103 594 -121 q 642 -56 642 -85 q 620 -8 642 -25 q 567 8 599 8 l 299 8 q 247 -10 268 8 q 225 -56 225 -28 q 246 -103 225 -85 q 299 -121 267 -121 l 558 -121 z "},"ģ":{"ha":849,"x_min":33,"x_max":833,"o":"m 329 813 l 329 932 l 421 1083 l 521 1083 l 444 949 l 521 949 l 521 813 l 329 813 m 215 -253 q 86 -206 139 -253 q 33 -85 33 -158 q 146 64 33 13 q 75 174 75 100 q 111 253 75 219 q 204 301 147 288 q 97 499 97 367 q 181 681 97 614 q 421 747 265 747 q 568 726 506 747 q 628 790 610 753 q 647 853 647 826 l 833 853 q 792 730 833 776 q 676 667 751 683 q 746 499 746 601 q 665 317 746 383 q 432 250 583 250 l 321 250 q 281 239 296 250 q 267 208 267 228 q 279 180 267 192 q 313 168 292 168 l 644 168 q 779 114 725 168 q 833 -28 833 60 q 797 -146 833 -94 q 699 -225 761 -197 q 561 -253 636 -253 l 215 -253 m 421 379 q 522 410 488 379 q 557 499 557 442 q 522 587 557 556 q 421 618 488 618 q 320 587 354 618 q 286 499 286 556 q 320 410 286 442 q 421 379 354 379 m 558 -121 q 618 -103 594 -121 q 642 -56 642 -85 q 620 -8 642 -25 q 567 8 599 8 l 299 8 q 247 -10 268 8 q 225 -56 225 -28 q 246 -103 225 -85 q 299 -121 267 -121 l 558 -121 z "},"ġ":{"ha":849,"x_min":33,"x_max":833,"o":"m 33 0 m 215 -253 q 86 -206 139 -253 q 33 -85 33 -158 q 146 64 33 13 q 75 174 75 100 q 111 253 75 219 q 204 301 147 288 q 97 499 97 367 q 181 681 97 614 q 421 747 265 747 q 568 726 506 747 q 628 790 610 753 q 647 853 647 826 l 833 853 q 792 730 833 776 q 676 667 751 683 q 746 499 746 601 q 665 317 746 383 q 432 250 583 250 l 321 250 q 281 239 296 250 q 267 208 267 228 q 279 180 267 192 q 313 168 292 168 l 644 168 q 779 114 725 168 q 833 -28 833 60 q 797 -146 833 -94 q 699 -225 761 -197 q 561 -253 636 -253 l 215 -253 m 421 379 q 522 410 488 379 q 557 499 557 442 q 522 587 557 556 q 421 618 488 618 q 320 587 354 618 q 286 499 286 556 q 320 410 286 442 q 421 379 354 379 m 558 -121 q 618 -103 594 -121 q 642 -56 642 -85 q 620 -8 642 -25 q 567 8 599 8 l 299 8 q 247 -10 268 8 q 225 -56 225 -28 q 246 -103 225 -85 q 299 -121 267 -121 l 558 -121 m 331 825 l 331 1006 l 518 1006 l 518 825 l 331 825 z "},"h":{"ha":849,"x_min":99,"x_max":754,"o":"m 99 1004 l 289 1004 l 289 646 l 299 646 q 513 747 382 747 q 690 686 625 747 q 754 490 754 625 l 754 0 l 564 0 l 564 450 q 532 549 564 518 q 438 579 500 579 q 331 534 374 579 q 289 422 289 489 l 289 0 l 99 0 l 99 1004 z "},"ħ":{"ha":849,"x_min":18,"x_max":754,"o":"m 99 815 l 18 815 l 18 914 l 99 914 l 99 1004 l 289 1004 l 289 914 l 503 914 l 503 815 l 289 815 l 289 646 l 299 646 q 513 747 382 747 q 690 686 625 747 q 754 490 754 625 l 754 0 l 564 0 l 564 450 q 532 549 564 518 q 438 579 500 579 q 331 534 374 579 q 289 422 289 489 l 289 0 l 99 0 l 99 815 z "},"ĥ":{"ha":849,"x_min":-37,"x_max":754,"o":"m 0 0 m 99 1004 l 289 1004 l 289 646 l 299 646 q 513 747 382 747 q 690 686 625 747 q 754 490 754 625 l 754 0 l 564 0 l 564 450 q 532 549 564 518 q 438 579 500 579 q 331 534 374 579 q 289 422 289 489 l 289 0 l 99 0 l 99 1004 m -37 1039 l 110 1226 l 279 1226 l 425 1039 l 271 1039 l 194 1135 l 117 1039 l -37 1039 z "},"ḥ":{"ha":849,"x_min":99,"x_max":754,"o":"m 99 0 m 99 1004 l 289 1004 l 289 646 l 299 646 q 513 747 382 747 q 690 686 625 747 q 754 490 754 625 l 754 0 l 564 0 l 564 450 q 532 549 564 518 q 438 579 500 579 q 331 534 374 579 q 289 422 289 489 l 289 0 l 99 0 l 99 1004 m 331 -240 l 331 -60 l 518 -60 l 518 -240 l 331 -240 z "},"i":{"ha":386,"x_min":99,"x_max":289,"o":"m 99 832 l 99 1004 l 289 1004 l 289 832 l 99 832 m 99 0 l 99 731 l 289 731 l 289 0 l 99 0 z "},"ı":{"ha":386,"x_min":99,"x_max":289,"o":"m 99 0 l 99 731 l 289 731 l 289 0 l 99 0 z "},"í":{"ha":386,"x_min":99,"x_max":394,"o":"m 99 821 l 208 1004 l 393 1004 l 394 1000 l 244 821 l 99 821 m 99 0 l 99 731 l 289 731 l 289 0 l 99 0 z "},"ĭ":{"ha":386,"x_min":-28,"x_max":421,"o":"m 196 814 q 69 842 119 814 q -4 913 19 869 q -28 1004 -28 957 l 97 1004 q 126 958 101 979 q 196 938 151 938 q 267 958 240 938 q 296 1004 293 979 l 421 1004 q 397 913 421 957 q 323 842 374 869 q 196 814 272 814 m 99 0 l 99 731 l 289 731 l 289 0 l 99 0 z "},"ǐ":{"ha":386,"x_min":-39,"x_max":424,"o":"m 0 0 m 99 0 l 99 731 l 289 731 l 289 0 l 99 0 m 108 817 l -39 1004 l 115 1004 l 193 908 l 269 1004 l 424 1004 l 278 817 l 108 817 z "},"î":{"ha":386,"x_min":-37,"x_max":425,"o":"m -37 817 l 110 1004 l 279 1004 l 425 817 l 271 817 l 194 913 l 117 817 l -37 817 m 99 0 l 99 731 l 289 731 l 289 0 l 99 0 z "},"ȉ":{"ha":386,"x_min":-124,"x_max":415,"o":"m 0 0 m 99 0 l 99 731 l 289 731 l 289 0 l 99 0 m 26 821 l -124 1000 l -122 1004 l 63 1004 l 172 821 l 26 821 m 269 821 l 119 1000 l 121 1004 l 306 1004 l 415 821 l 269 821 z "},"ï":{"ha":386,"x_min":-35,"x_max":422,"o":"m -35 840 l -35 1004 l 129 1004 l 129 840 l -35 840 m 257 840 l 257 1004 l 422 1004 l 422 840 l 257 840 m 99 0 l 99 731 l 289 731 l 289 0 l 99 0 z "},"ị":{"ha":386,"x_min":99,"x_max":289,"o":"m 99 0 m 99 832 l 99 1004 l 289 1004 l 289 832 l 99 832 m 99 0 l 99 731 l 289 731 l 289 0 l 99 0 m 100 -240 l 100 -60 l 288 -60 l 288 -240 l 100 -240 z "},"ì":{"ha":386,"x_min":-1,"x_max":294,"o":"m 149 821 l -1 1000 l 0 1004 l 185 1004 l 294 821 l 149 821 m 99 0 l 99 731 l 289 731 l 289 0 l 99 0 z "},"ỉ":{"ha":386,"x_min":81,"x_max":358,"o":"m 81 0 m 99 0 l 99 731 l 289 731 l 289 0 l 99 0 m 146 896 l 165 896 q 200 902 190 896 q 210 922 210 908 q 198 943 210 938 q 161 949 186 949 l 81 949 l 81 1010 q 196 1021 133 1021 q 309 1002 260 1021 q 358 936 358 983 q 325 878 358 899 q 240 856 292 858 l 240 821 l 146 821 l 146 896 z "},"ȋ":{"ha":386,"x_min":-32,"x_max":417,"o":"m 0 0 m 99 0 l 99 731 l 289 731 l 289 0 l 99 0 m -32 814 q -8 905 -32 861 q 65 976 15 949 q 192 1004 115 1004 q 319 976 268 1004 q 393 905 369 949 q 417 814 417 861 l 292 814 q 263 860 289 839 q 192 881 236 881 q 122 860 147 881 q 93 814 97 839 l -32 814 z "},"ĳ":{"ha":772,"x_min":99,"x_max":675,"o":"m 99 0 m 99 832 l 99 1004 l 289 1004 l 289 832 l 99 832 m 99 0 l 99 731 l 289 731 l 289 0 l 99 0 m 485 832 l 485 1004 l 675 1004 l 675 832 l 485 832 m 483 -253 q 415 -246 453 -253 q 353 -231 376 -239 l 353 -97 l 425 -97 q 485 -37 485 -97 l 485 731 l 675 731 l 675 -57 q 631 -197 675 -142 q 483 -253 586 -253 z "},"ī":{"ha":386,"x_min":-18,"x_max":406,"o":"m -18 888 l -18 1010 l 406 1010 l 406 888 l -18 888 m 99 0 l 99 731 l 289 731 l 289 0 l 99 0 z "},"į":{"ha":386,"x_min":29,"x_max":289,"o":"m 286 1006 l 286 825 l 99 825 l 99 1006 l 286 1006 m 219 0 q 189 -44 203 -18 q 175 -97 175 -71 q 192 -148 175 -128 q 242 -168 208 -168 l 275 -168 l 275 -244 q 176 -264 221 -264 q 72 -235 115 -264 q 29 -142 29 -206 q 47 -62 29 -96 q 99 4 65 -29 l 99 731 l 289 731 l 289 0 l 219 0 z "},"ĩ":{"ha":386,"x_min":-40,"x_max":426,"o":"m -40 835 q -6 956 -40 908 q 96 1004 28 1004 q 138 998 118 1004 q 192 978 157 992 q 240 959 221 965 q 281 953 260 953 q 313 965 301 953 q 329 1004 325 976 l 426 1004 q 392 883 426 931 q 289 835 358 835 q 248 841 267 835 q 194 861 229 847 q 146 880 165 874 q 106 886 126 886 q 57 835 64 886 l -40 835 m 99 0 l 99 731 l 289 731 l 289 0 l 99 0 z "},"j":{"ha":386,"x_min":-33,"x_max":289,"o":"m 99 832 l 99 1004 l 289 1004 l 289 832 l 99 832 m 97 -253 q 28 -246 67 -253 q -33 -231 -10 -239 l -33 -97 l 39 -97 q 99 -37 99 -97 l 99 731 l 289 731 l 289 -57 q 244 -197 289 -142 q 97 -253 200 -253 z "},"ȷ":{"ha":386,"x_min":-33,"x_max":289,"o":"m 97 -253 q 28 -246 67 -253 q -33 -231 -10 -239 l -33 -97 l 39 -97 q 99 -37 99 -97 l 99 731 l 289 731 l 289 -57 q 244 -197 289 -142 q 97 -253 200 -253 z "},"ĵ":{"ha":386,"x_min":-37,"x_max":425,"o":"m -37 817 l 110 1004 l 279 1004 l 425 817 l 271 817 l 194 913 l 117 817 l -37 817 m 97 -253 q 28 -246 67 -253 q -33 -231 -10 -239 l -33 -97 l 39 -97 q 99 -37 99 -97 l 99 731 l 289 731 l 289 -57 q 244 -197 289 -142 q 97 -253 200 -253 z "},"k":{"ha":772,"x_min":99,"x_max":764,"o":"m 99 0 l 99 1004 l 289 1004 l 289 440 l 531 731 l 750 731 l 508 450 l 764 0 l 546 0 l 386 310 l 289 215 l 289 0 l 99 0 z "},"ķ":{"ha":772,"x_min":99,"x_max":764,"o":"m 99 0 m 99 0 l 99 1004 l 289 1004 l 289 440 l 531 731 l 750 731 l 508 450 l 764 0 l 546 0 l 386 310 l 289 215 l 289 0 l 99 0 m 326 -319 l 399 -192 l 322 -192 l 322 -56 l 514 -56 l 514 -175 l 426 -319 l 326 -319 z "},"ĸ":{"ha":772,"x_min":99,"x_max":764,"o":"m 99 0 l 99 731 l 289 731 l 289 440 l 531 731 l 750 731 l 508 450 l 764 0 l 546 0 l 386 310 l 289 215 l 289 0 l 99 0 z "},"l":{"ha":386,"x_min":99,"x_max":289,"o":"m 99 0 l 99 1004 l 289 1004 l 289 0 l 99 0 z "},"ĺ":{"ha":386,"x_min":99,"x_max":415,"o":"m 99 0 m 99 0 l 99 1004 l 289 1004 l 289 0 l 99 0 m 119 1043 l 229 1226 l 414 1226 l 415 1222 l 265 1043 l 119 1043 z "},"ľ":{"ha":535,"x_min":99,"x_max":554,"o":"m 99 0 l 99 1004 l 289 1004 l 289 0 l 99 0 m 363 614 l 439 776 l 363 776 l 363 953 l 554 953 l 554 793 l 463 614 l 363 614 z "},"ļ":{"ha":386,"x_min":97,"x_max":289,"o":"m 97 0 m 99 0 l 99 1004 l 289 1004 l 289 0 l 99 0 m 101 -319 l 174 -192 l 97 -192 l 97 -56 l 289 -56 l 289 -175 l 201 -319 l 101 -319 z "},"ŀ":{"ha":511,"x_min":99,"x_max":549,"o":"m 99 0 m 99 0 l 99 1004 l 289 1004 l 289 0 l 99 0 m 357 401 l 357 592 l 549 592 l 549 401 l 357 401 z "},"ǉ":{"ha":772,"x_min":99,"x_max":675,"o":"m 99 0 m 99 0 l 99 1004 l 289 1004 l 289 0 l 99 0 m 485 832 l 485 1004 l 675 1004 l 675 832 l 485 832 m 483 -253 q 415 -246 453 -253 q 353 -231 376 -239 l 353 -97 l 425 -97 q 485 -37 485 -97 l 485 731 l 675 731 l 675 -57 q 631 -197 675 -142 q 483 -253 586 -253 z "},"ł":{"ha":386,"x_min":0,"x_max":386,"o":"m 99 0 l 99 347 l 0 281 l 0 422 l 99 489 l 99 1004 l 289 1004 l 289 619 l 386 686 l 386 544 l 289 478 l 289 0 l 99 0 z "},"m":{"ha":1235,"x_min":99,"x_max":1140,"o":"m 99 731 l 261 731 l 275 635 l 285 635 q 493 747 365 747 q 685 635 632 747 l 696 635 q 913 747 779 747 q 1078 686 1017 747 q 1140 490 1140 625 l 1140 0 l 950 0 l 950 450 q 843 579 950 579 q 751 534 788 579 q 715 422 715 489 l 715 0 l 525 0 l 525 450 q 418 579 525 579 q 326 534 363 579 q 289 422 289 489 l 289 0 l 99 0 l 99 731 z "},"n":{"ha":849,"x_min":99,"x_max":754,"o":"m 99 731 l 261 731 l 275 635 l 285 635 q 513 747 374 747 q 690 686 625 747 q 754 490 754 625 l 754 0 l 564 0 l 564 450 q 532 549 564 518 q 438 579 500 579 q 331 534 374 579 q 289 422 289 489 l 289 0 l 99 0 l 99 731 z "},"ń":{"ha":849,"x_min":99,"x_max":754,"o":"m 99 0 m 99 731 l 261 731 l 275 635 l 285 635 q 513 747 374 747 q 690 686 625 747 q 754 490 754 625 l 754 0 l 564 0 l 564 450 q 532 549 564 518 q 438 579 500 579 q 331 534 374 579 q 289 422 289 489 l 289 0 l 99 0 l 99 731 m 351 821 l 461 1004 l 646 1004 l 647 1000 l 497 821 l 351 821 z "},"ŉ":{"ha":983,"x_min":-4,"x_max":889,"o":"m -4 614 l 72 776 l -4 776 l -4 953 l 188 953 l 188 793 l 96 614 l -4 614 m 233 731 l 396 731 l 410 635 l 419 635 q 647 747 508 747 q 824 686 760 747 q 889 490 889 625 l 889 0 l 699 0 l 699 450 q 667 549 699 518 q 572 579 635 579 q 466 534 508 579 q 424 422 424 489 l 424 0 l 233 0 l 233 731 z "},"ň":{"ha":849,"x_min":99,"x_max":754,"o":"m 99 0 m 99 731 l 261 731 l 275 635 l 285 635 q 513 747 374 747 q 690 686 625 747 q 754 490 754 625 l 754 0 l 564 0 l 564 450 q 532 549 564 518 q 438 579 500 579 q 331 534 374 579 q 289 422 289 489 l 289 0 l 99 0 l 99 731 m 340 817 l 193 1004 l 347 1004 l 425 908 l 501 1004 l 656 1004 l 510 817 l 340 817 z "},"ņ":{"ha":849,"x_min":99,"x_max":754,"o":"m 99 0 m 99 731 l 261 731 l 275 635 l 285 635 q 513 747 374 747 q 690 686 625 747 q 754 490 754 625 l 754 0 l 564 0 l 564 450 q 532 549 564 518 q 438 579 500 579 q 331 534 374 579 q 289 422 289 489 l 289 0 l 99 0 l 99 731 m 333 -319 l 406 -192 l 329 -192 l 329 -56 l 521 -56 l 521 -175 l 433 -319 l 333 -319 z "},"ṅ":{"ha":849,"x_min":99,"x_max":754,"o":"m 99 0 m 99 731 l 261 731 l 275 635 l 285 635 q 513 747 374 747 q 690 686 625 747 q 754 490 754 625 l 754 0 l 564 0 l 564 450 q 532 549 564 518 q 438 579 500 579 q 331 534 374 579 q 289 422 289 489 l 289 0 l 99 0 l 99 731 m 331 825 l 331 1006 l 518 1006 l 518 825 l 331 825 z "},"ŋ":{"ha":849,"x_min":99,"x_max":754,"o":"m 563 -253 q 494 -246 532 -253 q 432 -231 456 -239 l 432 -97 l 504 -97 q 564 -37 564 -97 l 564 450 q 532 549 564 518 q 438 579 500 579 q 331 534 374 579 q 289 422 289 489 l 289 0 l 99 0 l 99 731 l 261 731 l 275 635 l 285 635 q 513 747 374 747 q 690 686 625 747 q 754 490 754 625 l 754 -57 q 710 -197 754 -142 q 563 -253 665 -253 z "},"ɲ":{"ha":849,"x_min":-33,"x_max":754,"o":"m 97 -253 q 28 -246 67 -253 q -33 -231 -10 -239 l -33 -97 l 39 -97 q 99 -37 99 -97 l 99 731 l 261 731 l 275 635 l 285 635 q 513 747 374 747 q 690 686 625 747 q 754 490 754 625 l 754 0 l 564 0 l 564 450 q 532 549 564 518 q 438 579 500 579 q 331 534 374 579 q 289 422 289 489 l 289 -57 q 244 -197 289 -142 q 97 -253 200 -253 z "},"ǌ":{"ha":1235,"x_min":99,"x_max":1138,"o":"m 99 0 m 99 731 l 261 731 l 275 635 l 285 635 q 513 747 374 747 q 690 686 625 747 q 754 490 754 625 l 754 0 l 564 0 l 564 450 q 532 549 564 518 q 438 579 500 579 q 331 534 374 579 q 289 422 289 489 l 289 0 l 99 0 l 99 731 m 947 832 l 947 1004 l 1138 1004 l 1138 832 l 947 832 m 946 -253 q 877 -246 915 -253 q 815 -231 839 -239 l 815 -97 l 888 -97 q 947 -37 947 -97 l 947 731 l 1138 731 l 1138 -57 q 1093 -197 1138 -142 q 946 -253 1049 -253 z "},"ñ":{"ha":849,"x_min":99,"x_max":754,"o":"m 99 0 m 99 731 l 261 731 l 275 635 l 285 635 q 513 747 374 747 q 690 686 625 747 q 754 490 754 625 l 754 0 l 564 0 l 564 450 q 532 549 564 518 q 438 579 500 579 q 331 534 374 579 q 289 422 289 489 l 289 0 l 99 0 l 99 731 m 192 835 q 226 956 192 908 q 328 1004 260 1004 q 369 998 350 1004 q 424 978 389 992 q 472 959 453 965 q 513 953 492 953 q 545 965 533 953 q 561 1004 557 976 l 658 1004 q 624 883 658 931 q 521 835 590 835 q 480 841 499 835 q 426 861 461 847 q 378 880 397 874 q 338 886 358 886 q 289 835 296 886 l 192 835 z "},"o":{"ha":849,"x_min":53,"x_max":796,"o":"m 424 -17 q 144 76 236 -17 q 53 365 53 169 q 144 654 53 561 q 424 747 236 747 q 703 654 611 747 q 796 365 796 561 q 703 76 796 169 q 424 -17 611 -17 m 424 139 q 558 192 517 139 q 600 354 600 246 l 600 376 q 558 538 600 485 q 424 592 517 592 q 290 538 331 592 q 249 376 249 485 l 249 354 q 290 192 249 246 q 424 139 331 139 z "},"ó":{"ha":849,"x_min":53,"x_max":796,"o":"m 53 0 m 424 -17 q 144 76 236 -17 q 53 365 53 169 q 144 654 53 561 q 424 747 236 747 q 703 654 611 747 q 796 365 796 561 q 703 76 796 169 q 424 -17 611 -17 m 424 139 q 558 192 517 139 q 600 354 600 246 l 600 376 q 558 538 600 485 q 424 592 517 592 q 290 538 331 592 q 249 376 249 485 l 249 354 q 290 192 249 246 q 424 139 331 139 m 351 821 l 461 1004 l 646 1004 l 647 1000 l 497 821 l 351 821 z "},"ŏ":{"ha":849,"x_min":53,"x_max":796,"o":"m 53 0 m 424 -17 q 144 76 236 -17 q 53 365 53 169 q 144 654 53 561 q 424 747 236 747 q 703 654 611 747 q 796 365 796 561 q 703 76 796 169 q 424 -17 611 -17 m 424 139 q 558 192 517 139 q 600 354 600 246 l 600 376 q 558 538 600 485 q 424 592 517 592 q 290 538 331 592 q 249 376 249 485 l 249 354 q 290 192 249 246 q 424 139 331 139 m 424 814 q 297 842 347 814 q 224 913 247 869 q 200 1004 200 957 l 325 1004 q 354 958 329 979 q 424 938 379 938 q 494 958 468 938 q 524 1004 521 979 l 649 1004 q 625 913 649 957 q 551 842 601 869 q 424 814 500 814 z "},"ǒ":{"ha":849,"x_min":53,"x_max":796,"o":"m 53 0 m 424 -17 q 144 76 236 -17 q 53 365 53 169 q 144 654 53 561 q 424 747 236 747 q 703 654 611 747 q 796 365 796 561 q 703 76 796 169 q 424 -17 611 -17 m 424 139 q 558 192 517 139 q 600 354 600 246 l 600 376 q 558 538 600 485 q 424 592 517 592 q 290 538 331 592 q 249 376 249 485 l 249 354 q 290 192 249 246 q 424 139 331 139 m 340 817 l 193 1004 l 347 1004 l 425 908 l 501 1004 l 656 1004 l 510 817 l 340 817 z "},"ô":{"ha":849,"x_min":53,"x_max":796,"o":"m 53 0 m 424 -17 q 144 76 236 -17 q 53 365 53 169 q 144 654 53 561 q 424 747 236 747 q 703 654 611 747 q 796 365 796 561 q 703 76 796 169 q 424 -17 611 -17 m 424 139 q 558 192 517 139 q 600 354 600 246 l 600 376 q 558 538 600 485 q 424 592 517 592 q 290 538 331 592 q 249 376 249 485 l 249 354 q 290 192 249 246 q 424 139 331 139 m 193 817 l 340 1004 l 510 1004 l 656 817 l 501 817 l 425 913 l 347 817 l 193 817 z "},"ố":{"ha":849,"x_min":53,"x_max":851,"o":"m 53 0 m 424 -17 q 144 76 236 -17 q 53 365 53 169 q 144 654 53 561 q 424 747 236 747 q 703 654 611 747 q 796 365 796 561 q 703 76 796 169 q 424 -17 611 -17 m 424 139 q 558 192 517 139 q 600 354 600 246 l 600 376 q 558 538 600 485 q 424 592 517 592 q 290 538 331 592 q 249 376 249 485 l 249 354 q 290 192 249 246 q 424 139 331 139 m 193 817 l 340 1004 l 510 1004 l 656 817 l 501 817 l 425 913 l 347 817 l 193 817 m 556 953 l 665 1136 l 850 1136 l 851 1132 l 701 953 l 556 953 z "},"ộ":{"ha":849,"x_min":53,"x_max":796,"o":"m 53 0 m 424 -17 q 144 76 236 -17 q 53 365 53 169 q 144 654 53 561 q 424 747 236 747 q 703 654 611 747 q 796 365 796 561 q 703 76 796 169 q 424 -17 611 -17 m 424 139 q 558 192 517 139 q 600 354 600 246 l 600 376 q 558 538 600 485 q 424 592 517 592 q 290 538 331 592 q 249 376 249 485 l 249 354 q 290 192 249 246 q 424 139 331 139 m 193 817 l 340 1004 l 510 1004 l 656 817 l 501 817 l 425 913 l 347 817 l 193 817 m 331 -240 l 331 -60 l 518 -60 l 518 -240 l 331 -240 z "},"ồ":{"ha":849,"x_min":53,"x_max":796,"o":"m 53 0 m 424 -17 q 144 76 236 -17 q 53 365 53 169 q 144 654 53 561 q 424 747 236 747 q 703 654 611 747 q 796 365 796 561 q 703 76 796 169 q 424 -17 611 -17 m 424 139 q 558 192 517 139 q 600 354 600 246 l 600 376 q 558 538 600 485 q 424 592 517 592 q 290 538 331 592 q 249 376 249 485 l 249 354 q 290 192 249 246 q 424 139 331 139 m 193 817 l 340 1004 l 510 1004 l 656 817 l 501 817 l 425 913 l 347 817 l 193 817 m 611 953 l 461 1132 l 463 1136 l 647 1136 l 757 953 l 611 953 z "},"ổ":{"ha":849,"x_min":53,"x_max":796,"o":"m 53 0 m 424 -17 q 144 76 236 -17 q 53 365 53 169 q 144 654 53 561 q 424 747 236 747 q 703 654 611 747 q 796 365 796 561 q 703 76 796 169 q 424 -17 611 -17 m 424 139 q 558 192 517 139 q 600 354 600 246 l 600 376 q 558 538 600 485 q 424 592 517 592 q 290 538 331 592 q 249 376 249 485 l 249 354 q 290 192 249 246 q 424 139 331 139 m 193 817 l 340 1004 l 510 1004 l 656 817 l 501 817 l 425 913 l 347 817 l 193 817 m 582 1028 l 601 1028 q 636 1034 626 1028 q 646 1054 646 1040 q 634 1075 646 1069 q 597 1081 622 1081 l 517 1081 l 517 1142 q 632 1153 569 1153 q 745 1134 696 1153 q 794 1068 794 1115 q 761 1010 794 1031 q 676 988 728 990 l 676 953 l 582 953 l 582 1028 z "},"ỗ":{"ha":849,"x_min":53,"x_max":796,"o":"m 53 0 m 424 -17 q 144 76 236 -17 q 53 365 53 169 q 144 654 53 561 q 424 747 236 747 q 703 654 611 747 q 796 365 796 561 q 703 76 796 169 q 424 -17 611 -17 m 424 139 q 558 192 517 139 q 600 354 600 246 l 600 376 q 558 538 600 485 q 424 592 517 592 q 290 538 331 592 q 249 376 249 485 l 249 354 q 290 192 249 246 q 424 139 331 139 m 193 817 l 340 1004 l 510 1004 l 656 817 l 501 817 l 425 913 l 347 817 l 193 817 m 194 1057 q 228 1178 194 1131 q 331 1226 263 1226 q 372 1220 353 1226 q 426 1200 392 1214 q 475 1181 456 1188 q 515 1175 494 1175 q 548 1187 536 1175 q 564 1226 560 1199 l 661 1226 q 627 1105 661 1153 q 524 1057 593 1057 q 483 1063 501 1057 q 429 1083 464 1069 q 381 1102 400 1096 q 340 1108 361 1108 q 292 1057 299 1108 l 194 1057 z "},"ȍ":{"ha":849,"x_min":53,"x_max":796,"o":"m 53 0 m 424 -17 q 144 76 236 -17 q 53 365 53 169 q 144 654 53 561 q 424 747 236 747 q 703 654 611 747 q 796 365 796 561 q 703 76 796 169 q 424 -17 611 -17 m 424 139 q 558 192 517 139 q 600 354 600 246 l 600 376 q 558 538 600 485 q 424 592 517 592 q 290 538 331 592 q 249 376 249 485 l 249 354 q 290 192 249 246 q 424 139 331 139 m 258 821 l 108 1000 l 110 1004 l 294 1004 l 404 821 l 258 821 m 501 821 l 351 1000 l 353 1004 l 538 1004 l 647 821 l 501 821 z "},"ö":{"ha":849,"x_min":53,"x_max":796,"o":"m 53 0 m 424 -17 q 144 76 236 -17 q 53 365 53 169 q 144 654 53 561 q 424 747 236 747 q 703 654 611 747 q 796 365 796 561 q 703 76 796 169 q 424 -17 611 -17 m 424 139 q 558 192 517 139 q 600 354 600 246 l 600 376 q 558 538 600 485 q 424 592 517 592 q 290 538 331 592 q 249 376 249 485 l 249 354 q 290 192 249 246 q 424 139 331 139 m 197 840 l 197 1004 l 361 1004 l 361 840 l 197 840 m 489 840 l 489 1004 l 654 1004 l 654 840 l 489 840 z "},"ọ":{"ha":849,"x_min":53,"x_max":796,"o":"m 53 0 m 424 -17 q 144 76 236 -17 q 53 365 53 169 q 144 654 53 561 q 424 747 236 747 q 703 654 611 747 q 796 365 796 561 q 703 76 796 169 q 424 -17 611 -17 m 424 139 q 558 192 517 139 q 600 354 600 246 l 600 376 q 558 538 600 485 q 424 592 517 592 q 290 538 331 592 q 249 376 249 485 l 249 354 q 290 192 249 246 q 424 139 331 139 m 331 -240 l 331 -60 l 518 -60 l 518 -240 l 331 -240 z "},"ò":{"ha":849,"x_min":53,"x_max":796,"o":"m 53 0 m 424 -17 q 144 76 236 -17 q 53 365 53 169 q 144 654 53 561 q 424 747 236 747 q 703 654 611 747 q 796 365 796 561 q 703 76 796 169 q 424 -17 611 -17 m 424 139 q 558 192 517 139 q 600 354 600 246 l 600 376 q 558 538 600 485 q 424 592 517 592 q 290 538 331 592 q 249 376 249 485 l 249 354 q 290 192 249 246 q 424 139 331 139 m 351 821 l 201 1000 l 203 1004 l 388 1004 l 497 821 l 351 821 z "},"ỏ":{"ha":849,"x_min":53,"x_max":796,"o":"m 53 0 m 424 -17 q 144 76 236 -17 q 53 365 53 169 q 144 654 53 561 q 424 747 236 747 q 703 654 611 747 q 796 365 796 561 q 703 76 796 169 q 424 -17 611 -17 m 424 139 q 558 192 517 139 q 600 354 600 246 l 600 376 q 558 538 600 485 q 424 592 517 592 q 290 538 331 592 q 249 376 249 485 l 249 354 q 290 192 249 246 q 424 139 331 139 m 378 896 l 397 896 q 432 902 422 896 q 442 922 442 908 q 430 943 442 938 q 393 949 418 949 l 313 949 l 313 1010 q 428 1021 365 1021 q 541 1002 492 1021 q 590 936 590 983 q 557 878 590 899 q 472 856 524 858 l 472 821 l 378 821 l 378 896 z "},"ơ":{"ha":849,"x_min":53,"x_max":931,"o":"m 931 953 l 931 878 q 887 692 931 761 q 750 592 843 624 q 796 365 796 504 q 703 76 796 169 q 424 -17 611 -17 q 144 76 236 -17 q 53 365 53 169 q 144 654 53 561 q 424 747 236 747 q 688 669 596 747 q 807 763 781 694 l 711 763 l 711 953 l 931 953 m 600 376 q 558 538 600 485 q 424 592 517 592 q 290 538 331 592 q 249 376 249 485 l 249 354 q 290 192 249 246 q 424 139 331 139 q 558 192 517 139 q 600 354 600 246 l 600 376 z "},"ớ":{"ha":849,"x_min":53,"x_max":931,"o":"m 53 0 m 931 953 l 931 878 q 887 692 931 761 q 750 592 843 624 q 796 365 796 504 q 703 76 796 169 q 424 -17 611 -17 q 144 76 236 -17 q 53 365 53 169 q 144 654 53 561 q 424 747 236 747 q 688 669 596 747 q 807 763 781 694 l 711 763 l 711 953 l 931 953 m 600 376 q 558 538 600 485 q 424 592 517 592 q 290 538 331 592 q 249 376 249 485 l 249 354 q 290 192 249 246 q 424 139 331 139 q 558 192 517 139 q 600 354 600 246 l 600 376 m 351 821 l 461 1004 l 646 1004 l 647 1000 l 497 821 l 351 821 z "},"ợ":{"ha":849,"x_min":53,"x_max":931,"o":"m 53 0 m 931 953 l 931 878 q 887 692 931 761 q 750 592 843 624 q 796 365 796 504 q 703 76 796 169 q 424 -17 611 -17 q 144 76 236 -17 q 53 365 53 169 q 144 654 53 561 q 424 747 236 747 q 688 669 596 747 q 807 763 781 694 l 711 763 l 711 953 l 931 953 m 600 376 q 558 538 600 485 q 424 592 517 592 q 290 538 331 592 q 249 376 249 485 l 249 354 q 290 192 249 246 q 424 139 331 139 q 558 192 517 139 q 600 354 600 246 l 600 376 m 331 -240 l 331 -60 l 518 -60 l 518 -240 l 331 -240 z "},"ờ":{"ha":849,"x_min":53,"x_max":931,"o":"m 53 0 m 931 953 l 931 878 q 887 692 931 761 q 750 592 843 624 q 796 365 796 504 q 703 76 796 169 q 424 -17 611 -17 q 144 76 236 -17 q 53 365 53 169 q 144 654 53 561 q 424 747 236 747 q 688 669 596 747 q 807 763 781 694 l 711 763 l 711 953 l 931 953 m 600 376 q 558 538 600 485 q 424 592 517 592 q 290 538 331 592 q 249 376 249 485 l 249 354 q 290 192 249 246 q 424 139 331 139 q 558 192 517 139 q 600 354 600 246 l 600 376 m 351 821 l 201 1000 l 203 1004 l 388 1004 l 497 821 l 351 821 z "},"ở":{"ha":849,"x_min":53,"x_max":931,"o":"m 53 0 m 931 953 l 931 878 q 887 692 931 761 q 750 592 843 624 q 796 365 796 504 q 703 76 796 169 q 424 -17 611 -17 q 144 76 236 -17 q 53 365 53 169 q 144 654 53 561 q 424 747 236 747 q 688 669 596 747 q 807 763 781 694 l 711 763 l 711 953 l 931 953 m 600 376 q 558 538 600 485 q 424 592 517 592 q 290 538 331 592 q 249 376 249 485 l 249 354 q 290 192 249 246 q 424 139 331 139 q 558 192 517 139 q 600 354 600 246 l 600 376 m 378 896 l 397 896 q 432 902 422 896 q 442 922 442 908 q 430 943 442 938 q 393 949 418 949 l 313 949 l 313 1010 q 428 1021 365 1021 q 541 1002 492 1021 q 590 936 590 983 q 557 878 590 899 q 472 856 524 858 l 472 821 l 378 821 l 378 896 z "},"ỡ":{"ha":849,"x_min":53,"x_max":931,"o":"m 53 0 m 931 953 l 931 878 q 887 692 931 761 q 750 592 843 624 q 796 365 796 504 q 703 76 796 169 q 424 -17 611 -17 q 144 76 236 -17 q 53 365 53 169 q 144 654 53 561 q 424 747 236 747 q 688 669 596 747 q 807 763 781 694 l 711 763 l 711 953 l 931 953 m 600 376 q 558 538 600 485 q 424 592 517 592 q 290 538 331 592 q 249 376 249 485 l 249 354 q 290 192 249 246 q 424 139 331 139 q 558 192 517 139 q 600 354 600 246 l 600 376 m 192 835 q 226 956 192 908 q 328 1004 260 1004 q 369 998 350 1004 q 424 978 389 992 q 472 959 453 965 q 513 953 492 953 q 545 965 533 953 q 561 1004 557 976 l 658 1004 q 624 883 658 931 q 521 835 590 835 q 480 841 499 835 q 426 861 461 847 q 378 880 397 874 q 338 886 358 886 q 289 835 296 886 l 192 835 z "},"ő":{"ha":849,"x_min":53,"x_max":796,"o":"m 53 0 m 424 -17 q 144 76 236 -17 q 53 365 53 169 q 144 654 53 561 q 424 747 236 747 q 703 654 611 747 q 796 365 796 561 q 703 76 796 169 q 424 -17 611 -17 m 424 139 q 558 192 517 139 q 600 354 600 246 l 600 376 q 558 538 600 485 q 424 592 517 592 q 290 538 331 592 q 249 376 249 485 l 249 354 q 290 192 249 246 q 424 139 331 139 m 231 821 l 340 1004 l 525 1004 l 526 1000 l 376 821 l 231 821 m 474 821 l 583 1004 l 768 1004 l 769 1000 l 619 821 l 474 821 z "},"ȏ":{"ha":849,"x_min":53,"x_max":796,"o":"m 53 0 m 424 -17 q 144 76 236 -17 q 53 365 53 169 q 144 654 53 561 q 424 747 236 747 q 703 654 611 747 q 796 365 796 561 q 703 76 796 169 q 424 -17 611 -17 m 424 139 q 558 192 517 139 q 600 354 600 246 l 600 376 q 558 538 600 485 q 424 592 517 592 q 290 538 331 592 q 249 376 249 485 l 249 354 q 290 192 249 246 q 424 139 331 139 m 200 814 q 224 905 200 861 q 297 976 247 949 q 424 1004 347 1004 q 551 976 500 1004 q 625 905 601 949 q 649 814 649 861 l 524 814 q 494 860 521 839 q 424 881 468 881 q 354 860 379 881 q 325 814 329 839 l 200 814 z "},"ō":{"ha":849,"x_min":53,"x_max":796,"o":"m 53 0 m 424 -17 q 144 76 236 -17 q 53 365 53 169 q 144 654 53 561 q 424 747 236 747 q 703 654 611 747 q 796 365 796 561 q 703 76 796 169 q 424 -17 611 -17 m 424 139 q 558 192 517 139 q 600 354 600 246 l 600 376 q 558 538 600 485 q 424 592 517 592 q 290 538 331 592 q 249 376 249 485 l 249 354 q 290 192 249 246 q 424 139 331 139 m 213 849 l 213 971 l 636 971 l 636 849 l 213 849 z "},"ǫ":{"ha":849,"x_min":53,"x_max":796,"o":"m 796 365 q 746 133 796 221 q 596 10 696 46 q 566 -35 579 -10 q 553 -86 553 -61 q 569 -137 553 -117 q 619 -157 586 -157 l 653 -157 l 653 -233 q 554 -253 599 -253 q 450 -224 493 -253 q 407 -131 407 -194 q 447 -17 407 -69 l 424 -17 q 144 76 236 -17 q 53 365 53 169 q 144 654 53 561 q 424 747 236 747 q 703 654 611 747 q 796 365 796 561 m 249 354 q 290 192 249 246 q 424 139 331 139 q 558 192 517 139 q 600 354 600 246 l 600 376 q 558 538 600 485 q 424 592 517 592 q 290 538 331 592 q 249 376 249 485 l 249 354 z "},"ø":{"ha":849,"x_min":53,"x_max":796,"o":"m 156 65 q 53 365 53 160 q 144 654 53 561 q 424 747 236 747 q 611 715 532 747 l 669 799 l 786 799 l 692 664 q 796 365 796 571 q 703 76 796 169 q 424 -17 611 -17 q 238 14 318 -17 l 181 -68 l 63 -68 l 156 65 m 513 574 q 424 592 474 592 q 290 538 331 592 q 249 376 249 485 l 249 354 q 269 228 249 278 l 513 574 m 424 139 q 558 192 517 139 q 600 354 600 246 l 600 376 q 579 503 600 453 l 336 156 q 424 139 372 139 z "},"ǿ":{"ha":849,"x_min":53,"x_max":796,"o":"m 53 0 m 156 65 q 53 365 53 160 q 144 654 53 561 q 424 747 236 747 q 611 715 532 747 l 669 799 l 786 799 l 692 664 q 796 365 796 571 q 703 76 796 169 q 424 -17 611 -17 q 238 14 318 -17 l 181 -68 l 63 -68 l 156 65 m 513 574 q 424 592 474 592 q 290 538 331 592 q 249 376 249 485 l 249 354 q 269 228 249 278 l 513 574 m 424 139 q 558 192 517 139 q 600 354 600 246 l 600 376 q 579 503 600 453 l 336 156 q 424 139 372 139 m 351 821 l 461 1004 l 646 1004 l 647 1000 l 497 821 l 351 821 z "},"õ":{"ha":849,"x_min":53,"x_max":796,"o":"m 53 0 m 424 -17 q 144 76 236 -17 q 53 365 53 169 q 144 654 53 561 q 424 747 236 747 q 703 654 611 747 q 796 365 796 561 q 703 76 796 169 q 424 -17 611 -17 m 424 139 q 558 192 517 139 q 600 354 600 246 l 600 376 q 558 538 600 485 q 424 592 517 592 q 290 538 331 592 q 249 376 249 485 l 249 354 q 290 192 249 246 q 424 139 331 139 m 192 835 q 226 956 192 908 q 328 1004 260 1004 q 369 998 350 1004 q 424 978 389 992 q 472 959 453 965 q 513 953 492 953 q 545 965 533 953 q 561 1004 557 976 l 658 1004 q 624 883 658 931 q 521 835 590 835 q 480 841 499 835 q 426 861 461 847 q 378 880 397 874 q 338 886 358 886 q 289 835 296 886 l 192 835 z "},"œ":{"ha":1311,"x_min":53,"x_max":1263,"o":"m 418 -17 q 144 76 235 -17 q 53 365 53 169 q 144 654 53 561 q 418 747 235 747 q 685 650 593 747 q 939 747 772 747 q 1182 653 1101 747 q 1263 365 1263 560 l 1263 321 l 782 321 q 821 177 785 224 q 942 131 857 131 q 1038 164 1001 131 q 1075 258 1075 197 l 1263 258 q 1174 52 1263 121 q 939 -17 1085 -17 q 685 79 772 -17 q 418 -17 593 -17 m 1065 447 q 939 599 1065 599 q 830 561 867 599 q 785 447 793 524 l 1065 447 m 418 139 q 549 192 508 139 q 589 354 589 246 l 589 376 q 549 538 589 485 q 418 592 508 592 q 289 538 329 592 q 249 376 249 485 l 249 354 q 289 192 249 246 q 418 139 329 139 z "},"p":{"ha":849,"x_min":99,"x_max":797,"o":"m 99 731 l 261 731 l 274 635 l 283 635 q 376 719 318 690 q 506 747 435 747 q 721 652 644 747 q 797 364 797 557 q 720 79 797 175 q 515 -17 643 -17 q 385 10 442 -17 q 297 85 329 36 l 289 85 l 289 -240 l 99 -240 l 99 731 m 444 149 q 565 199 529 149 q 601 353 601 250 l 601 378 q 565 531 601 481 q 444 582 529 582 q 289 378 289 582 l 289 356 q 444 149 289 149 z "},"þ":{"ha":849,"x_min":99,"x_max":797,"o":"m 99 1024 l 289 1024 l 289 646 l 297 646 q 385 721 329 694 q 515 747 442 747 q 722 652 646 747 q 797 364 797 557 q 720 79 797 175 q 515 -17 643 -17 q 385 10 442 -17 q 297 85 329 36 l 289 85 l 289 -240 l 99 -240 l 99 1024 m 444 149 q 565 199 529 149 q 601 353 601 250 l 601 378 q 565 531 601 481 q 444 582 529 582 q 289 378 289 582 l 289 356 q 444 149 289 149 z "},"q":{"ha":849,"x_min":51,"x_max":750,"o":"m 560 85 l 551 85 q 463 10 519 36 q 333 -17 407 -17 q 128 79 206 -17 q 51 364 51 175 q 128 652 51 557 q 343 747 204 747 q 472 719 414 747 q 565 635 531 690 l 575 635 l 588 731 l 750 731 l 750 -240 l 560 -240 l 560 85 m 404 149 q 560 356 560 149 l 560 378 q 404 582 560 582 q 283 531 319 582 q 247 378 247 481 l 247 353 q 283 199 247 250 q 404 149 319 149 z "},"r":{"ha":540,"x_min":99,"x_max":518,"o":"m 99 731 l 261 731 l 276 613 l 286 613 q 347 711 310 675 q 446 747 385 747 q 492 742 472 747 q 518 735 513 738 l 518 557 l 465 557 q 331 506 372 557 q 289 353 289 456 l 289 0 l 99 0 l 99 731 z "},"ŕ":{"ha":540,"x_min":99,"x_max":518,"o":"m 99 0 m 99 731 l 261 731 l 276 613 l 286 613 q 347 711 310 675 q 446 747 385 747 q 492 742 472 747 q 518 735 513 738 l 518 557 l 465 557 q 331 506 372 557 q 289 353 289 456 l 289 0 l 99 0 l 99 731 m 197 821 l 307 1004 l 492 1004 l 493 1000 l 343 821 l 197 821 z "},"ř":{"ha":540,"x_min":39,"x_max":518,"o":"m 39 0 m 99 731 l 261 731 l 276 613 l 286 613 q 347 711 310 675 q 446 747 385 747 q 492 742 472 747 q 518 735 513 738 l 518 557 l 465 557 q 331 506 372 557 q 289 353 289 456 l 289 0 l 99 0 l 99 731 m 186 817 l 39 1004 l 193 1004 l 271 908 l 347 1004 l 501 1004 l 356 817 l 186 817 z "},"ŗ":{"ha":540,"x_min":99,"x_max":518,"o":"m 99 0 m 99 731 l 261 731 l 276 613 l 286 613 q 347 711 310 675 q 446 747 385 747 q 492 742 472 747 q 518 735 513 738 l 518 557 l 465 557 q 331 506 372 557 q 289 353 289 456 l 289 0 l 99 0 l 99 731 m 103 -319 l 175 -192 l 99 -192 l 99 -56 l 290 -56 l 290 -175 l 203 -319 l 103 -319 z "},"ȑ":{"ha":540,"x_min":-46,"x_max":518,"o":"m 0 0 m 99 731 l 261 731 l 276 613 l 286 613 q 347 711 310 675 q 446 747 385 747 q 492 742 472 747 q 518 735 513 738 l 518 557 l 465 557 q 331 506 372 557 q 289 353 289 456 l 289 0 l 99 0 l 99 731 m 104 821 l -46 1000 l -44 1004 l 140 1004 l 250 821 l 104 821 m 347 821 l 197 1000 l 199 1004 l 383 1004 l 493 821 l 347 821 z "},"ṛ":{"ha":540,"x_min":99,"x_max":518,"o":"m 99 0 m 99 731 l 261 731 l 276 613 l 286 613 q 347 711 310 675 q 446 747 385 747 q 492 742 472 747 q 518 735 513 738 l 518 557 l 465 557 q 331 506 372 557 q 289 353 289 456 l 289 0 l 99 0 l 99 731 m 100 -240 l 100 -60 l 288 -60 l 288 -240 l 100 -240 z "},"ȓ":{"ha":540,"x_min":46,"x_max":518,"o":"m 46 0 m 99 731 l 261 731 l 276 613 l 286 613 q 347 711 310 675 q 446 747 385 747 q 492 742 472 747 q 518 735 513 738 l 518 557 l 465 557 q 331 506 372 557 q 289 353 289 456 l 289 0 l 99 0 l 99 731 m 46 814 q 69 905 46 861 q 143 976 93 949 q 269 1004 193 1004 q 397 976 346 1004 q 471 905 447 949 q 494 814 494 861 l 369 814 q 340 860 367 839 q 269 881 314 881 q 200 860 225 881 q 171 814 175 839 l 46 814 z "},"s":{"ha":772,"x_min":64,"x_max":725,"o":"m 390 -17 q 151 47 238 -17 q 64 215 64 110 l 65 232 l 250 232 l 250 222 q 294 152 251 174 q 397 131 336 131 q 494 146 454 131 q 535 196 535 161 q 494 254 535 235 q 365 293 453 274 q 218 335 275 314 q 119 403 161 357 q 78 525 78 449 q 167 690 78 632 q 399 747 257 747 q 617 694 531 747 q 703 549 703 640 l 701 517 l 517 517 l 517 519 q 482 580 515 560 q 392 600 449 600 q 301 585 335 600 q 268 542 268 569 q 306 490 268 507 q 429 457 344 474 q 581 415 522 436 q 682 347 639 394 q 725 219 725 300 q 390 -17 725 -17 z "},"ś":{"ha":772,"x_min":64,"x_max":725,"o":"m 64 0 m 390 -17 q 151 47 238 -17 q 64 215 64 110 l 65 232 l 250 232 l 250 222 q 294 152 251 174 q 397 131 336 131 q 494 146 454 131 q 535 196 535 161 q 494 254 535 235 q 365 293 453 274 q 218 335 275 314 q 119 403 161 357 q 78 525 78 449 q 167 690 78 632 q 399 747 257 747 q 617 694 531 747 q 703 549 703 640 l 701 517 l 517 517 l 517 519 q 482 580 515 560 q 392 600 449 600 q 301 585 335 600 q 268 542 268 569 q 306 490 268 507 q 429 457 344 474 q 581 415 522 436 q 682 347 639 394 q 725 219 725 300 q 390 -17 725 -17 m 313 821 l 422 1004 l 607 1004 l 608 1000 l 458 821 l 313 821 z "},"ꞌ":{"ha":275,"x_min":68,"x_max":247,"o":"m 68 399 l 68 1004 l 247 1004 l 247 835 l 188 399 l 68 399 z "},"š":{"ha":772,"x_min":64,"x_max":725,"o":"m 64 0 m 390 -17 q 151 47 238 -17 q 64 215 64 110 l 65 232 l 250 232 l 250 222 q 294 152 251 174 q 397 131 336 131 q 494 146 454 131 q 535 196 535 161 q 494 254 535 235 q 365 293 453 274 q 218 335 275 314 q 119 403 161 357 q 78 525 78 449 q 167 690 78 632 q 399 747 257 747 q 617 694 531 747 q 703 549 703 640 l 701 517 l 517 517 l 517 519 q 482 580 515 560 q 392 600 449 600 q 301 585 335 600 q 268 542 268 569 q 306 490 268 507 q 429 457 344 474 q 581 415 522 436 q 682 347 639 394 q 725 219 725 300 q 390 -17 725 -17 m 301 817 l 154 1004 l 308 1004 l 386 908 l 463 1004 l 617 1004 l 471 817 l 301 817 z "},"ş":{"ha":772,"x_min":64,"x_max":725,"o":"m 725 219 q 440 -15 725 1 l 436 -46 q 535 -72 497 -49 q 572 -140 572 -96 q 515 -228 572 -203 q 383 -253 457 -253 q 239 -242 306 -253 l 239 -174 l 361 -174 q 408 -167 393 -174 q 424 -140 424 -160 q 410 -115 424 -124 q 365 -107 397 -107 l 308 -107 l 322 -12 q 132 62 200 1 q 64 215 64 122 l 65 232 l 250 232 l 250 222 q 294 152 251 174 q 397 131 336 131 q 494 146 454 131 q 535 196 535 161 q 494 254 535 235 q 365 293 453 274 q 218 335 275 314 q 119 403 161 357 q 78 525 78 449 q 167 690 78 632 q 399 747 257 747 q 617 694 531 747 q 703 549 703 640 l 701 517 l 517 517 l 517 519 q 482 580 515 560 q 392 600 449 600 q 301 585 335 600 q 268 542 268 569 q 306 490 268 507 q 429 457 344 474 q 581 415 522 436 q 682 347 639 394 q 725 219 725 300 z "},"ŝ":{"ha":772,"x_min":64,"x_max":725,"o":"m 64 0 m 390 -17 q 151 47 238 -17 q 64 215 64 110 l 65 232 l 250 232 l 250 222 q 294 152 251 174 q 397 131 336 131 q 494 146 454 131 q 535 196 535 161 q 494 254 535 235 q 365 293 453 274 q 218 335 275 314 q 119 403 161 357 q 78 525 78 449 q 167 690 78 632 q 399 747 257 747 q 617 694 531 747 q 703 549 703 640 l 701 517 l 517 517 l 517 519 q 482 580 515 560 q 392 600 449 600 q 301 585 335 600 q 268 542 268 569 q 306 490 268 507 q 429 457 344 474 q 581 415 522 436 q 682 347 639 394 q 725 219 725 300 q 390 -17 725 -17 m 154 817 l 301 1004 l 471 1004 l 617 817 l 463 817 l 386 913 l 308 817 l 154 817 z "},"ș":{"ha":772,"x_min":64,"x_max":725,"o":"m 64 0 m 390 -17 q 151 47 238 -17 q 64 215 64 110 l 65 232 l 250 232 l 250 222 q 294 152 251 174 q 397 131 336 131 q 494 146 454 131 q 535 196 535 161 q 494 254 535 235 q 365 293 453 274 q 218 335 275 314 q 119 403 161 357 q 78 525 78 449 q 167 690 78 632 q 399 747 257 747 q 617 694 531 747 q 703 549 703 640 l 701 517 l 517 517 l 517 519 q 482 580 515 560 q 392 600 449 600 q 301 585 335 600 q 268 542 268 569 q 306 490 268 507 q 429 457 344 474 q 581 415 522 436 q 682 347 639 394 q 725 219 725 300 q 390 -17 725 -17 m 294 -319 l 367 -192 l 290 -192 l 290 -56 l 482 -56 l 482 -175 l 394 -319 l 294 -319 z "},"ṣ":{"ha":772,"x_min":64,"x_max":725,"o":"m 64 0 m 390 -17 q 151 47 238 -17 q 64 215 64 110 l 65 232 l 250 232 l 250 222 q 294 152 251 174 q 397 131 336 131 q 494 146 454 131 q 535 196 535 161 q 494 254 535 235 q 365 293 453 274 q 218 335 275 314 q 119 403 161 357 q 78 525 78 449 q 167 690 78 632 q 399 747 257 747 q 617 694 531 747 q 703 549 703 640 l 701 517 l 517 517 l 517 519 q 482 580 515 560 q 392 600 449 600 q 301 585 335 600 q 268 542 268 569 q 306 490 268 507 q 429 457 344 474 q 581 415 522 436 q 682 347 639 394 q 725 219 725 300 q 390 -17 725 -17 m 292 -240 l 292 -60 l 479 -60 l 479 -240 l 292 -240 z "},"ß":{"ha":849,"x_min":90,"x_max":793,"o":"m 90 710 q 186 944 90 868 q 438 1021 282 1021 q 675 953 590 1021 q 760 772 760 885 q 717 633 760 692 q 606 550 674 575 l 606 544 q 745 451 697 521 q 793 288 793 382 q 756 140 793 206 q 648 38 718 75 q 483 0 578 0 l 363 0 l 363 154 l 465 154 q 565 196 529 154 q 601 300 601 238 q 565 404 601 363 q 465 446 529 446 l 363 446 l 363 614 l 461 614 q 538 649 510 614 q 567 739 567 685 q 533 833 567 797 q 432 868 499 868 q 322 829 363 868 q 281 721 281 790 l 281 0 l 90 0 l 90 710 z "},"ſ":{"ha":386,"x_min":13,"x_max":436,"o":"m 117 575 l 13 575 l 13 731 l 117 731 l 117 814 q 163 958 117 900 q 314 1015 208 1015 q 378 1008 343 1015 q 436 993 413 1001 l 436 860 l 367 860 q 307 800 307 860 l 307 0 l 117 0 l 117 575 z "},"ə":{"ha":772,"x_min":50,"x_max":724,"o":"m 381 -17 q 131 76 213 -17 q 50 365 50 168 l 50 410 l 531 410 q 492 552 529 504 q 376 600 456 600 q 274 567 311 600 q 238 472 238 535 l 50 472 q 139 678 50 610 q 378 747 228 747 q 638 653 551 747 q 724 365 724 558 q 638 78 724 172 q 381 -17 551 -17 m 378 132 q 528 283 513 132 l 247 283 q 281 167 247 203 q 378 132 314 132 z "},"t":{"ha":463,"x_min":15,"x_max":419,"o":"m 294 -17 q 147 39 192 -17 q 103 179 103 94 l 103 575 l 15 575 l 15 731 l 107 731 l 139 936 l 293 936 l 293 731 l 419 731 l 419 575 l 293 575 l 293 199 q 353 139 293 139 l 419 139 l 419 6 q 360 -10 396 -3 q 294 -17 325 -17 z "},"ŧ":{"ha":463,"x_min":15,"x_max":419,"o":"m 294 -17 q 147 39 192 -17 q 103 179 103 94 l 103 353 l 15 353 l 15 451 l 103 451 l 103 575 l 15 575 l 15 731 l 107 731 l 139 936 l 293 936 l 293 731 l 419 731 l 419 575 l 293 575 l 293 451 l 419 451 l 419 353 l 293 353 l 293 199 q 353 139 293 139 l 419 139 l 419 6 q 360 -10 396 -3 q 294 -17 325 -17 z "},"ť":{"ha":665,"x_min":15,"x_max":676,"o":"m 485 614 l 561 776 l 485 776 l 485 953 l 676 953 l 676 793 l 585 614 l 485 614 m 294 -17 q 147 39 192 -17 q 103 179 103 94 l 103 575 l 15 575 l 15 731 l 107 731 l 139 936 l 293 936 l 293 731 l 419 731 l 419 575 l 293 575 l 293 199 q 353 139 293 139 l 419 139 l 419 6 q 360 -10 396 -3 q 294 -17 325 -17 z "},"ţ":{"ha":463,"x_min":15,"x_max":432,"o":"m 296 -46 q 394 -72 357 -49 q 432 -140 432 -96 q 374 -228 432 -203 q 243 -253 317 -253 q 99 -242 165 -253 l 99 -174 l 221 -174 q 268 -167 253 -174 q 283 -140 283 -160 q 270 -115 283 -124 q 225 -107 257 -107 l 168 -107 l 185 8 q 122 78 142 33 q 103 179 103 124 l 103 575 l 15 575 l 15 731 l 107 731 l 139 936 l 293 936 l 293 731 l 419 731 l 419 575 l 293 575 l 293 199 q 353 139 293 139 l 419 139 l 419 6 q 365 -9 399 -3 q 300 -17 331 -15 l 296 -46 z "},"ț":{"ha":463,"x_min":15,"x_max":419,"o":"m 15 0 m 294 -17 q 147 39 192 -17 q 103 179 103 94 l 103 575 l 15 575 l 15 731 l 107 731 l 139 936 l 293 936 l 293 731 l 419 731 l 419 575 l 293 575 l 293 199 q 353 139 293 139 l 419 139 l 419 6 q 360 -10 396 -3 q 294 -17 325 -17 m 154 -319 l 226 -192 l 150 -192 l 150 -56 l 342 -56 l 342 -175 l 254 -319 l 154 -319 z "},"ṭ":{"ha":463,"x_min":15,"x_max":419,"o":"m 15 0 m 294 -17 q 147 39 192 -17 q 103 179 103 94 l 103 575 l 15 575 l 15 731 l 107 731 l 139 936 l 293 936 l 293 731 l 419 731 l 419 575 l 293 575 l 293 199 q 353 139 293 139 l 419 139 l 419 6 q 360 -10 396 -3 q 294 -17 325 -17 m 151 -240 l 151 -60 l 339 -60 l 339 -240 l 151 -240 z "},"u":{"ha":849,"x_min":94,"x_max":750,"o":"m 336 -17 q 159 44 224 -17 q 94 240 94 106 l 94 731 l 285 731 l 285 281 q 317 182 285 213 q 411 151 349 151 q 517 197 475 151 q 560 308 560 242 l 560 731 l 750 731 l 750 0 l 588 0 l 574 96 l 564 96 q 336 -17 475 -17 z "},"ú":{"ha":849,"x_min":94,"x_max":750,"o":"m 94 0 m 336 -17 q 159 44 224 -17 q 94 240 94 106 l 94 731 l 285 731 l 285 281 q 317 182 285 213 q 411 151 349 151 q 517 197 475 151 q 560 308 560 242 l 560 731 l 750 731 l 750 0 l 588 0 l 574 96 l 564 96 q 336 -17 475 -17 m 349 821 l 458 1004 l 643 1004 l 644 1000 l 494 821 l 349 821 z "},"ŭ":{"ha":849,"x_min":94,"x_max":750,"o":"m 94 0 m 336 -17 q 159 44 224 -17 q 94 240 94 106 l 94 731 l 285 731 l 285 281 q 317 182 285 213 q 411 151 349 151 q 517 197 475 151 q 560 308 560 242 l 560 731 l 750 731 l 750 0 l 588 0 l 574 96 l 564 96 q 336 -17 475 -17 m 421 814 q 294 842 344 814 q 221 913 244 869 q 197 1004 197 957 l 322 1004 q 351 958 326 979 q 421 938 376 938 q 492 958 465 938 q 521 1004 518 979 l 646 1004 q 622 913 646 957 q 548 842 599 869 q 421 814 497 814 z "},"ǔ":{"ha":849,"x_min":94,"x_max":750,"o":"m 94 0 m 336 -17 q 159 44 224 -17 q 94 240 94 106 l 94 731 l 285 731 l 285 281 q 317 182 285 213 q 411 151 349 151 q 517 197 475 151 q 560 308 560 242 l 560 731 l 750 731 l 750 0 l 588 0 l 574 96 l 564 96 q 336 -17 475 -17 m 338 817 l 190 1004 l 344 1004 l 422 908 l 499 1004 l 653 1004 l 507 817 l 338 817 z "},"û":{"ha":849,"x_min":94,"x_max":750,"o":"m 94 0 m 336 -17 q 159 44 224 -17 q 94 240 94 106 l 94 731 l 285 731 l 285 281 q 317 182 285 213 q 411 151 349 151 q 517 197 475 151 q 560 308 560 242 l 560 731 l 750 731 l 750 0 l 588 0 l 574 96 l 564 96 q 336 -17 475 -17 m 190 817 l 338 1004 l 507 1004 l 653 817 l 499 817 l 422 913 l 344 817 l 190 817 z "},"ȕ":{"ha":849,"x_min":94,"x_max":750,"o":"m 94 0 m 336 -17 q 159 44 224 -17 q 94 240 94 106 l 94 731 l 285 731 l 285 281 q 317 182 285 213 q 411 151 349 151 q 517 197 475 151 q 560 308 560 242 l 560 731 l 750 731 l 750 0 l 588 0 l 574 96 l 564 96 q 336 -17 475 -17 m 256 821 l 106 1000 l 107 1004 l 292 1004 l 401 821 l 256 821 m 499 821 l 349 1000 l 350 1004 l 535 1004 l 644 821 l 499 821 z "},"ü":{"ha":849,"x_min":94,"x_max":750,"o":"m 94 0 m 336 -17 q 159 44 224 -17 q 94 240 94 106 l 94 731 l 285 731 l 285 281 q 317 182 285 213 q 411 151 349 151 q 517 197 475 151 q 560 308 560 242 l 560 731 l 750 731 l 750 0 l 588 0 l 574 96 l 564 96 q 336 -17 475 -17 m 194 840 l 194 1004 l 358 1004 l 358 840 l 194 840 m 486 840 l 486 1004 l 651 1004 l 651 840 l 486 840 z "},"ǘ":{"ha":849,"x_min":94,"x_max":750,"o":"m 94 0 m 336 -17 q 159 44 224 -17 q 94 240 94 106 l 94 731 l 285 731 l 285 281 q 317 182 285 213 q 411 151 349 151 q 517 197 475 151 q 560 308 560 242 l 560 731 l 750 731 l 750 0 l 588 0 l 574 96 l 564 96 q 336 -17 475 -17 m 194 840 l 194 1004 l 358 1004 l 358 840 l 194 840 m 486 840 l 486 1004 l 651 1004 l 651 840 l 486 840 m 349 1053 l 458 1236 l 643 1236 l 644 1232 l 494 1053 l 349 1053 z "},"ǚ":{"ha":849,"x_min":94,"x_max":750,"o":"m 94 0 m 336 -17 q 159 44 224 -17 q 94 240 94 106 l 94 731 l 285 731 l 285 281 q 317 182 285 213 q 411 151 349 151 q 517 197 475 151 q 560 308 560 242 l 560 731 l 750 731 l 750 0 l 588 0 l 574 96 l 564 96 q 336 -17 475 -17 m 194 840 l 194 1004 l 358 1004 l 358 840 l 194 840 m 486 840 l 486 1004 l 651 1004 l 651 840 l 486 840 m 338 1049 l 190 1236 l 344 1236 l 422 1140 l 499 1236 l 653 1236 l 507 1049 l 338 1049 z "},"ǜ":{"ha":849,"x_min":94,"x_max":750,"o":"m 94 0 m 336 -17 q 159 44 224 -17 q 94 240 94 106 l 94 731 l 285 731 l 285 281 q 317 182 285 213 q 411 151 349 151 q 517 197 475 151 q 560 308 560 242 l 560 731 l 750 731 l 750 0 l 588 0 l 574 96 l 564 96 q 336 -17 475 -17 m 194 840 l 194 1004 l 358 1004 l 358 840 l 194 840 m 486 840 l 486 1004 l 651 1004 l 651 840 l 486 840 m 349 1053 l 199 1232 l 200 1236 l 385 1236 l 494 1053 l 349 1053 z "},"ǖ":{"ha":849,"x_min":94,"x_max":750,"o":"m 94 0 m 336 -17 q 159 44 224 -17 q 94 240 94 106 l 94 731 l 285 731 l 285 281 q 317 182 285 213 q 411 151 349 151 q 517 197 475 151 q 560 308 560 242 l 560 731 l 750 731 l 750 0 l 588 0 l 574 96 l 564 96 q 336 -17 475 -17 m 194 840 l 194 1004 l 358 1004 l 358 840 l 194 840 m 486 840 l 486 1004 l 651 1004 l 651 840 l 486 840 m 210 1081 l 210 1203 l 633 1203 l 633 1081 l 210 1081 z "},"ụ":{"ha":849,"x_min":94,"x_max":750,"o":"m 94 0 m 336 -17 q 159 44 224 -17 q 94 240 94 106 l 94 731 l 285 731 l 285 281 q 317 182 285 213 q 411 151 349 151 q 517 197 475 151 q 560 308 560 242 l 560 731 l 750 731 l 750 0 l 588 0 l 574 96 l 564 96 q 336 -17 475 -17 m 331 -240 l 331 -60 l 518 -60 l 518 -240 l 331 -240 z "},"ù":{"ha":849,"x_min":94,"x_max":750,"o":"m 94 0 m 336 -17 q 159 44 224 -17 q 94 240 94 106 l 94 731 l 285 731 l 285 281 q 317 182 285 213 q 411 151 349 151 q 517 197 475 151 q 560 308 560 242 l 560 731 l 750 731 l 750 0 l 588 0 l 574 96 l 564 96 q 336 -17 475 -17 m 349 821 l 199 1000 l 200 1004 l 385 1004 l 494 821 l 349 821 z "},"ủ":{"ha":849,"x_min":94,"x_max":750,"o":"m 94 0 m 336 -17 q 159 44 224 -17 q 94 240 94 106 l 94 731 l 285 731 l 285 281 q 317 182 285 213 q 411 151 349 151 q 517 197 475 151 q 560 308 560 242 l 560 731 l 750 731 l 750 0 l 588 0 l 574 96 l 564 96 q 336 -17 475 -17 m 375 896 l 394 896 q 429 902 419 896 q 439 922 439 908 q 427 943 439 938 q 390 949 415 949 l 310 949 l 310 1010 q 425 1021 363 1021 q 538 1002 489 1021 q 588 936 588 983 q 554 878 588 899 q 469 856 521 858 l 469 821 l 375 821 l 375 896 z "},"ư":{"ha":849,"x_min":94,"x_max":917,"o":"m 917 1004 l 917 929 q 876 749 917 817 q 750 649 836 682 l 750 0 l 588 0 l 574 96 l 564 96 q 336 -17 475 -17 q 159 44 224 -17 q 94 240 94 106 l 94 731 l 285 731 l 285 281 q 317 182 285 213 q 411 151 349 151 q 517 197 475 151 q 560 308 560 242 l 560 731 l 704 731 q 793 814 771 758 l 697 814 l 697 1004 l 917 1004 z "},"ứ":{"ha":849,"x_min":94,"x_max":917,"o":"m 94 0 m 917 1004 l 917 929 q 876 749 917 817 q 750 649 836 682 l 750 0 l 588 0 l 574 96 l 564 96 q 336 -17 475 -17 q 159 44 224 -17 q 94 240 94 106 l 94 731 l 285 731 l 285 281 q 317 182 285 213 q 411 151 349 151 q 517 197 475 151 q 560 308 560 242 l 560 731 l 704 731 q 793 814 771 758 l 697 814 l 697 1004 l 917 1004 m 349 821 l 458 1004 l 643 1004 l 644 1000 l 494 821 l 349 821 z "},"ự":{"ha":849,"x_min":94,"x_max":917,"o":"m 94 0 m 917 1004 l 917 929 q 876 749 917 817 q 750 649 836 682 l 750 0 l 588 0 l 574 96 l 564 96 q 336 -17 475 -17 q 159 44 224 -17 q 94 240 94 106 l 94 731 l 285 731 l 285 281 q 317 182 285 213 q 411 151 349 151 q 517 197 475 151 q 560 308 560 242 l 560 731 l 704 731 q 793 814 771 758 l 697 814 l 697 1004 l 917 1004 m 331 -240 l 331 -60 l 518 -60 l 518 -240 l 331 -240 z "},"ừ":{"ha":849,"x_min":94,"x_max":917,"o":"m 94 0 m 917 1004 l 917 929 q 876 749 917 817 q 750 649 836 682 l 750 0 l 588 0 l 574 96 l 564 96 q 336 -17 475 -17 q 159 44 224 -17 q 94 240 94 106 l 94 731 l 285 731 l 285 281 q 317 182 285 213 q 411 151 349 151 q 517 197 475 151 q 560 308 560 242 l 560 731 l 704 731 q 793 814 771 758 l 697 814 l 697 1004 l 917 1004 m 349 821 l 199 1000 l 200 1004 l 385 1004 l 494 821 l 349 821 z "},"ử":{"ha":849,"x_min":94,"x_max":917,"o":"m 94 0 m 917 1004 l 917 929 q 876 749 917 817 q 750 649 836 682 l 750 0 l 588 0 l 574 96 l 564 96 q 336 -17 475 -17 q 159 44 224 -17 q 94 240 94 106 l 94 731 l 285 731 l 285 281 q 317 182 285 213 q 411 151 349 151 q 517 197 475 151 q 560 308 560 242 l 560 731 l 704 731 q 793 814 771 758 l 697 814 l 697 1004 l 917 1004 m 375 896 l 394 896 q 429 902 419 896 q 439 922 439 908 q 427 943 439 938 q 390 949 415 949 l 310 949 l 310 1010 q 425 1021 363 1021 q 538 1002 489 1021 q 588 936 588 983 q 554 878 588 899 q 469 856 521 858 l 469 821 l 375 821 l 375 896 z "},"ữ":{"ha":849,"x_min":94,"x_max":917,"o":"m 94 0 m 917 1004 l 917 929 q 876 749 917 817 q 750 649 836 682 l 750 0 l 588 0 l 574 96 l 564 96 q 336 -17 475 -17 q 159 44 224 -17 q 94 240 94 106 l 94 731 l 285 731 l 285 281 q 317 182 285 213 q 411 151 349 151 q 517 197 475 151 q 560 308 560 242 l 560 731 l 704 731 q 793 814 771 758 l 697 814 l 697 1004 l 917 1004 m 189 835 q 223 956 189 908 q 325 1004 257 1004 q 367 998 347 1004 q 421 978 386 992 q 469 959 450 965 q 510 953 489 953 q 542 965 531 953 q 558 1004 554 976 l 656 1004 q 622 883 656 931 q 518 835 588 835 q 477 841 496 835 q 424 861 458 847 q 375 880 394 874 q 335 886 356 886 q 286 835 293 886 l 189 835 z "},"ű":{"ha":849,"x_min":94,"x_max":767,"o":"m 94 0 m 336 -17 q 159 44 224 -17 q 94 240 94 106 l 94 731 l 285 731 l 285 281 q 317 182 285 213 q 411 151 349 151 q 517 197 475 151 q 560 308 560 242 l 560 731 l 750 731 l 750 0 l 588 0 l 574 96 l 564 96 q 336 -17 475 -17 m 228 821 l 338 1004 l 522 1004 l 524 1000 l 374 821 l 228 821 m 471 821 l 581 1004 l 765 1004 l 767 1000 l 617 821 l 471 821 z "},"ȗ":{"ha":849,"x_min":94,"x_max":750,"o":"m 94 0 m 336 -17 q 159 44 224 -17 q 94 240 94 106 l 94 731 l 285 731 l 285 281 q 317 182 285 213 q 411 151 349 151 q 517 197 475 151 q 560 308 560 242 l 560 731 l 750 731 l 750 0 l 588 0 l 574 96 l 564 96 q 336 -17 475 -17 m 197 814 q 221 905 197 861 q 294 976 244 949 q 421 1004 344 1004 q 548 976 497 1004 q 622 905 599 949 q 646 814 646 861 l 521 814 q 492 860 518 839 q 421 881 465 881 q 351 860 376 881 q 322 814 326 839 l 197 814 z "},"ū":{"ha":849,"x_min":94,"x_max":750,"o":"m 94 0 m 336 -17 q 159 44 224 -17 q 94 240 94 106 l 94 731 l 285 731 l 285 281 q 317 182 285 213 q 411 151 349 151 q 517 197 475 151 q 560 308 560 242 l 560 731 l 750 731 l 750 0 l 588 0 l 574 96 l 564 96 q 336 -17 475 -17 m 210 849 l 210 971 l 633 971 l 633 849 l 210 849 z "},"ų":{"ha":849,"x_min":94,"x_max":750,"o":"m 651 -253 q 547 -224 590 -253 q 504 -131 504 -194 q 526 -58 504 -89 q 588 0 547 -26 l 574 96 l 564 96 q 336 -17 475 -17 q 159 44 224 -17 q 94 240 94 106 l 94 731 l 285 731 l 285 281 q 317 182 285 213 q 411 151 349 151 q 517 197 475 151 q 560 308 560 242 l 560 731 l 750 731 l 750 0 q 650 -93 650 -25 q 667 -138 650 -119 q 717 -157 685 -157 l 750 -157 l 750 -233 q 651 -253 696 -253 z "},"ů":{"ha":849,"x_min":94,"x_max":750,"o":"m 94 0 m 336 -17 q 159 44 224 -17 q 94 240 94 106 l 94 731 l 285 731 l 285 281 q 317 182 285 213 q 411 151 349 151 q 517 197 475 151 q 560 308 560 242 l 560 731 l 750 731 l 750 0 l 588 0 l 574 96 l 564 96 q 336 -17 475 -17 m 422 772 q 320 813 358 772 q 282 913 282 853 q 320 1013 282 972 q 422 1053 358 1053 q 524 1013 486 1053 q 563 913 563 972 q 524 813 563 853 q 422 772 486 772 m 422 851 q 466 869 449 851 q 483 913 483 886 q 466 956 483 939 q 422 974 449 974 q 378 956 394 974 q 361 913 361 939 q 378 869 361 886 q 422 851 394 851 z "},"ũ":{"ha":849,"x_min":94,"x_max":750,"o":"m 94 0 m 336 -17 q 159 44 224 -17 q 94 240 94 106 l 94 731 l 285 731 l 285 281 q 317 182 285 213 q 411 151 349 151 q 517 197 475 151 q 560 308 560 242 l 560 731 l 750 731 l 750 0 l 588 0 l 574 96 l 564 96 q 336 -17 475 -17 m 189 835 q 223 956 189 908 q 325 1004 257 1004 q 367 998 347 1004 q 421 978 386 992 q 469 959 450 965 q 510 953 489 953 q 542 965 531 953 q 558 1004 554 976 l 656 1004 q 622 883 656 931 q 518 835 588 835 q 477 841 496 835 q 424 861 458 847 q 375 880 394 874 q 335 886 356 886 q 286 835 293 886 l 189 835 z "},"v":{"ha":772,"x_min":13,"x_max":760,"o":"m 13 731 l 211 731 l 325 417 q 358 303 338 382 q 386 197 379 224 l 393 197 q 419 299 399 222 q 454 417 439 376 l 567 731 l 760 731 l 486 0 l 285 0 l 13 731 z "},"w":{"ha":1081,"x_min":6,"x_max":1075,"o":"m 6 731 l 201 731 l 281 431 q 304 322 289 399 q 324 221 319 246 l 329 221 q 347 308 333 244 q 374 429 360 371 l 449 731 l 644 731 l 724 428 q 750 315 735 386 q 769 221 765 244 l 775 221 q 793 310 779 242 q 819 428 807 379 l 894 731 l 1075 731 l 858 0 l 661 0 l 578 349 q 557 443 567 392 q 544 510 547 494 l 538 510 q 528 444 536 494 q 508 350 519 394 l 421 0 l 224 0 l 6 731 z "},"ẃ":{"ha":1081,"x_min":6,"x_max":1075,"o":"m 6 0 m 6 731 l 201 731 l 281 431 q 304 322 289 399 q 324 221 319 246 l 329 221 q 347 308 333 244 q 374 429 360 371 l 449 731 l 644 731 l 724 428 q 750 315 735 386 q 769 221 765 244 l 775 221 q 793 310 779 242 q 819 428 807 379 l 894 731 l 1075 731 l 858 0 l 661 0 l 578 349 q 557 443 567 392 q 544 510 547 494 l 538 510 q 528 444 536 494 q 508 350 519 394 l 421 0 l 224 0 l 6 731 m 467 821 l 576 1004 l 761 1004 l 763 1000 l 613 821 l 467 821 z "},"ŵ":{"ha":1081,"x_min":6,"x_max":1075,"o":"m 6 0 m 6 731 l 201 731 l 281 431 q 304 322 289 399 q 324 221 319 246 l 329 221 q 347 308 333 244 q 374 429 360 371 l 449 731 l 644 731 l 724 428 q 750 315 735 386 q 769 221 765 244 l 775 221 q 793 310 779 242 q 819 428 807 379 l 894 731 l 1075 731 l 858 0 l 661 0 l 578 349 q 557 443 567 392 q 544 510 547 494 l 538 510 q 528 444 536 494 q 508 350 519 394 l 421 0 l 224 0 l 6 731 m 308 817 l 456 1004 l 625 1004 l 771 817 l 617 817 l 540 913 l 463 817 l 308 817 z "},"ẅ":{"ha":1081,"x_min":6,"x_max":1075,"o":"m 6 0 m 6 731 l 201 731 l 281 431 q 304 322 289 399 q 324 221 319 246 l 329 221 q 347 308 333 244 q 374 429 360 371 l 449 731 l 644 731 l 724 428 q 750 315 735 386 q 769 221 765 244 l 775 221 q 793 310 779 242 q 819 428 807 379 l 894 731 l 1075 731 l 858 0 l 661 0 l 578 349 q 557 443 567 392 q 544 510 547 494 l 538 510 q 528 444 536 494 q 508 350 519 394 l 421 0 l 224 0 l 6 731 m 313 840 l 313 1004 l 476 1004 l 476 840 l 313 840 m 604 840 l 604 1004 l 769 1004 l 769 840 l 604 840 z "},"ẁ":{"ha":1081,"x_min":6,"x_max":1075,"o":"m 6 0 m 6 731 l 201 731 l 281 431 q 304 322 289 399 q 324 221 319 246 l 329 221 q 347 308 333 244 q 374 429 360 371 l 449 731 l 644 731 l 724 428 q 750 315 735 386 q 769 221 765 244 l 775 221 q 793 310 779 242 q 819 428 807 379 l 894 731 l 1075 731 l 858 0 l 661 0 l 578 349 q 557 443 567 392 q 544 510 547 494 l 538 510 q 528 444 536 494 q 508 350 519 394 l 421 0 l 224 0 l 6 731 m 467 821 l 317 1000 l 318 1004 l 503 1004 l 613 821 l 467 821 z "},"x":{"ha":772,"x_min":8,"x_max":763,"o":"m 8 0 l 265 378 l 29 731 l 258 731 l 390 518 l 399 518 l 533 731 l 749 731 l 508 382 l 763 0 l 535 0 l 383 242 l 375 242 l 222 0 l 8 0 z "},"y":{"ha":772,"x_min":13,"x_max":760,"o":"m 210 -253 q 144 -249 174 -253 q 99 -240 115 -244 q 79 -235 83 -236 l 79 -101 l 169 -101 q 249 -78 218 -101 q 299 0 279 -54 l 13 731 l 211 731 l 349 388 q 379 285 363 351 q 400 197 396 219 l 407 197 q 427 274 413 218 q 458 386 442 329 l 567 731 l 760 731 l 514 38 q 444 -116 481 -54 q 351 -215 408 -178 q 210 -253 293 -253 z "},"ý":{"ha":772,"x_min":13,"x_max":760,"o":"m 13 0 m 210 -253 q 144 -249 174 -253 q 99 -240 115 -244 q 79 -235 83 -236 l 79 -101 l 169 -101 q 249 -78 218 -101 q 299 0 279 -54 l 13 731 l 211 731 l 349 388 q 379 285 363 351 q 400 197 396 219 l 407 197 q 427 274 413 218 q 458 386 442 329 l 567 731 l 760 731 l 514 38 q 444 -116 481 -54 q 351 -215 408 -178 q 210 -253 293 -253 m 313 821 l 422 1004 l 607 1004 l 608 1000 l 458 821 l 313 821 z "},"ŷ":{"ha":772,"x_min":13,"x_max":760,"o":"m 13 0 m 210 -253 q 144 -249 174 -253 q 99 -240 115 -244 q 79 -235 83 -236 l 79 -101 l 169 -101 q 249 -78 218 -101 q 299 0 279 -54 l 13 731 l 211 731 l 349 388 q 379 285 363 351 q 400 197 396 219 l 407 197 q 427 274 413 218 q 458 386 442 329 l 567 731 l 760 731 l 514 38 q 444 -116 481 -54 q 351 -215 408 -178 q 210 -253 293 -253 m 154 817 l 301 1004 l 471 1004 l 617 817 l 463 817 l 386 913 l 308 817 l 154 817 z "},"ÿ":{"ha":772,"x_min":13,"x_max":760,"o":"m 13 0 m 210 -253 q 144 -249 174 -253 q 99 -240 115 -244 q 79 -235 83 -236 l 79 -101 l 169 -101 q 249 -78 218 -101 q 299 0 279 -54 l 13 731 l 211 731 l 349 388 q 379 285 363 351 q 400 197 396 219 l 407 197 q 427 274 413 218 q 458 386 442 329 l 567 731 l 760 731 l 514 38 q 444 -116 481 -54 q 351 -215 408 -178 q 210 -253 293 -253 m 158 840 l 158 1004 l 322 1004 l 322 840 l 158 840 m 450 840 l 450 1004 l 615 1004 l 615 840 l 450 840 z "},"ỵ":{"ha":772,"x_min":13,"x_max":760,"o":"m 13 0 m 210 -253 q 144 -249 174 -253 q 99 -240 115 -244 q 79 -235 83 -236 l 79 -101 l 169 -101 q 249 -78 218 -101 q 299 0 279 -54 l 13 731 l 211 731 l 349 388 q 379 285 363 351 q 400 197 396 219 l 407 197 q 427 274 413 218 q 458 386 442 329 l 567 731 l 760 731 l 514 38 q 444 -116 481 -54 q 351 -215 408 -178 q 210 -253 293 -253 m 528 -240 l 528 -60 l 715 -60 l 715 -240 l 528 -240 z "},"ỳ":{"ha":772,"x_min":13,"x_max":760,"o":"m 13 0 m 210 -253 q 144 -249 174 -253 q 99 -240 115 -244 q 79 -235 83 -236 l 79 -101 l 169 -101 q 249 -78 218 -101 q 299 0 279 -54 l 13 731 l 211 731 l 349 388 q 379 285 363 351 q 400 197 396 219 l 407 197 q 427 274 413 218 q 458 386 442 329 l 567 731 l 760 731 l 514 38 q 444 -116 481 -54 q 351 -215 408 -178 q 210 -253 293 -253 m 313 821 l 163 1000 l 164 1004 l 349 1004 l 458 821 l 313 821 z "},"ỷ":{"ha":772,"x_min":13,"x_max":760,"o":"m 13 0 m 210 -253 q 144 -249 174 -253 q 99 -240 115 -244 q 79 -235 83 -236 l 79 -101 l 169 -101 q 249 -78 218 -101 q 299 0 279 -54 l 13 731 l 211 731 l 349 388 q 379 285 363 351 q 400 197 396 219 l 407 197 q 427 274 413 218 q 458 386 442 329 l 567 731 l 760 731 l 514 38 q 444 -116 481 -54 q 351 -215 408 -178 q 210 -253 293 -253 m 339 896 l 358 896 q 393 902 383 896 q 403 922 403 908 q 391 943 403 938 q 354 949 379 949 l 274 949 l 274 1010 q 389 1021 326 1021 q 502 1002 453 1021 q 551 936 551 983 q 518 878 551 899 q 433 856 485 858 l 433 821 l 339 821 l 339 896 z "},"ȳ":{"ha":772,"x_min":13,"x_max":760,"o":"m 13 0 m 210 -253 q 144 -249 174 -253 q 99 -240 115 -244 q 79 -235 83 -236 l 79 -101 l 169 -101 q 249 -78 218 -101 q 299 0 279 -54 l 13 731 l 211 731 l 349 388 q 379 285 363 351 q 400 197 396 219 l 407 197 q 427 274 413 218 q 458 386 442 329 l 567 731 l 760 731 l 514 38 q 444 -116 481 -54 q 351 -215 408 -178 q 210 -253 293 -253 m 174 849 l 174 971 l 597 971 l 597 849 l 174 849 z "},"ỹ":{"ha":772,"x_min":13,"x_max":760,"o":"m 13 0 m 210 -253 q 144 -249 174 -253 q 99 -240 115 -244 q 79 -235 83 -236 l 79 -101 l 169 -101 q 249 -78 218 -101 q 299 0 279 -54 l 13 731 l 211 731 l 349 388 q 379 285 363 351 q 400 197 396 219 l 407 197 q 427 274 413 218 q 458 386 442 329 l 567 731 l 760 731 l 514 38 q 444 -116 481 -54 q 351 -215 408 -178 q 210 -253 293 -253 m 153 835 q 187 956 153 908 q 289 1004 221 1004 q 331 998 311 1004 q 385 978 350 992 q 433 959 414 965 q 474 953 453 953 q 506 965 494 953 q 522 1004 518 976 l 619 1004 q 585 883 619 931 q 482 835 551 835 q 441 841 460 835 q 388 861 422 847 q 339 880 358 874 q 299 886 319 886 q 250 835 257 886 l 153 835 z "},"z":{"ha":694,"x_min":29,"x_max":664,"o":"m 29 0 l 29 85 l 375 575 l 50 575 l 50 731 l 651 731 l 651 647 l 304 156 l 664 156 l 664 0 l 29 0 z "},"ź":{"ha":694,"x_min":29,"x_max":664,"o":"m 29 0 m 29 0 l 29 85 l 375 575 l 50 575 l 50 731 l 651 731 l 651 647 l 304 156 l 664 156 l 664 0 l 29 0 m 274 821 l 383 1004 l 568 1004 l 569 1000 l 419 821 l 274 821 z "},"ž":{"ha":694,"x_min":29,"x_max":664,"o":"m 29 0 m 29 0 l 29 85 l 375 575 l 50 575 l 50 731 l 651 731 l 651 647 l 304 156 l 664 156 l 664 0 l 29 0 m 263 817 l 115 1004 l 269 1004 l 347 908 l 424 1004 l 578 1004 l 432 817 l 263 817 z "},"ż":{"ha":694,"x_min":29,"x_max":664,"o":"m 29 0 m 29 0 l 29 85 l 375 575 l 50 575 l 50 731 l 651 731 l 651 647 l 304 156 l 664 156 l 664 0 l 29 0 m 253 825 l 253 1006 l 440 1006 l 440 825 l 253 825 z "},"ẓ":{"ha":694,"x_min":29,"x_max":664,"o":"m 29 0 m 29 0 l 29 85 l 375 575 l 50 575 l 50 731 l 651 731 l 651 647 l 304 156 l 664 156 l 664 0 l 29 0 m 253 -240 l 253 -60 l 440 -60 l 440 -240 l 253 -240 z "},"ﬁ":{"ha":849,"x_min":13,"x_max":751,"o":"m 13 0 m 117 575 l 13 575 l 13 731 l 117 731 l 117 814 q 163 958 117 900 q 314 1015 208 1015 q 378 1008 343 1015 q 436 993 413 1001 l 436 860 l 367 860 q 307 800 307 860 l 307 731 l 436 731 l 436 575 l 307 575 l 307 0 l 117 0 l 117 575 m 561 832 l 561 1004 l 751 1004 l 751 832 l 561 832 m 561 0 l 561 731 l 751 731 l 751 0 l 561 0 z "},"ﬂ":{"ha":849,"x_min":13,"x_max":751,"o":"m 13 0 m 117 575 l 13 575 l 13 731 l 117 731 l 117 814 q 163 958 117 900 q 314 1015 208 1015 q 378 1008 343 1015 q 436 993 413 1001 l 436 860 l 367 860 q 307 800 307 860 l 307 731 l 436 731 l 436 575 l 307 575 l 307 0 l 117 0 l 117 575 m 561 0 l 561 1004 l 751 1004 l 751 0 l 561 0 z "},"ª":{"ha":514,"x_min":42,"x_max":479,"o":"m 479 654 l 479 574 q 413 561 454 561 q 355 576 379 561 q 322 618 331 592 l 317 618 q 260 576 292 590 q 179 561 229 561 q 85 588 128 561 q 42 686 42 615 q 113 807 42 771 q 311 843 183 843 l 311 874 q 297 919 311 903 q 247 935 283 935 q 193 923 210 935 q 176 896 176 911 l 176 882 l 65 882 q 64 900 64 888 q 113 990 64 956 q 244 1024 163 1024 q 381 986 336 1024 q 425 879 425 949 l 425 685 q 434 662 425 669 q 456 654 443 654 l 479 654 m 311 765 q 201 751 242 765 q 160 697 160 736 q 174 665 160 678 q 215 651 188 651 q 288 679 264 651 q 311 753 311 707 l 311 765 z "},"º":{"ha":507,"x_min":29,"x_max":481,"o":"m 254 561 q 85 617 140 561 q 29 793 29 674 q 85 967 29 911 q 254 1024 140 1024 q 424 967 368 1024 q 481 793 481 911 q 424 617 481 674 q 254 561 368 561 m 254 656 q 336 688 311 656 q 361 786 361 721 l 361 799 q 336 897 361 864 q 254 929 311 929 q 173 897 199 929 q 147 799 147 864 l 147 786 q 173 688 147 721 q 254 656 199 656 z "},"ⁿ":{"ha":550,"x_min":82,"x_max":475,"o":"m 82 1014 l 181 1014 l 189 956 l 194 956 q 251 1005 217 986 q 331 1024 285 1024 q 475 869 475 1024 l 475 575 l 361 575 l 361 846 q 342 905 361 888 q 285 922 322 922 q 221 896 246 922 q 196 829 196 869 l 196 575 l 82 575 l 82 1014 z "},"Δ":{"ha":999,"x_min":1,"x_max":999,"o":"m 1 0 l 374 953 l 626 953 l 999 0 l 1 0 m 722 171 q 699 223 717 182 q 665 306 681 264 l 557 592 q 525 689 546 621 q 497 779 504 757 l 490 779 q 463 689 483 757 q 431 592 442 621 l 325 306 q 290 222 308 263 q 267 171 272 182 l 722 171 z "},"Ω":{"ha":1114,"x_min":46,"x_max":1068,"o":"m 46 171 l 117 171 q 179 163 126 171 q 256 151 222 156 q 122 297 169 208 q 74 504 74 386 q 132 755 74 650 q 299 915 190 860 q 557 969 407 969 q 815 915 707 969 q 982 755 924 860 q 1040 504 1040 650 q 992 298 1040 386 q 857 151 943 210 q 938 163 892 156 q 997 171 985 171 l 1068 171 l 1068 0 l 607 0 l 607 153 q 776 247 718 172 q 833 439 833 321 l 833 483 q 557 799 833 799 q 281 483 281 799 l 281 439 q 338 249 281 322 q 507 154 396 175 l 507 0 l 46 0 l 46 171 z "},"μ":{"ha":800,"x_min":72,"x_max":728,"o":"m 72 731 l 263 731 l 263 281 q 294 182 263 213 q 389 151 326 151 q 495 197 453 151 q 538 308 538 242 l 538 731 l 728 731 l 728 0 l 565 0 l 551 96 l 542 96 q 471 13 515 42 q 367 -17 426 -17 q 251 26 290 -17 q 263 -106 263 -67 l 263 -240 l 72 -240 l 72 731 z "},"π":{"ha":1064,"x_min":46,"x_max":1024,"o":"m 143 0 q 218 273 185 99 q 256 575 251 447 q 138 571 178 575 q 67 557 99 567 l 46 689 q 325 731 118 731 l 1024 731 l 1010 575 l 865 575 l 865 217 q 888 0 865 67 l 701 0 q 682 70 689 17 q 675 204 675 124 l 675 575 l 444 575 q 401 253 433 431 q 332 0 369 76 l 143 0 z "},"¹":{"ha":463,"x_min":76,"x_max":408,"o":"m 76 563 l 190 563 l 190 819 l 76 819 l 76 896 q 160 915 111 899 q 246 953 210 932 l 306 953 l 306 563 l 408 563 l 408 458 l 76 458 l 76 563 z "}}}
